<svg xmlns="http://www.w3.org/2000/svg" viewBox="0 0 105.31 168"><defs><style>.cls-1{fill:#3d0066;}</style></defs><title>Paso 2 PEAD</title><g id="Capa_2" data-name="Capa 2"><g id="Capa_1-2" data-name="Capa 1"><path class="cls-1" d="M19.43,132.05l-.67-1.87c-.12-.35-3.16-8.86-8.29-28.13-2.92-11,1.62-19.37,5.94-24.46l.08-.09,3-3.06A35.91,35.91,0,0,1,26,69.51l2.26-1.25L32,83c6.16-8.12,10.3-7.87,12.34-6.84,3.82,1.91,4.25,8.25,1.13,16.54-1.36,3.61-2.69,7.66-4,12l-1.28,4.54c-2.38,8.76-3.79,15.8-3.8,15.87l-.23,1.12Zm0-51.82c-5.36,6.33-7.07,13.32-5.08,20.79,3.74,14.07,6.4,22.46,7.55,25.94l10.88-3.77c.5-2.36,1.78-8.18,3.63-15l1.3-4.58C39,99.1,40.37,95,41.76,91.26c2.69-7.13,1.87-11.05.83-11.57s-4.61,1.1-9.71,9.08l-2.47,3.86-4.7-18.17a35.38,35.38,0,0,0-3.5,2.86Z"/><path class="cls-1" d="M89.12,87.84a2,2,0,0,1-1.41-.58s-3-3-7.53-7.11l-4.86-4.31c-4.72-4.08-9.16-7.61-13.19-10.48C55,60.23,51.77,54.74,53.83,51c1.07-1.94,4.23-4.45,13.49-1.43L64.13,37.41a2,2,0,0,1,.47-1.87,2,2,0,0,1,1.83-.61l1.34.25c5.51.06,22.92,1.63,28.7,18.46,6.46,18.86,8.68,27.62,8.77,28A2,2,0,0,1,103.81,84L89.63,87.77A1.75,1.75,0,0,1,89.12,87.84ZM59.9,52.21c-1.54,0-2.36.36-2.57.75-.57,1,1,4.73,7.13,9.14C68.58,65,73.12,68.65,78,72.83l4.9,4.34c3.19,2.9,5.66,5.27,6.87,6.45l11.13-2.93c-1-3.53-3.45-12-8.17-25.75C88.13,41.67,75.21,39.45,68.74,39.2l3.4,13a2.1,2.1,0,0,1,.09.61,2,2,0,0,1-1.74,2,2.08,2.08,0,0,1-1.16-.2C64.9,52.78,61.83,52.21,59.9,52.21Z"/><path class="cls-1" d="M40.58,5.55A143.89,143.89,0,0,1,70.4,52.81h0l1,.43-5.63-16s.72-.06,1.95-.06A153.75,153.75,0,0,0,41.81,1c-1.16-1.22-2-1.22-3.44-.6-6,2.67-12.12,5.24-18.19,7.84S8.06,13.52,2,16A2.62,2.62,0,0,0,0,19.18a154,154,0,0,0,7.69,35.7,163.08,163.08,0,0,0,10.22,24,34.5,34.5,0,0,1,2.87-3A159.9,159.9,0,0,1,8.86,45.27a158,158,0,0,1-4.65-24.1c-.16-1.44.17-2,1.46-2.54,5.36-2.22,10.68-4.55,16-6.84s10.68-4.54,16-6.89A2.13,2.13,0,0,1,40.58,5.55Z"/><path class="cls-1" d="M49.44,118.05a5.94,5.94,0,0,0,3.93-.49l.37-.16c4.23-1.69,8.38-3.56,12.57-5.35s8.42-3.46,12.51-5.44c.78-.38,5.41-1.71,5.35-6.54a127.45,127.45,0,0,0-2.48-21.4c-1.48-1.34-3.12-2.81-4.88-4.33a166.78,166.78,0,0,1,3.43,24.22c.16,2.34-.51,3.38-2.69,4.27-8.68,3.55-17.28,7.28-25.85,11.07a2.85,2.85,0,0,1-3.83-.73q-4.34-4.4-8.25-9-.69,2.34-1.29,4.56c2.37,2.74,4.87,5.41,7.47,8A11.27,11.27,0,0,0,49.44,118.05Z"/><path class="cls-1" d="M65,121.91a3.31,3.31,0,0,1-3-2l-2.13-5a3.29,3.29,0,0,1,1.73-4.31l8.71-3.73a3.24,3.24,0,0,1,2.52,0,3.3,3.3,0,0,1,1.8,1.76l2.13,5A3.29,3.29,0,0,1,75,117.92l-8.71,3.72A3.28,3.28,0,0,1,65,121.91Zm6.58-12.28a.27.27,0,0,0-.12,0l-8.71,3.72a.3.3,0,0,0-.15.38l2.13,5a.29.29,0,0,0,.38.15l8.71-3.73A.28.28,0,0,0,74,115a.28.28,0,0,0,0-.22l-2.13-5a.31.31,0,0,0-.16-.16Z"/><path class="cls-1" d="M75.58,122.11a1.9,1.9,0,0,1,1.9,1.89v13.27a1.9,1.9,0,0,1-3.79,0V124A1.89,1.89,0,0,1,75.58,122.11Z"/><path class="cls-1" d="M69.9,124.43a1.89,1.89,0,0,1,1.89,1.89v39.79a1.9,1.9,0,0,1-3.79,0V126.32A1.89,1.89,0,0,1,69.9,124.43Z"/></g></g></svg>