<svg xmlns="http://www.w3.org/2000/svg" viewBox="0 0 97.46 126.96"><defs><style>.cls-1{fill:#3d0066;}</style></defs><title>PAso 4 PEAD</title><g id="Capa_2" data-name="Capa 2"><g id="Capa_1-2" data-name="Capa 1"><path class="cls-1" d="M48.67,108.67a2.9,2.9,0,0,1-2.57,1H44.75c-8.92,0-17.84.14-26.76.43-2.35.08-3.39-.6-4.2-2.8C1.53,73.78.32,40.12,12.05,6.2c.47-1.37,1-1.79,2.39-1.79,5.8,0,11.6-.15,17.41-.23L43.23,4c2,0,4-.08,6-.14,1.11,0,1.68.21,2.09,1l4.21,0c-.29-.93-.6-1.85-.92-2.77a4.68,4.68,0,0,0-.5-1,2.57,2.57,0,0,0-2.55-1C45,.2,38.38.24,31.77.34S18.56.58,12,.6c-1.52,0-2.33.36-2.9,1.95C-3.81,38.69-2.77,75.29,10.94,111c.7,1.83,6.27,3.07,7.43,3.1,1.65,0,3.3.06,5,0,2.89,0,5.79-.14,8.69-.18,3.12,0,6.24-.06,9.36-.12,1.43,0,2.86-.07,4.29-.13a7.27,7.27,0,0,0,1.9-.54A16,16,0,0,0,52,110.6,3.28,3.28,0,0,1,48.67,108.67Z"/><path class="cls-1" d="M38.12,126.46H26.76a5.32,5.32,0,0,1-5.32-5.32v-5.36a5.32,5.32,0,0,1,5.32-5.32H38.12a5.33,5.33,0,0,1,5.32,5.32v5.36A5.32,5.32,0,0,1,38.12,126.46Zm-11.36-13a2.32,2.32,0,0,0-2.32,2.32v5.36a2.32,2.32,0,0,0,2.32,2.32H38.12a2.32,2.32,0,0,0,2.32-2.32v-5.36a2.32,2.32,0,0,0-2.32-2.32Z"/><path class="cls-1" d="M96.68,38.32A153.37,153.37,0,0,0,89.13,2.58a2.62,2.62,0,0,0-3-2.08c-6.6.2-13.2.24-19.81.34L54.13,1c-2.56,0-5.11.06-7.67.07-1.52,0-2.33.36-2.9,1.95-.12.32-.23.65-.33,1C30.92,39.24,31.82,74.88,44.75,109.66l.69,1.8a3.93,3.93,0,0,0,2.13,1.67,18.65,18.65,0,0,0,5.3,1.43c1.65,0,3.3.06,5,0,2.89,0,5.79-.14,8.69-.18,3.12,0,6.24-.06,9.36-.12,1.43,0,2.86-.07,4.29-.13s6.39-2.35,7-3.87A156.69,156.69,0,0,0,96.68,38.32Zm-12.87,69.6a2.86,2.86,0,0,1-3.21,2.23c-9.37,0-18.74.14-28.11.44H52a3.28,3.28,0,0,1-3.36-1.93,8.28,8.28,0,0,1-.38-.88C36,74.28,34.82,40.62,46.55,6.7c.47-1.37,1-1.79,2.39-1.79l2.4,0,4.21,0,10.8-.17c5.8-.09,11.6-.13,17.4-.3,1.39,0,1.93.35,2.37,1.73A157.78,157.78,0,0,1,91.71,30,153.6,153.6,0,0,1,83.81,107.92Z"/><path class="cls-1" d="M72.62,127H61.26a5.32,5.32,0,0,1-5.32-5.32v-5.36A5.32,5.32,0,0,1,61.26,111H72.62a5.33,5.33,0,0,1,5.32,5.32v5.36A5.32,5.32,0,0,1,72.62,127ZM61.26,114a2.32,2.32,0,0,0-2.32,2.32v5.36A2.32,2.32,0,0,0,61.26,124H72.62a2.32,2.32,0,0,0,2.32-2.32v-5.36A2.32,2.32,0,0,0,72.62,114Z"/></g></g></svg>