<svg xmlns="http://www.w3.org/2000/svg" viewBox="0 0 171.04 200.54"><defs><style>.cls-1{fill:#3d0066;}</style></defs><title>PAso 3 PEAD</title><g id="Capa_2" data-name="Capa 2"><g id="Capa_1-2" data-name="Capa 1"><path class="cls-1" d="M72,62.52a1.89,1.89,0,0,1,1.89,1.89V77.68a1.9,1.9,0,0,1-3.79,0V64.41A1.9,1.9,0,0,1,72,62.52Z"/><path class="cls-1" d="M66.31,56.84a1.89,1.89,0,0,1,1.9,1.89V98.52a1.9,1.9,0,0,1-3.79,0V58.73A1.89,1.89,0,0,1,66.31,56.84Z"/><path class="cls-1" d="M60.63,90.94a1.89,1.89,0,0,1,1.89,1.89V104.2a1.9,1.9,0,1,1-3.79,0V92.83A1.9,1.9,0,0,1,60.63,90.94Z"/><path class="cls-1" d="M55,24.63H51.16V15.16a1.9,1.9,0,0,0-1.9-1.9H41.68V7.58h9.48a1.9,1.9,0,0,0,0-3.79H41.68V1.89a1.9,1.9,0,0,0-3.79,0v1.9H28.42a1.9,1.9,0,0,0,0,3.79h9.47v5.68H30.32a1.9,1.9,0,0,0-1.9,1.9V19H1.9a1.89,1.89,0,1,0,0,3.78H28.42v7.58H7.58a1.9,1.9,0,0,0,0,3.79H28.42A11.36,11.36,0,0,0,51,36h4a5.68,5.68,0,0,1,5.68,5.68v5.68a5.69,5.69,0,1,0,11.37,0V41.68A17.07,17.07,0,0,0,55,24.63ZM47.37,34.1a7.58,7.58,0,0,1-15.16,0V22.73H47.37Zm0-15.15H32.21v-1.9H47.37ZM68.21,47.36a1.9,1.9,0,1,1-3.79,0V41.68A9.48,9.48,0,0,0,55,32.21H51.16V28.42H55A13.28,13.28,0,0,1,68.21,41.68Z"/><path class="cls-1" d="M60.63,66.31a1.89,1.89,0,0,1,1.89,1.89V85.26a1.9,1.9,0,0,1-3.79,0V68.2A1.9,1.9,0,0,1,60.63,66.31Z"/><path class="cls-1" d="M171,158.8a1.9,1.9,0,0,1-2.21,1.51l-2.21-.42a33.39,33.39,0,0,1-16.74-9,11.29,11.29,0,0,0-5.7-2.91l-23.9-4.53a5.69,5.69,0,0,0,1.51,3.08,5.57,5.57,0,0,0,3,1.63L136,150.24a1.89,1.89,0,0,1-.35,3.75l-.36,0-22.95-4.35-3.25-.62-7.3-1.38a2.07,2.07,0,0,0-.35,0,1.89,1.89,0,0,0-.36,3.75l9.27,1.76,3.19.6,11.74,2.23a1.88,1.88,0,0,1,1.54,1.86,2.07,2.07,0,0,1,0,.35,1.92,1.92,0,0,1-.27.66,1.46,1.46,0,0,1-.16.19,1.77,1.77,0,0,1-.3.31,2.84,2.84,0,0,1-.61.29l-.52.1a2.2,2.2,0,0,1-.36,0l-10-1.89-3.14-.6-11.06-2.09L94.79,154a1.89,1.89,0,1,0-.7,3.72l5.58,1.06,12.7,2.41,3.09.59,8.41,1.59a1.87,1.87,0,0,1,1.51,2.18,1.72,1.72,0,0,1-.27.69l-.16.18a1.27,1.27,0,0,1-.55.45,1.73,1.73,0,0,1-.37.16l-.51.09a2.19,2.19,0,0,1-.36,0l-7-1.32-3.07-.58L99,162.5a1.9,1.9,0,0,0-.7,3.73l15.53,2.94,3,.57,5.64,1.07a1.91,1.91,0,0,1,1.54,1.87,2,2,0,0,1,0,.34,1.92,1.92,0,0,1-.27.66,5.32,5.32,0,0,1-.46.5,2.84,2.84,0,0,1-.61.29l-.52.1a1.47,1.47,0,0,1-.36,0l-4.43-.84-3-.57L105,171.36a1.89,1.89,0,0,0-.71,3.72l10.37,2,3,.58,7.09,1.34,15.82,3a12.45,12.45,0,0,0,7.72-1,16.2,16.2,0,0,1,10.09-1.37l8.38,1.59a1.89,1.89,0,0,1-.36,3.75,2.07,2.07,0,0,1-.35,0l-8.37-1.59a12.39,12.39,0,0,0-7.72,1,16.26,16.26,0,0,1-7.12,1.64,15.56,15.56,0,0,1-3-.28l-15.82-3-6.18-1.17-3-.57-11.29-2.14a5.62,5.62,0,0,1-3.83-8.44L97.55,170A5.64,5.64,0,0,1,93,163.4a5.55,5.55,0,0,1,.71-1.89l-.34-.07a5.68,5.68,0,0,1,2.12-11.16l.33.06a5.66,5.66,0,0,1,4.71-6.48,5.8,5.8,0,0,1,1.95,0l5.16,1,3.33.63,6.42,1.21a9.33,9.33,0,0,1-.83-5.88,2,2,0,0,1,2.22-1.57l9,1.7,7.23,1.37h0l9.84,1.87a15.11,15.11,0,0,1,7.62,3.9,29.62,29.62,0,0,0,14.83,8.07l2.21.42A1.88,1.88,0,0,1,171,158.8Z"/><path class="cls-1" d="M148.82,123.92a1.88,1.88,0,0,1-2.66.26l-1.74-1.42a33.35,33.35,0,0,1-10.37-16,11.35,11.35,0,0,0-3.62-5.29l-18.82-15.4a5.68,5.68,0,0,0-.35,1.94,5.61,5.61,0,0,0,2.07,4.36l8.84,7.24A1.9,1.9,0,0,1,121,103a1.85,1.85,0,0,1-1.19-.43L93.38,81A1.89,1.89,0,1,0,91,83.92L110,99.52a1.89,1.89,0,0,1,.27,2.66h0a2,2,0,0,1-.55.45l-.23.09a2.77,2.77,0,0,1-.41.12,3.87,3.87,0,0,1-.68,0l-.5-.17a1.87,1.87,0,0,1-.29-.2L88.58,86.85l-4.4-3.6a1.9,1.9,0,0,0-2.4,2.94l4.4,3.6,19.06,15.59a1.89,1.89,0,0,1,.28,2.65,1.86,1.86,0,0,1-.57.47l-.22.08a1.33,1.33,0,0,1-.71.14,1.72,1.72,0,0,1-.39,0l-.5-.16-.29-.2L83.78,92.72a1.89,1.89,0,1,0-2.4,2.93l19.06,15.6a1.89,1.89,0,0,1,.27,2.66h0a1.6,1.6,0,0,1-.55.45.92.92,0,0,1-.23.09,2,2,0,0,1-.41.13,3.76,3.76,0,0,1-.67,0l-.51-.17a1.87,1.87,0,0,1-.29-.2l-13.2-10.8a1.89,1.89,0,0,0-2.4,2.93l6.87,5.62,7.9,6.46h0l1.36,1.11L111,129.71a12.45,12.45,0,0,0,7.28,2.78,16.18,16.18,0,0,1,9.52,3.62l6.6,5.4a1.75,1.75,0,0,1,.57.82h0a1.9,1.9,0,0,1-.32,1.85,1.86,1.86,0,0,1-1.46.69,1.88,1.88,0,0,1-1.2-.43L127.77,141l-2.34-1.91a12.38,12.38,0,0,0-7.28-2.78,16.23,16.23,0,0,1-7-2,16.5,16.5,0,0,1-2.48-1.66l-5.32-4.35a0,0,0,0,0,0,0h0l-6.72-5.49a0,0,0,0,0,0,0h0c-1.46-2.29-3-4.52-4.68-6.73a2.14,2.14,0,0,0-2.77-.92l-1.41.41-2.89-2.37L80,109.25a5.65,5.65,0,0,1,.67-9.25L79,98.58a5.61,5.61,0,0,1,.67-9.24l-.27-.22a5.69,5.69,0,0,1,7.2-8.8l.27.22a5.66,5.66,0,0,1,8.93-2.48l11.74,9.61a9.29,9.29,0,0,1,2.09-5.57,1.93,1.93,0,0,1,1.29-.71,2,2,0,0,1,1.41.4l20.52,16.8a15,15,0,0,1,4.82,7.06,29.63,29.63,0,0,0,9.17,14.18l1.74,1.42A1.89,1.89,0,0,1,148.82,123.92Z"/><path class="cls-1" d="M113.54,153.69l-3.19-.6c.39,1.34.75,2.7,1.09,4.06l3.14.6C114.25,156.39,113.91,155,113.54,153.69Zm3.28,16.05-3-.57c0,.33.09.66.14,1,.14,1,.26,2,.36,3l3,.57C117.18,172.37,117,171.05,116.82,169.74Zm1.07,11.78c0-1.3-.12-2.6-.21-3.9l-3-.58c.09,1.3.17,2.6.22,3.91q.15,3.74.07,7.5c0,1.08-.33,1.47-1.33,1.73-4.19,1.11-8.35,2.29-12.52,3.45s-8.35,2.29-12.51,3.5a1.59,1.59,0,0,1-2.09-.78c-15.53-21.82-21.75-46.18-20-72.74a2.68,2.68,0,0,1,2.42-2.89c6.29-1.64,12.56-3.39,18.8-5.19l1.41-.41a2.14,2.14,0,0,1,2.77.92c1.66,2.21,3.22,4.44,4.68,6.73h0a0,0,0,0,1,0,0,111.26,111.26,0,0,1,11.07,22.08c.51,1.37,1,2.74,1.44,4.12l3.25.62c-.42-1.38-.88-2.75-1.36-4.11a114,114,0,0,0-7.67-17.2,0,0,0,0,0,0,0h0a110.28,110.28,0,0,0-6.09-9.88h0c-1.1-1.61-2.25-3.18-3.44-4.75l0,0a4.36,4.36,0,0,0-4.44-1.68,2.66,2.66,0,0,0-.38.1l-1,.3c-1,.26-2.1.54-3.15.83-2.23.6-4.45,1.25-6.68,1.87-3.27.9-6.58,1.71-9.8,2.76a6.32,6.32,0,0,1-.87.18,4.43,4.43,0,0,0-3.74,4.08v0c-2.31,28.43,4.58,54.33,21.4,77.5a1.89,1.89,0,0,0,2.48.78c4.73-1.37,9.49-2.65,14.24-4s9.49-2.68,14.25-3.93a2,2,0,0,0,1.75-2.13C118,187.39,118,184.46,117.89,181.52Zm-2.15-18.36c-.09-.46-.18-.92-.28-1.38l-3.09-.59c.28,1.33.54,2.66.77,4l3.07.58C116.06,164.9,115.91,164,115.74,163.16Z"/><path class="cls-1" d="M75.52,118.48a3.46,3.46,0,0,1-3.27-2.36l-1.6-4.86a3.46,3.46,0,0,1,2.19-4.35l4.86-1.6a3.46,3.46,0,0,1,4.35,2.19l1.6,4.86a3.46,3.46,0,0,1-2.19,4.35l-4.86,1.6A3.38,3.38,0,0,1,75.52,118.48Zm3.26-10.34a.34.34,0,0,0-.14,0l-4.86,1.6a.44.44,0,0,0-.28.56l1.6,4.86a.44.44,0,0,0,.56.28l4.86-1.6a.44.44,0,0,0,.28-.56l-1.6-4.86A.45.45,0,0,0,78.78,108.14Z"/></g></g></svg>