<svg xmlns="http://www.w3.org/2000/svg" viewBox="0 0 143.07 200.5"><defs><style>.cls-1{fill:#3d0066;}</style></defs><title>PAso 1 PEAD</title><g id="Capa_2" data-name="Capa 2"><g id="Capa_1-2" data-name="Capa 1"><path class="cls-1" d="M21.67,9.88a8.73,8.73,0,0,1,7.91,4.46Q30.81,16.4,32,18.49c.34.61.75.73,1.33.35a2.37,2.37,0,0,1,.63-.37c.31-.09.82-.26.94-.13a1.34,1.34,0,0,1,.18,1c-.16.85-.41,1.68-.63,2.52-.32,1.23-.65,2.46-1,3.69-.16.63-.47.9-1.18.7-2.08-.58-4.19-1.1-6.27-1.67-.28-.08-.69-.37-.69-.55a1.09,1.09,0,0,1,.51-.81c1.87-1,1.35-1.17.6-2.52-.6-1.06-1.21-2.12-1.83-3.17-1.39-2.34-3.89-2.35-5.26,0S16.8,22,15.51,24.15c-1.08,1.83-3,2.34-4.54,1.22a2.84,2.84,0,0,1-.86-3.76c1.54-2.77,3.05-5.57,4.81-8.19A7.88,7.88,0,0,1,21.67,9.88Z"/><path class="cls-1" d="M12.76,50.14a37.08,37.08,0,0,1-5.58,0A8.72,8.72,0,0,1,.87,37.75c.8-1.6,1.71-3.14,2.61-4.69.38-.66.31-1.06-.41-1.41C2.58,31.4,1.74,31.22,2,30.5c.11-.35.87-.58,1.38-.73,1.78-.53,3.59-1,5.38-1.53.74-.22,1.12,0,1.31.73.54,2,1.12,4.06,1.64,6.11a3.08,3.08,0,0,1-.08,1,3.55,3.55,0,0,1-1.05-.16c-1.44-.75-1.43-.76-2.24.65-.61,1.06-1.17,2.15-1.83,3.17a2.94,2.94,0,0,0,2.7,4.63c2.54-.1,5.09,0,7.63,0,1.79,0,2.92.74,3.38,2.13a2.94,2.94,0,0,1-2.61,3.83h-4.8Z"/><path class="cls-1" d="M32.78,50.28H29.93c-.61,0-.91.24-.87.87a4.6,4.6,0,0,1,0,1.05c0,.24-.18.6-.35.65a.93.93,0,0,1-.78-.2c-.84-.77-1.62-1.6-2.42-2.4S24,48.7,23.19,47.94a.75.75,0,0,1,0-1.24c1.59-1.58,3.17-3.19,4.78-4.76a.92.92,0,0,1,.75-.24.91.91,0,0,1,.35.73c-.09,2.22.23,1.8,2,1.83,1.33,0,2.65,0,4,0a2.87,2.87,0,0,0,2.54-4.41c-1.31-2.28-2.66-4.53-3.94-6.82A3,3,0,0,1,36,28.45a2.58,2.58,0,0,1,2.54,1.3A94.89,94.89,0,0,1,43.15,38a8.76,8.76,0,0,1-7.53,12.21c-.94.06-1.9,0-2.84,0Z"/><path class="cls-1" d="M15.24,37.19l5.17-5.37A4.36,4.36,0,0,0,22,29.09a1.53,1.53,0,0,0-1.65-1.63,2.49,2.49,0,0,0-2.27,1.67l-3-1.73A5.49,5.49,0,0,1,20.28,24a4.9,4.9,0,0,1,5.22,4.91,7,7,0,0,1-2.4,4.84l-2.55,2.57h5.17v3.39H15.24Z"/><rect class="cls-1" x="65.78" y="68.55" width="6.64" height="22.46" transform="translate(42.38 181.89) rotate(-124.44)"/><rect class="cls-1" x="22.2" y="88.2" width="52.25" height="11.65" rx="2.01" transform="translate(-44.71 43.82) rotate(-34.45)"/><path class="cls-1" d="M72.34,51.65A29.43,29.43,0,1,1,93.43,87.53,29.48,29.48,0,0,1,72.34,51.65Zm4.86,1.26A24.42,24.42,0,1,0,107,35.41,24.44,24.44,0,0,0,77.2,52.91Z"/><path class="cls-1" d="M44.55,16.07C45.11,12,46.1,8.23,48.58,5a12.5,12.5,0,0,1,10-5A23,23,0,0,1,69.84,2.87a38.75,38.75,0,0,1,9.23,6.64l.43.4a.5.5,0,0,0,.68,0l2.51-2.45a.49.49,0,0,1,.83.29c.72,5.62,1.42,11.16,2.14,16.76a.5.5,0,0,1-.57.55L68.54,22.44a.5.5,0,0,1-.27-.84l2.81-2.75a1.52,1.52,0,0,0-.12-.21,39.55,39.55,0,0,0-9-7,14.43,14.43,0,0,0-6.12-1.8,11.11,11.11,0,0,0-8,2.82c-1.06.9-2,2-2.95,3Z"/><path class="cls-1" d="M79.65,124.24A20.3,20.3,0,1,0,91.94,98.36,20.38,20.38,0,0,0,79.65,124.24Zm3.8-1.32A16.54,16.54,0,0,1,93,102.05a16.32,16.32,0,0,1,11.45,30.56A16.55,16.55,0,0,1,83.45,122.92Z"/><path class="cls-1" d="M134.33,113.66A153.14,153.14,0,0,0,143,78.18a2.62,2.62,0,0,0-1.85-3.2c-6-2.68-12-5.51-18-8.29s-12-5.51-18-8.35c-1.38-.66-2.26-.69-3.46.5-27.27,27-42,59.74-45.14,97.82a22,22,0,0,1-2,7.9c-2.86,5.95-5.53,12-8.39,17.95-.74,1.52-.44,2.08,1,2.76q16.08,7.33,32.07,14.86c1.76.84,2.23.18,2.88-1.24,3.13-6.91,6.38-13.77,9.52-20.67a12,12,0,0,1,2.79-3.85A156.52,156.52,0,0,0,134.33,113.66ZM60.16,184.74c1-1.61,1.22-4.25,4.25-2.61a48.51,48.51,0,0,0,5.07,2.34c1.85.75,2.36,1.73,1.4,3.66-1.54,3.08-1.44,3.14-4.66,1.65l-1.93-.9c-.88-.41-1.75-.85-2.65-1.22C60.31,187.1,58.92,186.7,60.16,184.74Zm7.57-13.69c-2.64-1.07-5.15-2.47-7.8-3.52-1.62-.65-1.73-1.38-1-2.77.66-1.17.84-2.43,2.81-1.41,4,2.1,8.23,3.88,12.36,5.79s8.23,3.9,12.41,5.7c1.52.66,1.72,1.26,1,2.75-2.57,5.3-5.09,10.62-7.4,16-.84,2-1.64,2-3.32,1.11-3.7-1.85-3.75-1.76-2.2-5.5,1.64-3.93.69-6.41-3.19-8.25-1.85-.88-3.72-1.75-5.59-2.59-4.09-1.85-6.72-.85-8.66,3.26-1.64,3.45-1.62,3.4-5.09,1.62-1-.52-1.31-.91-.77-2,1.53-3.12,3-6.28,4.38-9.47.53-1.23,1.1-1.31,2.21-.76,2.64,1.31,5.38,2.42,8,3.77,1.42.73,1.88.1,2.32-1S69.55,171.79,67.73,171.05Zm24.82-.27a2.84,2.84,0,0,1-3.85.62c-8.47-4-17-8-25.53-11.79-2.15-1-2.8-2-2.57-4.35,3.49-35.51,17-66.36,42.28-91.84a2.13,2.13,0,0,1,2.93-.58c5.24,2.5,10.52,4.91,15.78,7.34s10.51,4.92,15.81,7.29c1.27.56,1.59,1.15,1.38,2.58a156.19,156.19,0,0,1-5.32,24A153.63,153.63,0,0,1,92.55,170.78Z"/></g></g></svg>