<svg id="Capa_1" data-name="Capa 1" xmlns="http://www.w3.org/2000/svg" viewBox="0 0 800 800"><defs><style>.cls-1{fill:none;stroke:#f7ec41;stroke-miterlimit:10;stroke-width:18px;}.cls-2{fill:#f7ec41;}.cls-3{fill:#fbed22;}</style></defs><title>Botella</title><line class="cls-1" x1="436.84" y1="701.7" x2="431.2" y2="701.7"/><polyline class="cls-1" points="327.08 701.7 383.37 701.7 404.76 701.7"/><path class="cls-1" d="M276.58,190.74c36-23.75,71-44.93,71-44.93V81.73H448.46v64.08h.59s55.19,33.41,98.27,63.35"/><line class="cls-1" x1="475.49" y1="701.7" x2="469.84" y2="701.7"/><rect class="cls-2" x="336.05" y="77.77" width="125.26" height="47.47" rx="7.27"/><path class="cls-2" d="M452.84,145.81H343.93a3.43,3.43,0,0,1-3.43-3.43h0a3.42,3.42,0,0,1,3.43-3.43H452.84a3.43,3.43,0,0,1,3.43,3.43h0A3.44,3.44,0,0,1,452.84,145.81Z"/><path class="cls-1" d="M307,555.85c-1.43-21.09,37.67-209.06,36.24-253.72s-46.67-101.79-67.41-111.78h.63c-6.82-5.85-13.46-10.17-15.81-16.75-4.85-13.52-5.12-52-5.12-52H213.18s-.27,38.5-5.12,52c-2.36,6.58-9,10.9-15.82,16.75-30,19-65.35,67.11-66.78,111.78s37.67,232.63,36.24,253.72-17.64,45.29-20.5,68.86.31,73.22.31,73.22,0,24.77,25.81,24.1c22.66-.59,18.05-18.41,30.13-17.94s8.21,7.19,16.12,13c9.25,6.83,32.6,6.83,41.85,0,7.9-5.83,4-12.56,16.11-13S279,721.44,301.67,722c25.81.67,25.81-24.1,25.81-24.1s2.88-49.64,0-73.22S308.42,577,307,555.85Z"/><rect class="cls-2" x="192.02" y="92.78" width="84.77" height="52.34" rx="8.41"/><rect class="cls-2" x="195.01" y="149.38" width="79.56" height="7.76" rx="2.6"/><path class="cls-1" d="M498.58,707.93c3.3,2.22,7.7,3.63,13.56,3.46,10.58-.3,14.64-5.12,17.56-9.69,2.79-4.35,4.54-8.48,9.92-8.25,4.35.18,6.44,1.34,7.8,3,2.1,2.6,2.53,6.45,6.89,10,8.43,6.83,29.72,6.83,38.15,0,7.22-5.83,3.68-12.56,14.7-13s6.81,17.35,27.47,17.94c23.54.67,23.54-24.1,23.54-24.1l16.41-57.5s-2.26-306.77-6-334.69-27.72-53-52.36-70.4c-3.41-2.93-6.77-5.48-9.58-8.11s-5.06-5.35-6.24-8.64c-1.92-5.35-3.12-14.58-3.87-23.8-.19-2.27-.34-4.54-.48-6.74-.07-1.26-.14-2.5-.2-3.7-.51-9.9-.57-17.78-.57-17.78H552.92s-.06,7.88-.57,17.78c-.05,1.2-.12,2.44-.2,3.7-.14,2.2-.29,4.47-.48,6.74-.75,9.22-1.95,18.45-3.86,23.8-.15.41-.31.81-.49,1.21-2.7,5.91-8.94,10.05-15.33,15.54-24.64,17.36-48.6,42.48-52.36,70.4-1,7.26-1.86,33.41-2.62,68.11,0,.34,0,.68,0,1l-.06,2.5c0,.63,0,1.26,0,1.89-.22,10.4-.42,21.49-.63,33a0,0,0,0,1,0,0c0,1,0,2.09-.05,3.14,0,1.89-.06,3.8-.09,5.72q-.14,8.19-.27,16.58h0"/><rect class="cls-2" x="536.98" y="128.26" width="73.6" height="45.45" rx="8.41"/><rect class="cls-2" x="539.57" y="177.41" width="69.08" height="6.74" rx="2.96"/><path class="cls-1" d="M512.06,664.12l-9.53,33.37s0,6.3-3.95,10.44c-2,2.12-5.08,3.67-9.71,3.54-10-.29-10-7.54-13.38-9.77a4.21,4.21,0,0,0-2.55-.64,8.11,8.11,0,0,0-3.11.64c-2.7,1.29-2.13,4.27-5.43,6.92-4.88,4-17.25,4-22.13,0-3.28-2.66-2.73-5.64-5.44-6.92a8,8,0,0,0-3.08-.64,4.18,4.18,0,0,0-2.55.64c-3.44,2.23-3.39,9.48-13.41,9.77-8.76.25-11.9-5.56-13-9.77a17.84,17.84,0,0,1-.64-4.21l-8.69-33.37s1.31-178,3.49-194.22,16.09-30.78,30.39-40.85c3.95-3.4,7.8-5.91,9.18-9.72a44.1,44.1,0,0,0,1.75-8.81c.22-1.85.39-3.79.54-5.72.08-1.06.16-2.11.23-3.14.41-6.72.45-12.52.45-12.52h5.23v12.52H451V389.14H466s0,4.27.3,9.74c0,.9.1,1.83.16,2.78s.13,2.08.22,3.14c.14,1.93.32,3.87.55,5.72a44.1,44.1,0,0,0,1.75,8.81,13,13,0,0,0,3.61,5c1,.92,2.08,1.82,3.22,2.76h0c.76.62,1.55,1.26,2.35,1.94,14.29,10.07,28.19,24.65,30.38,40.85S512.06,664.12,512.06,664.12Z"/><rect class="cls-3" x="418.42" y="362.78" width="79" height="41" rx="14.17"/></svg>