<svg id="Capa_1" data-name="Capa 1" xmlns="http://www.w3.org/2000/svg" viewBox="0 0 800 800"><defs><style>.cls-1{fill:#fff;}.cls-2{fill:#8cc63f;}</style></defs><title>Carro</title><circle class="cls-1" cx="534.3" cy="445.61" r="18.35"/><path class="cls-2" d="M666.8,402.8c-.53-.18-.88-.8-2-1.78.09-7.1.53-14.92.09-22.65-.89-14-11.73-24.25-24.61-23.72-13.32.62-23,10.84-23.45,25-.18,7.38-.18,14.75-.18,22.48l-24-.27c0-4.26.09-8,.09-11.81.44-50.28.27-100.56,1.42-150.84,1.15-45.92-33.85-76.84-71.51-77.1-111.84-.72-223.77-2.14-335.61-2.76-41.21-.18-72,29.32-72.66,70.45-1.6,103.75-2.13,207.51-2.93,311.35-.18,15.63,9.06,24.43,24.87,24.87,7.64.27,15.19.18,22.65.27,2.31,46.64,36.34,69.47,63.07,72,17,1.69,33-1,47.44-10.39C291,613.77,301.53,593.17,303.75,568c24.16.17,47.43.35,71.24.62,2.31,46.28,36.33,69,63,71.6,17,1.6,33-1,47.53-10.4,21.58-14.12,32.07-34.82,34.2-59.51,1.6-.45,2.22-.71,2.84-.8,14.21.09,28.52.26,42.73.17,16.88,0,25.23-8.08,25.49-25,.45-25.94.54-51.88.8-77.81,0-5.07.09-10.22.18-16.35,23.45.18,45.75.53,68,.62,16,.09,26.65-7.73,28.51-20.69C690.17,417.37,682.35,407.33,666.8,402.8ZM230.46,591.39C218.11,591,207.1,579.66,207,567.32c-.09-12.17,12.35-24.17,24.7-23.81s23.54,12,23.36,24.07C254.8,580.55,243.17,591.83,230.46,591.39Zm215.78,1.86c-12.53-.71-23.37-12.08-23.28-24.34s12.88-24.16,25.05-23.45c12.35.54,23.36,12.26,23,24.34C470.66,582.77,458.85,593.88,446.24,593.25ZM544.66,391c0,3.19,0,6.39-.09,10.21-127.65-1.07-254.86-2.13-383.57-3.29.08-3.37.08-6.21.08-9.06q.67-76.35,1.34-152.61c.26-21.5,8.79-29.85,30.47-29.58q161.36,1.34,322.72,2.75c22.12.18,30.56,8.89,30.38,30.83Q545.33,315.66,544.66,391Z"/></svg>