<svg xmlns="http://www.w3.org/2000/svg" viewBox="0 0 102.44 103.37"><defs><style>.cls-1{fill:#fff;}</style></defs><title>latas</title><g id="Capa_2" data-name="Capa 2"><g id="Capa_1-2" data-name="Capa 1"><path class="cls-1" d="M49.09,95.36h0V42.23a1.77,1.77,0,0,0,.08-.46V37a1.32,1.32,0,0,0-.08-.44v-2a1.41,1.41,0,0,0,.07-.41V25.91a1.27,1.27,0,0,0-.06-.39V19.65a1.41,1.41,0,0,0-.33-1.27l-2.28-2.49a3.24,3.24,0,0,0-2.37-5.46h0l-14.79,0a3.39,3.39,0,0,0-.57-2.27l-4.6-6.7a3.4,3.4,0,0,0-5.61,3.85L22,10.46l-17,0A3.25,3.25,0,0,0,2.7,16L.43,18.45a1.44,1.44,0,0,0-.43,1V96.18a1.4,1.4,0,0,0,.74,1.23l3.35,5.3a1.4,1.4,0,0,0,1.2.66h0l38.89-.06a1.43,1.43,0,0,0,1.2-.67l3.67-5.84A1.43,1.43,0,0,0,49.09,95.36ZM5.6,17,35,17l8.54,0,.91,1L4.69,18ZM46.24,33.16a28,28,0,0,0-4.07,1.91c-.93.52-1.84,1.08-2.73,1.62-3,1.82-5.79,3.53-9,4.08-3,.53-6,0-9.25-.61a45,45,0,0,0-6.74-.86,22.45,22.45,0,0,0-11.56,3V35.87a35.88,35.88,0,0,1,9.08-2,52.86,52.86,0,0,1,6.74.51c3.6.43,7.32.88,11,.16a35.61,35.61,0,0,0,9.39-3.75c1.19-.61,2.42-1.24,3.64-1.79a22.17,22.17,0,0,1,3.44-1.27Zm0-8.37a25.07,25.07,0,0,0-4.62,1.62c-1.28.58-2.54,1.23-3.76,1.85a32.9,32.9,0,0,1-8.63,3.48c-3.27.64-6.61.24-10.15-.18A53.83,53.83,0,0,0,12,31,37,37,0,0,0,2.84,32.9v-12h43.4ZM2.93,48l.15-.1a18.16,18.16,0,0,1,8.24-3,37.27,37.27,0,0,1,9.16.61l2.14.31c3.81.52,8.24.83,12.27-.75a29.5,29.5,0,0,0,5-2.84c.81-.54,1.58-1,2.38-1.5a23.63,23.63,0,0,1,3.92-1.82v1.84A21.18,21.18,0,0,0,43.45,42c-1,.53-2,1.1-2.89,1.66A25.88,25.88,0,0,1,34.1,46.8c-3.44.9-7.22.28-10.88-.33L22,46.27c-5.55-.9-12-1.42-17.41,1.49-.57.31-1.11.64-1.65,1ZM2.84,94.71V52.35a21.51,21.51,0,0,1,3.08-2.09c4.7-2.51,10.53-2,15.62-1.19l1.21.2c4,.65,8.05,1.33,12.07.27A28.54,28.54,0,0,0,42,46.13c.9-.54,1.83-1.1,2.77-1.6.47-.25,1-.48,1.45-.69V94.63ZM25.46,10.43l-4.6-6.71a.56.56,0,0,1,.46-.88h.11a.52.52,0,0,1,.36.23l4.6,6.71a.52.52,0,0,1,.09.42.6.6,0,0,1-.13.25h-.86Zm-20.4,2.9,19.69,0a3.44,3.44,0,0,0,.55.15,3.3,3.3,0,0,0,1.81-.16l17,0h0a.44.44,0,0,1,.29.12.4.4,0,0,1,.12.3.41.41,0,0,1-.41.41H41.4l-16.82,0-19.52,0A.44.44,0,0,1,4.77,14a.4.4,0,0,1-.12-.3A.41.41,0,0,1,5.06,13.33Zm38.33,87.14-37.32.07L4.21,97.6h41Z"/><path class="cls-1" d="M102.13,42.29l-1.63-1.8a2.33,2.33,0,0,0-1.7-3.93l-12.22,0,2.54-3.7a2.45,2.45,0,0,0-4-2.77L81.77,34.9a2.41,2.41,0,0,0-.41,1.63l-10.64,0h0A2.33,2.33,0,0,0,69,40.44l-1.64,1.79a1,1,0,0,0-.24.92V97.6h0a1,1,0,0,0,0,1l2.63,4.2a1.06,1.06,0,0,0,.86.48l28,0h0a1,1,0,0,0,.86-.47l2.42-3.84a1,1,0,0,0,.52-.86V43A1,1,0,0,0,102.13,42.29Zm-31-1.1,10,0,17.29,0,.65.71L70.44,41.9ZM69.17,44H100.4V97.14l-31.23,0Zm14.22-7.67a.43.43,0,0,1,.06-.31l3.31-4.82a.42.42,0,0,1,.26-.17h.08a.38.38,0,0,1,.23.07.41.41,0,0,1,.1.57l-3.3,4.82,0,0h-.62A.47.47,0,0,1,83.39,36.36ZM70.5,38.64a.29.29,0,0,1,.21-.09h0l12.24,0a2.34,2.34,0,0,0,.82.16,2.45,2.45,0,0,0,.46,0l.39-.12,14.17,0a.3.3,0,0,1,0,.6l-14,0-12.14,0H70.72a.3.3,0,0,1-.3-.3A.29.29,0,0,1,70.5,38.64Zm27.57,62.69-26.85,0-1.3-2.07H99.41Z"/></g></g></svg>