<svg id="Capa_1" data-name="Capa 1" xmlns="http://www.w3.org/2000/svg" viewBox="0 0 800 800"><defs><style>.cls-1,.cls-2{fill:none;stroke:gray;stroke-linecap:round;stroke-linejoin:round;}.cls-1{stroke-width:15px;}.cls-2{stroke-width:10px;}.cls-3{fill:gray;}</style></defs><title>Latas</title><rect class="cls-1" x="147.2" y="158.25" width="244.53" height="405.64" transform="matrix(1, 0, 0, 1, -0.62, 0.47)"/><polygon class="cls-1" points="269.81 563.89 147.55 564.1 167.03 594.92 269.87 594.74 372.7 594.56 392.08 563.68 269.81 563.89"/><polygon class="cls-1" points="372.77 137.81 269.08 137.98 165.38 138.16 146.85 158.46 269.11 158.25 391.37 158.04 372.77 137.81"/><path class="cls-1" d="M372.28,137.81l-206.41.35a9.69,9.69,0,0,1-9.71-9.68h0a9.69,9.69,0,0,1,9.68-9.71l206.41-.36a9.69,9.69,0,0,1,9.71,9.68h0A9.7,9.7,0,0,1,372.28,137.81Z"/><path class="cls-1" d="M391.43,192.78a127.62,127.62,0,0,0-29.17,9.48C340,212.35,319.07,226.34,295.08,231c-30.43,5.91-61.62-4-92.62-3.69-10,.09-33.34,4.64-55.47,12.85l.09,52.5c20.82-13.48,43.21-22.24,68.45-21.58,28.91.76,57.56,12.7,86,7.7,23.55-4.13,43.4-19.24,64.21-31a132.72,132.72,0,0,1,25.72-11.43Z"/><path class="cls-1" d="M391.54,251.34a134.78,134.78,0,0,0-32.45,13.47c-12.82,7.44-24.5,17-38.29,22.46-19.2,7.55-40.65,6.3-61.09,3.53s-41-6.95-61.51-4.91a103.15,103.15,0,0,0-47,16.95q-2,1.37-4.13,2.7l0,23c6.31-5,12.7-9.8,19.76-13.59,26.23-14,57.95-11.83,87.32-7.1,22.29,3.59,45.32,8.41,67.15,2.65,18.5-4.88,34.15-16.86,51.05-25.83a103.08,103.08,0,0,1,19.16-8Z"/><rect class="cls-1" x="439.82" y="372.9" width="221.06" height="290.26" transform="translate(1.57 -1.67) rotate(0.17)"/><path class="cls-2" d="M725.38,239.28a43.65,43.65,0,0,1,10.5,1.19q-5.67-10.64-11.35-21.25-.51-3.37-1.26-6.53c.25-.19.52-.36.78-.52l8.19-4.78a68.45,68.45,0,0,0-13.36-7.17,42.89,42.89,0,0,0-5.77-8.89,71.33,71.33,0,0,1,8.24-10.7,77.92,77.92,0,0,0-20.55,1.48,33.07,33.07,0,0,0-8.24-2.35l2.23-9.22q-6,4.32-11.67,9a51.46,51.46,0,0,0-11.57,2.5l-.93-7.27a149.56,149.56,0,0,0-10.94,12.53,94.94,94.94,0,0,0-8.44,5.27l-6-6.75L634.1,207.14q-2.93,3-5.78,6.21a20.61,20.61,0,0,1-6.48-7.66q-1.25,9.39-2.48,18.77c-3,4.1-6,8.44-8.78,13L598,235.88a98.07,98.07,0,0,1,1.94,21.34q-2.1,4.48-3.92,8.94l-10.35,2.09q1.3,9.19,3.38,18.25c-1.12,4-2.07,8-2.85,12a25.05,25.05,0,0,1-7.87.36q2.63,10.85,5.26,21.68c-.06,1.76-.08,3.5-.06,5.21-2.49,2.12-9.9-1.42-10.2,2.38q5.46,4.69,11,9.24a72.06,72.06,0,0,0,3.22,14c-4.74,4.14-9.85,9.2-8.83,12,1.19,3.28,11.55,3.19,14.24,3.74,1.51.32,3,.67,4.44,1.06a33.22,33.22,0,0,0,9.23,6.84c11.74,5.86,26.11,4.19,40.81-3.4,7.48-3.28,15.14-7,22.49-4.17l-5-7.54c1.79-1.48,3.58-3,5.35-4.68l13.82-1.06a82.33,82.33,0,0,0-4.31-8.61q3.68-4.1,7.21-8.62c3.35-.23,6.71-.32,10.06-.26a87.14,87.14,0,0,0-3.44-8.8c2.74-4,5.38-8.23,7.9-12.62a36.49,36.49,0,0,1,10.1,3.15,46.45,46.45,0,0,0-2.48-17.84q1.92-4.08,3.61-8.18a98,98,0,0,1,9.8,1.14,38.86,38.86,0,0,0-2.92-20.86c.43-1.52.85-3,1.23-4.56a18.87,18.87,0,0,0,5.82.81,34.44,34.44,0,0,0-2.12-20.19C725,245.48,725.23,242.34,725.38,239.28Z"/><path class="cls-3" d="M650.05,347.31c-11.73,7.64-23.19,10-32.32,5.41-10-5-15.43-17.54-15.18-35.29.24-17.19,5.73-37.42,15.47-57,20.69-41.5,53-66,73.49-55.76,10,5,15.43,17.54,15.18,35.29-.24,17.19-5.74,37.42-15.48,57h0C679.73,320,664.68,337.78,650.05,347.31Zm11.62-133.68c-14,9.09-28.71,26.52-39.8,48.76-9.46,19-14.79,38.54-15,55.1-.22,16,4.33,27.16,12.81,31.38,18.05,9,48.43-15.15,67.72-53.83,9.45-19,14.79-38.54,15-55.1.23-16-4.32-27.16-12.8-31.38C681.91,204.73,672,206.9,661.67,213.63Z"/><path class="cls-3" d="M650.17,336.05c-10.11,6.58-19.53,8.21-26.88,4.54-17.16-8.55-17-42.43.24-77.13,8.14-16.33,18.88-30.19,30.24-39,11.73-9.1,22.81-11.81,31.2-7.62,17.16,8.55,17,42.43-.24,77.12h0c-8.15,16.34-18.88,30.19-30.24,39Q652.31,334.65,650.17,336.05Zm9.92-111.69q-2,1.32-4.11,2.94c-10.94,8.49-21.32,21.9-29.23,37.76-16.12,32.35-17,64.79-1.86,72.31,7.09,3.54,16.81,1,27.39-7.24,10.94-8.5,21.32-21.91,29.23-37.77h0c16.12-32.34,17-64.78,1.86-72.31C677.21,217,669.05,218.52,660.09,224.36Z"/><path class="cls-1" d="M663.09,653.51l-226.32-.69a7,7,0,0,0,0,13.94l226.32.68a7,7,0,1,0,0-13.93Z"/><path class="cls-1" d="M664,369.31l-226.32-.69a7,7,0,0,0-.05,13.93l226.32.69a7,7,0,0,0,7-6.95h0A7,7,0,0,0,664,369.31Z"/><rect class="cls-1" x="439.82" y="406.39" width="221.06" height="223.29" transform="translate(1.57 -1.66) rotate(0.17)"/><rect class="cls-1" x="253.5" y="59.5" width="21" height="64" rx="10.5" transform="translate(-5.44 165.44) rotate(-34.46)"/></svg>