<svg id="Capa_1" data-name="Capa 1" xmlns="http://www.w3.org/2000/svg" viewBox="0 0 800 800"><defs><style>.cls-1,.cls-4{fill:none;stroke-miterlimit:10;}.cls-1{stroke:#414ec4;stroke-width:18px;}.cls-2{fill:#414ec4;}.cls-3{fill:#384dc9;}.cls-4{stroke:#384dc9;stroke-width:13px;}</style></defs><title>Papel Carton</title><rect class="cls-1" x="499.98" y="520.46" width="243.67" height="118.52" transform="translate(-139.91 957.23) rotate(-69.36)"/><rect class="cls-1" x="343.41" y="412.68" width="243.67" height="216.11" transform="translate(-186.08 772.52) rotate(-69.36)"/><path class="cls-1" d="M407.08,368.63,609.3,444.81l-7.15-61.62a6,6,0,0,0-3.83-4.91L398.09,302.85Z"/><path class="cls-1" d="M720.17,486.7,773,444.09,668.71,404.8a6.62,6.62,0,0,0-6.26.87L609.3,444.81Z"/><polygon class="cls-2" points="622.75 644.87 624.12 645.38 627.44 636.46 629.92 637.38 628.79 630.71 623.58 635.03 626.06 635.95 622.75 644.87"/><rect class="cls-2" x="626.64" y="640.49" width="1.47" height="16.7" transform="translate(-199.39 1010.87) rotate(-69.61)"/><polygon class="cls-2" points="633.01 638.53 635.49 639.45 632.18 648.37 633.55 648.88 636.87 639.96 639.35 640.89 638.22 634.22 633.01 638.53"/><path class="cls-2" d="M640.81,629.93l-11.17-4.16a8.1,8.1,0,0,0-10.39,4.76L615.1,641.7a8.08,8.08,0,0,0,4.76,10.38L631,656.24a8.09,8.09,0,0,0,10.38-4.76l4.15-11.17A8.08,8.08,0,0,0,640.81,629.93Zm-1.39,20.81a6,6,0,0,1-7.65,3.51L620.6,650.1a6,6,0,0,1-3.51-7.66l4.15-11.17a6,6,0,0,1,7.66-3.51l11.17,4.15a6,6,0,0,1,3.51,7.66Z"/><path class="cls-2" d="M623.07,669.6,620,668.44h0l-.41-.15-.1,3.11,1.11-.15-.6,4.64-.16-3.88-.91.13V668l-2-.75s-4.25,3.93-4.75,7.28c-.43,2.89,2.76,4.15,3.63,4.43l-2.56,6.77a13.32,13.32,0,0,0-3.68-.45.14.14,0,0,0,0,.28l7.19,2.7a.15.15,0,0,0,.15-.24,12.07,12.07,0,0,0-3.11-2.11l2.54-6.76c1,.4,4,1.39,5.56-1C623.67,675.36,623.07,669.6,623.07,669.6Z"/><path class="cls-2" d="M627.22,666.19,616.06,662a8.08,8.08,0,0,0-10.4,4.71l-4.2,11.16a8.08,8.08,0,0,0,4.71,10.4l11.15,4.2a8.08,8.08,0,0,0,10.4-4.71l4.2-11.15A8.08,8.08,0,0,0,627.22,666.19ZM625.74,687a6,6,0,0,1-7.67,3.48l-11.16-4.2a6,6,0,0,1-3.47-7.68l4.2-11.15a6,6,0,0,1,7.67-3.47l11.16,4.2a6,6,0,0,1,3.47,7.67Z"/><rect class="cls-3" x="389.86" y="489.43" width="46.86" height="2.61" transform="translate(199.55 -114.2) rotate(20.64)"/><rect class="cls-3" x="395.18" y="507.97" width="46.86" height="2.61" transform="translate(206.42 -114.88) rotate(20.64)"/><rect class="cls-3" x="387.81" y="493.23" width="29.08" height="2.61" transform="translate(200.19 -110.1) rotate(20.64)"/><rect class="cls-3" x="420.87" y="502.45" width="11.92" height="2.61" transform="translate(205.01 -118.14) rotate(20.64)"/><rect class="cls-3" x="420.87" y="502.45" width="11.92" height="2.61" transform="translate(205.01 -118.14) rotate(20.64)"/><rect class="cls-3" x="382.13" y="508.32" width="29.08" height="2.61" transform="translate(205.14 -107.13) rotate(20.64)"/><rect class="cls-3" x="415.19" y="517.54" width="11.92" height="2.61" transform="translate(209.96 -115.16) rotate(20.64)"/><rect class="cls-3" x="436.77" y="507.23" width="5.45" height="2.61" transform="translate(207.5 -122.29) rotate(20.64)"/><rect class="cls-3" x="380.01" y="512.09" width="11.92" height="2.61" transform="translate(205.78 -103.11) rotate(20.64)"/><rect class="cls-3" x="395.91" y="516.86" width="5.45" height="2.61" transform="translate(208.28 -107.27) rotate(20.64)"/><rect class="cls-3" x="385.92" y="496.68" width="5.45" height="2.61" transform="translate(200.52 -105.04) rotate(20.64)"/><rect class="cls-2" x="350.93" y="573.12" width="1.49" height="11.89" transform="translate(226.73 -86.8) rotate(20.64)"/><rect class="cls-2" x="354.52" y="574.84" width="3.42" height="11.89" transform="translate(227.63 -88.3) rotate(20.64)"/><rect class="cls-2" x="359.62" y="576.36" width="1.3" height="11.89" transform="translate(228.43 -89.63) rotate(20.64)"/><rect class="cls-2" x="362.81" y="577.58" width="1.38" height="11.89" transform="translate(229.06 -90.69) rotate(20.64)"/><rect class="cls-2" x="365.25" y="579.07" width="4.4" height="11.89" transform="matrix(0.94, 0.35, -0.35, 0.94, 229.84, -91.98)"/><rect class="cls-2" x="371.91" y="580.93" width="0.98" height="11.89" transform="translate(230.82 -93.61) rotate(20.64)"/><rect class="cls-2" x="375.62" y="583.25" width="5.86" height="11.89" transform="translate(232.03 -95.63) rotate(20.64)"/><rect class="cls-2" x="382.92" y="585.17" width="1.47" height="11.89" transform="translate(233.03 -97.31) rotate(20.64)"/><rect class="cls-2" x="387.3" y="587.1" width="2.93" height="11.89" transform="translate(234.04 -98.98) rotate(20.64)"/><rect class="cls-2" x="393.09" y="589" width="1.48" height="11.89" transform="translate(552.61 1290.54) rotate(-159.36)"/><rect class="cls-2" x="395.18" y="590.49" width="5.17" height="11.89" transform="translate(235.81 -101.94) rotate(20.64)"/><rect class="cls-2" x="401.38" y="592.01" width="0.84" height="11.89" transform="translate(236.61 -103.26) rotate(20.64)"/><rect class="cls-2" x="404.5" y="593.64" width="3.26" height="11.89" transform="translate(237.46 -104.68) rotate(20.64)"/><rect class="cls-2" x="409.75" y="595.22" width="1.14" height="11.89" transform="translate(238.29 -106.06) rotate(20.64)"/><polyline class="cls-4" points="356.26 337.98 358.74 336.26 360.89 334.77 348.6 317.08 348.58 317.03 348.5 316.92 348.49 316.91"/><polyline class="cls-4" points="235.07 422.09 210.3 439.28 206.26 433.46 191.68 412.45 178.03 392.77 178.01 392.72 63.42 227.63 108.66 196.23 111.64 194.17 111.65 194.16 214.01 123.12 228.6 144.14 233.47 151.17"/><polyline class="cls-4" points="348.44 316.76 348.45 316.78 348.58 317.03 348.6 317.08 358.74 336.26 371.33 360.09 365.54 363.15 309.74 392.63 209.26 445.72 203.38 434.59 191.68 412.45 171.47 374.2 88.91 217.95 112.01 205.74 178.72 170.49 178.74 170.48 228.6 144.14 250.98 132.31 256.62 142.99"/><path class="cls-4" d="M365.54,363.15,356.26,338l-7.76-21.06h0l0-.13v0L281.2,134.32,256.62,143l-23.15,8.18-54.73,19.31h0l-67.07,23.67h0l-3.3,1.16.32.9,3.35,9.51L171.47,374.2,178,392.72l0,0,16.05,45.49,9.3-3.67,2.88-1.13,28.81-11.37,74.67-29.46,58.2-23Z"/><rect class="cls-3" x="125.94" y="178.61" width="154.86" height="7.84" transform="translate(-49.22 78.25) rotate(-19.48)"/><rect class="cls-3" x="136.84" y="200.56" width="154.86" height="7.84" transform="translate(-55.97 83.27) rotate(-19.5)"/><polygon class="cls-3" points="292.51 210.91 294.32 210.27 291.7 202.88 288.81 203.9 273.77 209.23 145.73 254.58 148.35 261.97 278.4 215.91 292.51 210.91"/><polygon class="cls-3" points="301.94 228.76 303.76 233.92 293.44 237.58 157.79 285.62 155.18 278.23 288.8 230.89 300.82 226.64 301.94 228.76"/><rect class="cls-3" x="160.65" y="276.77" width="154.86" height="7.84" transform="translate(-80.05 95.59) rotate(-19.5)"/><rect class="cls-3" x="167.52" y="303.42" width="154.86" height="7.84" transform="translate(-88.56 99.42) rotate(-19.5)"/></svg>