<svg xmlns="http://www.w3.org/2000/svg" viewBox="0 0 161.02 121.28"><defs><style>.cls-1{fill:#fff;}.cls-2{fill:#0071bb;}</style></defs><title>PApel y carton</title><g id="Capa_2" data-name="Capa 2"><g id="Capa_1-2" data-name="Capa 1"><path class="cls-1" d="M120.25,98.82l-42.1,0,.09-80.7,42.1.05ZM83.71,93.23l31,0,.07-69.59-31,0Z"/><path class="cls-1" d="M83.71,98.78l-72.2-.08L11.6,18l72.19.08ZM17.07,93.16l61.09.06.07-69.59-61.09-.06Z"/><path class="cls-1" d="M85.57,23.65l-72.85-.08L0,0,70.64.08a4.59,4.59,0,0,1,4.1,2.5ZM16,18l60.43.07L70.07,5.63,9.31,5.56Z"/><path class="cls-1" d="M119.15,23.72l-43.24-.09L89.79,2.29a4.8,4.8,0,0,1,4-2.19h0l39.23,0Zm-33-5.62,29.85.07,7.36-12.48-29.11,0Z"/><polygon class="cls-1" points="106.59 77.17 107.04 77.17 107.03 74.23 107.85 74.23 106.8 72.43 105.76 74.24 106.58 74.23 106.59 77.17"/><rect class="cls-1" x="105.78" y="77.59" width="5.15" height="0.45" transform="translate(-0.26 0.36) rotate(-0.19)"/><polygon class="cls-1" points="108.86 74.23 109.68 74.22 109.69 77.16 110.14 77.16 110.13 74.22 110.95 74.22 109.9 72.42 108.86 74.23"/><path class="cls-1" d="M110.18,70.9h-3.67a2.5,2.5,0,0,0-2.49,2.5l0,3.67a2.48,2.48,0,0,0,2.5,2.48h3.66a2.49,2.49,0,0,0,2.48-2.5V73.38A2.49,2.49,0,0,0,110.18,70.9ZM112,77.06a1.85,1.85,0,0,1-1.83,1.84h-3.68a1.85,1.85,0,0,1-1.84-1.83V73.41a1.85,1.85,0,0,1,1.83-1.85h3.67A1.85,1.85,0,0,1,112,73.38Z"/><path class="cls-1" d="M109.36,84.27h-1.15l.31.91.31-.16.33,1.4-.47-1.1-.25.14-.45-1.2h-.66a5.22,5.22,0,0,0-.58,2.62c.19.88,1.25.9,1.53.88V90a4.29,4.29,0,0,0-1.11.27,0,0,0,0,0,0,.06,0,0,0,0,0,0,0h2.37s0,0,0,0,0,0,0,0a3.66,3.66,0,0,0-1.13-.27V87.76c.34,0,1.31,0,1.5-.89A5.27,5.27,0,0,0,109.36,84.27Z"/><path class="cls-1" d="M110.19,82.84h-3.68A2.49,2.49,0,0,0,104,85.33V89a2.5,2.5,0,0,0,2.49,2.5h3.67A2.49,2.49,0,0,0,112.67,89V85.34a2.49,2.49,0,0,0-2.49-2.5ZM112,89a1.85,1.85,0,0,1-1.84,1.83H106.5A1.85,1.85,0,0,1,104.67,89V85.32a1.85,1.85,0,0,1,1.84-1.83h3.68A1.85,1.85,0,0,1,112,85.33Z"/><rect class="cls-1" x="29.02" y="48.14" width="0.8" height="14.45" transform="translate(-25.98 84.73) rotate(-89.94)"/><rect class="cls-1" x="32.56" y="52.92" width="0.8" height="14.45" transform="translate(-27.21 93.04) rotate(-89.94)"/><rect class="cls-1" x="26.27" y="53.16" width="0.8" height="8.97" transform="translate(-31 84.26) rotate(-89.94)"/><rect class="cls-1" x="34.34" y="55.82" width="0.8" height="3.68" transform="translate(-22.95 92.34) rotate(-89.94)"/><rect class="cls-1" x="34.34" y="55.82" width="0.8" height="3.68" transform="translate(-22.95 92.34) rotate(-89.94)"/><rect class="cls-1" x="26.27" y="58.14" width="0.8" height="8.97" transform="translate(-35.98 89.22) rotate(-89.94)"/><rect class="cls-1" x="34.33" y="60.79" width="0.8" height="3.68" transform="translate(-27.93 97.3) rotate(-89.94)"/><rect class="cls-1" x="38.51" y="56.83" width="0.8" height="1.68" transform="translate(-18.79 96.52) rotate(-89.94)"/><rect class="cls-1" x="23.59" y="63.03" width="0.8" height="3.68" transform="translate(-40.91 88.79) rotate(-89.94)"/><rect class="cls-1" x="27.76" y="64.03" width="0.8" height="1.68" transform="translate(-36.74 92.97) rotate(-89.94)"/><rect class="cls-1" x="22.69" y="59.29" width="0.8" height="1.68" transform="translate(-37.07 83.16) rotate(-89.94)"/><rect class="cls-1" x="19.37" y="87.32" width="3.67" height="0.46" transform="translate(-66.36 108.66) rotate(-89.94)"/><rect class="cls-1" x="20.88" y="87.02" width="3.67" height="1.05" transform="translate(-64.87 110.17) rotate(-89.94)"/><rect class="cls-1" x="22.21" y="87.35" width="3.67" height="0.4" transform="translate(-63.53 111.5) rotate(-89.94)"/><rect class="cls-1" x="23.27" y="87.34" width="3.67" height="0.43" transform="translate(-62.48 112.56) rotate(-89.94)"/><rect class="cls-1" x="26.76" y="85.84" width="1.36" height="3.68" transform="translate(-0.24 0.08) rotate(-0.16)"/><rect class="cls-1" x="26.21" y="87.4" width="3.67" height="0.3" transform="translate(-59.55 115.5) rotate(-89.94)"/><rect class="cls-1" x="28.23" y="86.65" width="3.67" height="1.81" transform="translate(-57.52 117.53) rotate(-89.94)"/><rect class="cls-1" x="29.91" y="87.33" width="3.67" height="0.45" transform="translate(-55.85 119.21) rotate(-89.94)"/><rect class="cls-1" x="31.6" y="87.11" width="3.67" height="0.9" transform="translate(-54.17 120.9) rotate(-89.94)"/><rect class="cls-1" x="33.24" y="87.35" width="3.67" height="0.46" transform="translate(-52.54 122.56) rotate(-89.94)"/><rect class="cls-1" x="34.56" y="86.77" width="3.67" height="1.59" transform="translate(-51.21 123.87) rotate(-89.94)"/><rect class="cls-1" x="35.89" y="87.44" width="3.67" height="0.26" transform="translate(-49.88 125.2) rotate(-89.94)"/><rect class="cls-1" x="37.32" y="87.07" width="3.67" height="1.01" transform="translate(-48.46 126.63) rotate(-89.94)"/><rect class="cls-1" x="38.7" y="87.39" width="3.67" height="0.35" transform="matrix(0, -1, 1, 0, -47.08, 128.01)"/><polygon class="cls-2" points="157.16 103.09 156.57 101.46 156.35 101.54 154.32 95.93 154.29 95.72 155.87 95.53 156 95.49 157.47 94.55 157.56 94.69 157.72 95.14 160.21 101.99 157.16 103.09"/><polygon class="cls-1" points="139.31 44.2 136.04 45.38 135.79 44.67 135.27 43.23 134.6 41.38 133.53 38.43 115.98 44.77 109.14 47.24 100.8 50.26 94.1 52.68 90.73 53.9 100.79 81.73 104.01 90.64 108.47 102.97 108.48 102.98 110.62 108.9 112.43 113.92 112.96 115.38 118.9 113.23 119.7 115.45 120.08 116.5 119.98 116.54 110.87 119.83 110.1 117.69 107.28 109.88 105.05 103.74 86.29 51.82 100.51 46.68 102.88 45.82 135.62 33.98 138.01 40.59 138.86 42.95 139.2 43.89 139.31 44.2"/><polygon class="cls-2" points="100.79 81.73 90.73 53.9 94.1 52.68 100.79 81.73"/><polygon class="cls-1" points="161.02 109.51 159.1 109.95 141.26 114.06 109.9 121.28 109.1 117.8 107.28 109.88 104.63 98.39 100.79 81.73 94.1 52.68 93.67 50.81 100.71 49.19 109.14 47.24 121.92 44.3 134.6 41.38 138.01 40.59 144.79 39.03 145.57 42.41 145.91 43.87 142.52 44.65 142.19 43.2 139.2 43.89 135.79 44.67 122.45 47.75 104.42 51.9 100.99 52.68 97.84 53.41 102.74 74.7 108.07 97.84 110.62 108.9 111.79 114 112.51 117.11 119.7 115.45 140.69 110.62 155.36 107.24 156.85 106.9 154.36 96.05 154.35 96.03 154.34 95.99 154.34 95.98 154.29 95.73 155.25 95.61 156.11 95.42 157.69 95.07 157.7 95.07 157.7 95.1 157.73 95.25 157.74 95.3 159.36 102.29 161.02 109.51"/><path class="cls-1" d="M104.42,51.9l-3.43.78,1.75,22,5.33,23.14ZM159.1,110l-.68-7.32-.66-7v0l0-.31v-.13h0l-5-53.32-7.16.57-6.71.54-3.59.28L121.92,44.3l-5.94.47-12.85,1-.25,0-2.42.19.05.67.2,2.51.09,1.07.19,2.42,1.75,22L104,90.64l.62,7.75.42,5.35,1.15,14.4,2.9-.34,1-.11,9.88-1.15,21-2.45.26,0,18-2.11Zm-18.41.67-28.26,3.3-.64.08-2.41.28-.9-11.3-.41-5.14L104.42,51.9l-.12-1.5-.09-1.2,18.24-1.45,27.14-2.17,4.66,49.73v0l1.12,11.9.15,1.65Z"/><polygon class="cls-2" points="102.74 74.7 97.84 53.41 100.99 52.68 102.74 74.7"/><polygon class="cls-2" points="134.6 41.38 121.92 44.3 115.98 44.77 133.53 38.43 134.6 41.38"/><path class="cls-2" d="M154.24,95.34v0l-4.66-49.73-27.14,2.17-18,4.15,3.65,45.94,2.55,11.06,1.81,5,28.26-3.3,14.67-3.38Zm-4.48-38.72L108.52,60l-.17-2.09,41.24-3.33ZM107,51.43l41.25-3.32.17,2.09-41.25,3.32Zm.88,14,36.18-2.92,4.25-.35.81-.06.17,2.09-.51,0-4,.32-36.74,3Zm.81,6.76,37.76-3.06,3.4-.27.14.62.12,1.46-2.92.24L108.9,74.31Zm.64,16.39-.17-2.09,41.25-3.33.17,2.09Zm.06-7.36-.17-2.08,41.25-3.33.17,2.08Z"/><rect class="cls-1" x="107.06" y="49.76" width="41.38" height="2.1" transform="translate(-3.66 10.41) rotate(-4.6)"/><rect class="cls-1" x="108.37" y="56.19" width="41.37" height="2.1" transform="matrix(1, -0.08, 0.08, 1, -4.19, 10.57)"/><polygon class="cls-1" points="149.33 64.23 148.82 64.27 144.83 64.59 108.09 67.56 107.92 65.47 144.1 62.55 148.35 62.2 149.16 62.14 149.33 64.23"/><polygon class="cls-1" points="150.15 70.98 147.23 71.22 108.9 74.31 108.73 72.23 146.49 69.17 149.89 68.9 150.03 69.52 150.15 70.98"/><polygon class="cls-1" points="150.68 77.93 109.43 81.26 109.26 79.18 150.51 75.85 150.68 77.93"/><rect class="cls-1" x="109.22" y="84.86" width="41.38" height="2.1" transform="matrix(1, -0.08, 0.08, 1, -6.49, 10.73)"/></g></g></svg>