<svg xmlns="http://www.w3.org/2000/svg" viewBox="0 0 101.55 106.16"><defs><style>.cls-1{fill:#fff;}</style></defs><title>PEAD</title><g id="Capa_2" data-name="Capa 2"><g id="Capa_1-2" data-name="Capa 1"><path class="cls-1" d="M45,19.74c-2.71,0-5.43-.06-8.14,0-1.13,0-1.54-.25-1.49-1.44.09-2.3.11-4.62,0-6.92-.08-1.82-.07-3.37,2.42-3.18a1.77,1.77,0,0,0,.89-.42,4,4,0,0,0,1.82-4.57C39.92,1,38.77.08,36.37.06c-7.4,0-14.8,0-22.2,0-2.86,0-4.38,1.33-4.62,3.79a4.12,4.12,0,0,0,4.06,4.58c1,0,1.23.44,1.21,1.36,0,2.85-.07,5.7,0,8.55,0,1.22-.44,1.46-1.52,1.43-2.58-.07-5.16,0-7.74,0C1.38,19.74,0,21.13,0,25.38V62.86q0,19,0,38.09c0,3.83,1.33,5.17,5.1,5.18H45.25c3.43,0,4.87-1.4,4.87-4.77q0-38.29,0-76.59C50.12,21.23,48.59,19.76,45,19.74ZM14.48,5.41c-.91,0-1.92,0-1.88-1.24S13.59,3,14.53,3c3.52,0,7,0,10.57,0s7,0,10.57,0c.94,0,1.89,0,1.91,1.24s-1,1.2-1.88,1.22c-3.23.07-3.23.08-3.23,3.29s0,6.37,0,9.55c0,1.11-.24,1.54-1.44,1.51-4-.07-8-.05-12,0-.93,0-1.3-.21-1.29-1.22s.32-1.32,1.29-1.26c1.15.07,2.31,0,3.46,0s1.87.13,1.88-1.5-1-1.41-1.94-1.43c-1.48,0-3.45.48-4.31-.27-1-.89-.23-2.92-.34-4.45,0-.27,0-.54,0-.81C17.79,5.49,17.79,5.49,14.48,5.41Zm32.69,95.33c0,1.79-.44,2.52-2.4,2.51q-19.65-.12-39.31,0c-2,0-2.52-.71-2.51-2.62C3,88.06,3,75.51,3,62.94S3,38,3,25.46c0-2,.59-2.66,2.66-2.65q19.55.14,39.11,0c1.9,0,2.49.6,2.45,2.44q-.14,7,0,14.05c0,1.43-.4,1.79-1.8,1.78-10.52-.06-21,0-31.57-.07-1.73,0-2.1.45-2.09,2.12q.1,18.95,0,37.89c0,1.79.56,2.06,2.16,2,10.46-.07,20.92,0,31.37-.06,1.44,0,2,.22,2,1.84C47.06,90.14,47.08,95.44,47.17,100.74Zm0-38.59c0,5.43,0,10.87,0,16.3,0,1.2-.22,1.64-1.54,1.63Q31,80,16.29,80.07c-1.16,0-1.66-.17-1.65-1.52q.09-16.5,0-33c0-1.35.49-1.52,1.65-1.51q14.67.06,29.33,0c1.32,0,1.56.43,1.54,1.63C47.1,51.15,47.14,56.65,47.14,62.15Z"/><path class="cls-1" d="M93.05,22.64a9.4,9.4,0,0,1-.7-3.55c.05-5.77,0-11.54,0-17.31C92.4.59,92.29,0,90.8,0c-9,.08-17.92.06-26.88,0-1.24,0-1.62.29-1.6,1.58.08,5,0,10,0,15.07a16.64,16.64,0,0,1-1.13,6.09c-10,27.29-10.31,54.61-.12,82a1.93,1.93,0,0,0,2.23,1.45c5-.05,10.05,0,15.07,0s10,0,15.07,0a2,2,0,0,0,2.3-1.62,116.75,116.75,0,0,0,5.33-27.27A119,119,0,0,0,93.05,22.64ZM74.6,3c.74,0,1.49,0,2.23,0h1.62c2.69,0,2.6,0,2.68,2.62.05,1.65-.61,2.16-2.13,2.08a37.66,37.66,0,0,0-4.25,0c-2.62.16-1.91-1.72-2.1-3.16C72.42,2.75,73.51,2.91,74.6,3Zm.12,11.7c.07-.93,0-1.52-1.26-1.46-2.24.1-4.48,0-6.72,0-.94,0-1.31-.21-1.29-1.22q.1-4,0-7.95c0-.92.33-1.09,1.18-1.13,3-.12,3-.15,3,2.75,0,3.45,1.53,5,4.94,5q2.34,0,4.68,0c3.27,0,4.72-1.44,4.85-4.68.12-3.07.12-3,3.27-3.09,1.43-.05,2,.2,1.93,1.83-.13,4.47-.09,9,0,13.43,0,1.26-.31,1.61-1.57,1.58-3.46-.09-6.92,0-10.39,0s-6.93-.11-10.38,0c-1.69.08-1.41-.85-1.49-1.87-.09-1.21.22-1.68,1.54-1.61,2.16.13,4.34,0,6.51.07C75,16.44,74.66,15.49,74.72,14.65Zm22.72,69a119.36,119.36,0,0,1-4,18.24c-.31,1.06-.72,1.36-1.78,1.34-4.41,0-8.82,0-13.24,0s-8.82,0-13.24,0c-1,0-1.46-.3-1.84-1.33-9.3-25.67-8.76-51.29.18-76.91.59-1.69,1.37-2.21,3.17-2.18,7.12.12,14.26.09,21.38,0a2.17,2.17,0,0,1,2.47,1.65A116.89,116.89,0,0,1,97.44,83.65Z"/><path class="cls-1" d="M77.69,47.33A15.33,15.33,0,1,0,93.25,62.59,15.52,15.52,0,0,0,77.69,47.33Zm0,27.74a12.41,12.41,0,0,1,.18-24.82,12.41,12.41,0,0,1-.18,24.82Z"/></g></g></svg>