<svg id="Capa_1" data-name="Capa 1" xmlns="http://www.w3.org/2000/svg" viewBox="0 0 800 800"><defs><style>.cls-1{fill:#fbed22;}</style></defs><title>PEAD</title><path class="cls-1" d="M393.79,260.55c-10.66,0-21.35-.2-32,.1-4.43.13-6-1-5.84-5.65.36-9.07.43-18.17,0-27.22-.33-7.16-.29-13.23,9.5-12.48,1.12.08,2.45-.94,3.51-1.68,6.26-4.42,9.11-10.36,7.14-17.94-2.26-8.74-6.76-12.4-16.17-12.46q-43.64-.28-87.27-.05c-11.25,0-17.22,5.22-18.15,14.91-.85,9,5.72,18,15.95,18,4,0,4.83,1.7,4.76,5.32-.19,11.21-.3,22.42,0,33.62.16,4.8-1.73,5.72-6,5.6-10.12-.25-20.28-.09-30.41-.08-16.47,0-21.89,5.5-21.89,22.19q0,73.67,0,147.32,0,74.87,0,149.73c0,15,5.22,20.31,20.07,20.33q78.89,0,157.75,0c13.5,0,19.15-5.49,19.15-18.75q.07-150.54,0-301.06C413.94,266.42,407.94,260.63,393.79,260.55ZM273.85,204.24c-3.57-.08-7.54.19-7.38-4.86.14-4.77,3.9-4.82,7.57-4.8,13.86.08,27.71,0,41.57,0s27.71,0,41.55,0c3.67,0,7.42,0,7.5,4.86.09,5-3.85,4.72-7.4,4.79-12.71.28-12.71.32-12.71,12.92s-.16,25,.1,37.56c.08,4.36-1,6-5.67,5.93-15.71-.27-31.43-.21-47.16,0-3.67.05-5.11-.82-5.06-4.81s1.25-5.19,5.06-4.93c4.52.27,9.07,0,13.59.08,4.19.11,7.36.51,7.4-5.89,0-6.81-3.77-5.53-7.63-5.63-5.81-.11-13.57,1.91-16.93-1.05-4-3.5-.91-11.46-1.34-17.46-.08-1.08,0-2.13,0-3.21C286.89,204.57,286.89,204.54,273.85,204.24Zm128.5,374.7c.11,7-1.72,9.92-9.42,9.87q-77.28-.45-154.53,0c-8,.05-9.88-2.8-9.85-10.3.29-49.38.15-98.75.15-148.13,0-49.1.16-98.21-.15-147.32-.06-8,2.29-10.46,10.45-10.41q76.83.53,153.72,0c7.46,0,9.77,2.36,9.63,9.61q-.56,27.62,0,55.23c.1,5.63-1.57,7-7.09,7-41.36-.24-82.74.05-124.09-.3-6.8-.06-8.25,1.78-8.21,8.35q.43,74.46,0,148.91c-.05,7,2.18,8.09,8.49,8.05,41.1-.28,82.21,0,123.31-.26,5.64,0,7.8.88,7.65,7.24C401.93,537.3,402,558.12,402.35,578.94Zm-.13-151.67c0,21.35-.13,42.7.11,64.06.05,4.72-.86,6.43-6.05,6.4q-57.67-.33-115.32,0c-4.56,0-6.5-.66-6.48-6q.36-64.86,0-129.73c0-5.32,1.93-6,6.48-6q57.68.21,115.32,0c5.19,0,6.1,1.69,6.05,6.4C402.09,384,402.22,405.65,402.22,427.27Z"/><path class="cls-1" d="M522.31,369c-32.87.23-60,27.3-60.25,60.12s27.71,60.5,60.77,60.4c33.32-.09,60.87-27.6,60.63-60.53S555.57,368.79,522.31,369Zm.06,109.05a48.46,48.46,0,0,1-48-48.74c-.05-27.17,21.9-49.16,48.71-48.84,26.35.32,48.34,22.47,48.38,48.73C571.43,455.75,548.72,478.38,522.37,478.06Z"/><path class="cls-1" d="M582.69,272A36.13,36.13,0,0,1,580,258c.16-22.68,0-45.36.15-68,0-4.68-.42-7-6.25-7-35.22.3-70.45.24-105.67.05-4.85,0-6.36,1.13-6.28,6.18.31,19.73-.06,39.48.21,59.23a65.4,65.4,0,0,1-4.47,23.95c-39.39,107.26-40.52,214.67-.45,322.14,1.76,4.72,4.2,5.75,8.76,5.69,19.74-.21,39.49-.08,59.24-.08s39.5-.18,59.23.11c5.06.08,7.39-1.41,9-6.36,11.5-34.87,18-70.66,21-107.18C620.45,412.66,610.32,341,582.69,272Zm-72.51-77.37c2.92.11,5.83,0,8.75,0h6.35c10.61,0,10.26,0,10.56,10.31.19,6.46-2.42,8.48-8.39,8.17a147.51,147.51,0,0,0-16.69,0c-10.29.64-7.5-6.76-8.25-12.43C501.61,193.79,505.87,194.43,510.18,194.59Zm.46,46c.26-3.68-.2-6-5-5.77-8.8.39-17.62,0-26.41.18-3.7.1-5.15-.83-5-4.82.26-10.4.24-20.83,0-31.22-.08-3.64,1.27-4.29,4.61-4.44,11.66-.48,11.66-.62,11.76,10.78.11,13.59,6,19.61,19.41,19.74q9.21.09,18.42,0c12.83-.13,18.52-5.66,19-18.39.48-12.08.5-11.79,12.87-12.16,5.63-.18,7.8.8,7.6,7.19-.52,17.59-.36,35.21-.06,52.81.1,5-1.2,6.33-6.17,6.2-13.6-.37-27.21-.13-40.83-.13s-27.23-.43-40.79.18c-6.64.31-5.55-3.33-5.87-7.34-.36-4.75.85-6.61,6-6.32,8.52.48,17.09-.18,25.6.24C511.72,247.6,510.42,243.88,510.64,240.58Zm89.3,271.18a469.36,469.36,0,0,1-15.66,71.72c-1.23,4.15-2.84,5.33-7,5.27-17.35-.23-34.7-.1-52-.1s-34.7-.11-52.05.08c-4.1,0-5.76-1.18-7.24-5.24-36.56-100.89-34.45-201.58.73-302.3,2.3-6.62,5.38-8.69,12.43-8.56,28,.48,56,.35,84.06.07,5.35-.07,7.69,1.41,9.67,6.52C602.25,354.39,610.71,431.9,599.94,511.76Z"/><path class="cls-1" d="M522.31,369c-32.87.23-60,27.3-60.25,60.12s27.71,60.5,60.77,60.4c33.32-.09,60.87-27.6,60.63-60.53S555.57,368.79,522.31,369Zm.06,109.05a48.46,48.46,0,0,1-48-48.74c-.05-27.17,21.9-49.16,48.71-48.84,26.35.32,48.34,22.47,48.38,48.73C571.43,455.75,548.72,478.38,522.37,478.06Z"/><path class="cls-1" d="M522.31,369c-32.87.23-60,27.3-60.25,60.12s27.71,60.5,60.77,60.4c33.32-.09,60.87-27.6,60.63-60.53S555.57,368.79,522.31,369Zm.06,109.05a48.46,48.46,0,0,1-48-48.74c-.05-27.17,21.9-49.16,48.71-48.84,26.35.32,48.34,22.47,48.38,48.73C571.43,455.75,548.72,478.38,522.37,478.06Z"/></svg>