<svg id="Capa_1" data-name="Capa 1" xmlns="http://www.w3.org/2000/svg" viewBox="0 0 800 800"><defs><style>.cls-1{opacity:0.68;}.cls-2,.cls-3,.cls-4,.cls-5,.cls-6{fill:none;stroke:#f7ec41;}.cls-2,.cls-3,.cls-4{stroke-miterlimit:10;}.cls-2{stroke-width:14px;}.cls-3{stroke-width:18px;}.cls-4{stroke-width:8px;}.cls-5,.cls-6{stroke-linecap:round;stroke-linejoin:round;}.cls-5{stroke-width:12px;}.cls-6{stroke-width:9px;}</style></defs><title>PEBD</title><g class="cls-1"><polyline class="cls-2" points="290.51 196.09 290.51 300.81 290.51 309.96 290.51 411.79 290.51 420.94 290.51 422.18 289.45 422.18"/><polyline class="cls-2" points="150.59 422.18 149.46 422.18 149.46 420.85 149.46 411.88 149.46 309.87 149.46 300.9 149.46 196"/><ellipse class="cls-2" cx="220.02" cy="191.52" rx="72.19" ry="21.16"/><path class="cls-2" d="M149.46,300.9a7,7,0,0,0,0,9c7,9.53,35.94,16.67,70.56,16.67s63.36-7.1,70.5-16.58a7.07,7.07,0,0,0,0-9.15"/><path class="cls-3" d="M149.46,411.88a7,7,0,0,0,0,9,11.25,11.25,0,0,0,1.13,1.33C159.2,431,187,437.52,220,437.52s60.82-6.49,69.43-15.34a13.33,13.33,0,0,0,1.07-1.24,7.07,7.07,0,0,0,0-9.15"/><ellipse class="cls-4" cx="221.41" cy="191.93" rx="29.27" ry="8.58"/><polyline class="cls-2" points="448.88 196.09 448.88 300.81 448.88 309.96 448.88 411.79 448.88 420.94 448.88 422.18 447.81 422.18"/><polyline class="cls-2" points="308.95 422.18 307.82 422.18 307.82 420.85 307.82 411.88 307.82 309.87 307.82 300.9 307.82 196"/><ellipse class="cls-2" cx="378.38" cy="191.52" rx="72.19" ry="21.16"/><path class="cls-2" d="M307.82,300.9a7,7,0,0,0,0,9c7,9.53,35.94,16.67,70.56,16.67s63.36-7.1,70.49-16.58a7,7,0,0,0,0-9.15"/><path class="cls-3" d="M307.82,411.88a7,7,0,0,0,0,9,11.25,11.25,0,0,0,1.13,1.33c8.61,8.85,36.43,15.34,69.43,15.34s60.82-6.49,69.43-15.34a11.85,11.85,0,0,0,1.06-1.24,7,7,0,0,0,0-9.15"/><ellipse class="cls-4" cx="379.77" cy="191.93" rx="29.27" ry="8.58"/></g><path class="cls-5" d="M476.48,162c-1.57,0-16.29-6.69-33.11,5.54-10.22,7.43-9.72,31.73-19.85,39.27-17.35,12.9-18.42,4.36-38,5.66-46,3-45.78,18-91.83,16.22s-45.28-21.63-91.33-23.43S149,237.86,106.2,220.81c-16.23-6.47,23.44-12.8,36.86-24s.69-26.44,14.11-37.64,17.44-2.3,34.71-5c47.44-7.38,46.8-18.06,94.79-16.4S334,159.28,382,160.94s48.64-18,96.63-16.52c.57,0,2.65,19.41,3.2,19.27s8.38-7.67,8.22-7.12C488.72,161,477,162.31,476.48,162Z"/><path class="cls-5" d="M111.49,216.14C113,251.55,93.18,252.4,94.7,287.8s21.35,34.55,22.87,69.95S84.23,403.43,102.14,434c31.24,53.3,61.6,7,128.84,19.8,38,7.25,80.1,31.28,122,27.36,41.42-3.89,71.3-28.86,104.26-54.39,14.15-43.89,21.84-42.47,24.33-88.52s-17.33-47.12-14.84-93.17,22.3-45,24.79-91"/><path class="cls-6" d="M591.77,513.22c-13.4,9.63-25.28,21.07-37.83,31.71-24.57,20.82-48.92,41.91-73.43,62.81-6.49,5.54-11.19,5.42-17.11-.37-10.24-10-20.33-20.18-30.49-30.26-7.88-7.82-4.64-12,.78-16.46,26-21.34,50.78-44,76.67-65.44,14.38-11.9,28.08-24.65,42.67-36.34,6.62-5.29,12-5.2,17.69.54q14.78,14.76,29.57,29.48c6.5,6.45,6.18,10.78-.84,17.07-2.42,2.18-5.41,3.85-7,6.89"/><path class="cls-6" d="M568.61,557.93c-6.09,2.62-10.15,7.81-15,11.94q-40.67,34.44-81.18,69.07c-.54.46-.91,1.33-1.68,1.7"/><path class="cls-6" d="M494.48,487l-97,83.51"/><path class="cls-6" d="M399.2,578.2q30.15,29.37,60.25,58.8c.88.85,1.79,1.6,2.72,2.35"/><path class="cls-6" d="M339.49,560.84c.67,7.26.67,7.26-5.68,10.13.34,1.71.85,3.18,2.93,3.6,2.95.61,4,3,3.91,5.56-.06,3.62.4,5.71,4.93,4.88,1.43-.26,4.7-.35,4.06,3.72-.44,2.85.71,5.57,5,5.44,5.68-.16,4,4.61,4.44,7.54l8,2.25c2.54,8.69,2.56,8.71,8.75,8.27,1.62,1,1.28,2.89,1.37,4.35.21,3.38.9,5.28,5.07,4.34,1.68-.37,4.35.26,4,3.73-.15,1.59-.54,3.6,1.23,5.2,6.2-.08,6.2-.06,7.67,6.23a2.92,2.92,0,0,0,2.63,2.48A41.65,41.65,0,0,1,403,640"/><path class="cls-6" d="M404.3,639.22c.64,9.07.76,9.2,8.69,9.09a5.39,5.39,0,0,1,.45,1.84c-.49,4.81.39,8.08,6.49,6.92a2.43,2.43,0,0,1,3,3,12.46,12.46,0,0,0,.5,5.74c7.07.4,7.07.4,9.39,8.77,2.4-.19,4.58.74,6.84,1.33"/><path class="cls-6" d="M489.18,432.57c8.06,0,8.06,0,13.08-4.76,1.95.77,2.42,2.78,3.1,4.36a4.37,4.37,0,0,0,4.78,2.81c4.7-1.07,5.45,1.08,5.5,5,0,1-1.3,2.66,1.47,3.63,8.2.87,7.19-1,7.64,9"/><path class="cls-6" d="M576.12,558.93l22.45,15.23"/><path class="cls-6" d="M524,461.29l-21.35,18.49"/><path class="cls-6" d="M472.53,650.06l19.34,14.36"/><path class="cls-6" d="M617.39,566.65c2.55.16,5.14-.29,8.5,1.51-.91-6.17-.06-10.73,5.64-11.35-.25-1-.32-2.35-.66-2.42-5.35-1.17-6-5.3-6.15-9.64a2.17,2.17,0,0,0-2.69-2.32c-5.77,1.38-6.65-1.64-6.13-6.26.05-.41-.45-.88-.7-1.32-3.14-1.89-9.09.28-8.34-7.29.34-3.5-5.21-2.51-8.49-4.44-.08-3.41-1.28-7.38-5.57-9.61"/><path class="cls-6" d="M595.46,533.75l-20.4,17.09"/><path class="cls-6" d="M441,675.15c.53,8.9.54,8.91,8.47,9.61.34,1.39,1.24,3,.9,4.16-1.09,3.81,1.87,4.66,3.84,4.26,4.67-.95,6,2,7.57,5.08a2.21,2.21,0,0,0,2.49,1.56c1.19-.36,2.13-2.08,2.9-3.42.91-1.6,1.67-2,3.43-1.83,5.61.64,6.08,0,5.61-6.57l8-.14"/><path class="cls-6" d="M389.47,577.13,370.4,593.48"/><path class="cls-6" d="M374.79,550.17c4.64,7,11.33,12.52,14.88,20.34"/><path class="cls-6" d="M480.66,456.9c1.86,5.88,6.47,10,9.81,14.91,1.48,2.19,2.26,5,4.78,6.46"/><path class="cls-6" d="M461.25,648.56l-18.41,16"/><path class="cls-6" d="M534.06,645.1l-8,.24c.43,6.09.29,6.33-5.63,6.47-2.06.05-2.27,1.29-2.39,2.71s0,2.94,0,4.78l-8.12.29c-1.32,2.17,1.1,5.23-1.65,7.41-2.24.49-4.51-1.93-7-.41,0,2.21-.07,4.51-.1,6.8-8.26.42-8.26.42-8.17,6.92-2.38,2.37-4.88-.64-7.8.27-1.14,2.53-.76,5.3-.12,8.09"/><path class="cls-6" d="M489.92,433.89c-.94,1.75-.58,3.61-.21,5.31-2.76,1.78-5.5.65-8.07.69-1.41,2.2.14,4.76-1.07,7.11-2.47,1.7-5.09-2.09-7.72.53-.41,7.3-.42,7.31-8,6.57-1.53,2.31.64,4.8-.44,7.14-2.39,1.74-4.91-1.57-7.29.17s-.12,4.36-1.32,6.49a10.84,10.84,0,0,1-6.91.3c-2,1-.6,2.13-.76,2.94-.49,2.53-.42,6.29-4.94,4.16-1.32-.63-2,.46-3,.83"/><path class="cls-6" d="M618.13,568c-1.21,1.73.25,3.67-.49,5.64-2.52.9-5.22.31-7.64.35-1.91,2.17.35,4.82-1.27,7-7.3.41-7.3.41-7.91,7l-7.48.51c-1.29,2-.55,4.49-.49,6.7-.67.38-1.17.91-1.55.83-6.29-1.28-6.28-1.3-7.2,5.82"/><path class="cls-6" d="M584.84,603.15c-2.89-2-5.9.22-8.9-.84,0,2.79-.06,5-.09,7.19-2.43,1.79-5.17-1.88-7.25.27-1.63,1.69-.61,4.24-.5,6.47-2.87,1-5.58.44-8.22.49-1.38,2.27,1,5.33-1.53,7.36-6.73-.94-6.73-.94-7.41,6.55-7.82.39-7.82.39-8.22,7.43-2.48,1.89-4.71-1.38-7.71-.13-1.08,2.41-.71,5.18-.06,8"/><path class="cls-6" d="M364.58,539c1.15,2.4-.35,4.87.64,7.83-5.26-.2-11.54-1.59-8.79,6.85l-9.29.39c2.46,2.49-.57,4.9,1.18,7.08"/><path class="cls-6" d="M414.48,496.19c1.14,2.4-.35,4.87.62,7.77-4.54.37-11.54-2.35-8.7,6.54-2.8,1.11-5.36.44-7.79.66-1.58.83-.21,1.93-.37,2.74-.5,2.52-.43,6.29-4.95,4.15-1.31-.62-2,.47-3,.84"/><path class="cls-6" d="M389.38,518.08c1.71,2.18-1.44,4.6,1.27,7.08l-8.85.37c-1.65,1.93,1.12,4.85-1.41,6.73s-4.91-1.66-7.51.53c0,1.85,0,4.06,0,6.27a20.49,20.49,0,0,1-7.43.69"/><path class="cls-6" d="M439.28,475.33c1.71,2.18-1.44,4.59,1.26,7.07l-9,.38c-1.3,2.14,1.11,5.2-1.8,7.52-2.06.13-4.35-2-6.83-.14-.38,6.82-.38,6.82-7.6,6.83"/><path class="cls-6" d="M505.49,572.47c2.41,2.1,6.51,1.14,8.2,4.53"/><path class="cls-6" d="M475.41,560.66c2.41,1.77,5.42,1.86,8.11,2.84"/><path class="cls-6" d="M506.37,533.74l8,3.35"/><path class="cls-6" d="M468.47,557.6l-8.11-2.84"/><path class="cls-6" d="M543.27,463.94c-.37-.66-.81-1.93-1.1-1.9-5.32.64-8.42-.67-8.91-7-.23-2.86-4.74-2.08-7.19-3.23"/><path class="cls-6" d="M552.23,513.23l8,3.36"/><path class="cls-6" d="M529.38,543l-8.11-2.84"/><path class="cls-6" d="M575.32,524.18c-1.73-2.47-3.76-4.52-7-4.75"/><path class="cls-6" d="M544.65,550.08c-1.88-2.34-4.56-3.09-7.31-3.73"/><path class="cls-6" d="M346.78,560.66c-1.89,1.92-4.64-1.71-6.41,1"/></svg>