<svg xmlns="http://www.w3.org/2000/svg" viewBox="0 0 158.21 80.29"><defs><style>.cls-1{opacity:0.68;}.cls-2{fill:#fff;}</style></defs><title>PEBD</title><g id="Capa_2" data-name="Capa 2"><g id="Capa_1-2" data-name="Capa 1"><g class="cls-1"><polygon class="cls-2" points="43.48 63.09 42.09 63.09 42.09 61.88 41.07 61.88 41.07 22.91 43.48 22.91 43.48 63.09"/><polygon class="cls-2" points="18.16 63.09 16.75 63.09 16.75 22.89 19.17 22.89 19.17 61.88 18.16 61.88 18.16 63.09"/><path class="cls-2" d="M30.12,27c-5.07,0-13.65-1-13.65-4.85s8.58-4.85,13.65-4.85,13.66,1,13.66,4.85S35.19,27,30.12,27ZM18.89,22.12c.11.22.84.9,3.12,1.52a32.64,32.64,0,0,0,8.11.92,32.72,32.72,0,0,0,8.12-.92c2.28-.62,3-1.3,3.12-1.52-.11-.22-.84-.9-3.12-1.52a32.72,32.72,0,0,0-8.12-.92A32.64,32.64,0,0,0,22,20.6C19.73,21.22,19,21.9,18.89,22.12Z"/><path class="cls-2" d="M30.12,46.6c-4.91,0-11.3-.88-13.13-3.36a2.52,2.52,0,0,1-.52-1.49A2.48,2.48,0,0,1,17,40.26l1.94,1.43a.09.09,0,0,0,0,.06l0,.06c.71,1,4.76,2.38,11.19,2.38s10.47-1.42,11.19-2.38l0-.06s0,0,0-.07l1.93-1.45a2.54,2.54,0,0,1,.54,1.52,2.51,2.51,0,0,1-.54,1.51C41.39,45.73,35,46.6,30.12,46.6Z"/><path class="cls-2" d="M30.12,66.08c-4.63,0-10.84-.82-13.08-3.12-.13-.14-.24-.27-.34-.4a2.76,2.76,0,0,1,0-3.37L19.21,61a.37.37,0,0,0,0-.14.32.32,0,0,0,0-.16h0l.06.07c.88.9,4.83,2.17,10.85,2.17S40.1,61.7,41,60.8l.06-.07h0a.32.32,0,0,0,0,.16A.46.46,0,0,0,41,61l2.48-1.86a2.77,2.77,0,0,1,0,3.44c-.11.14-.21.25-.32.37C41,65.26,34.76,66.08,30.12,66.08Z"/><path class="cls-2" d="M30.36,24.36c-2.64,0-5.73-.57-5.73-2.17S27.72,20,30.36,20s5.74.57,5.74,2.17S33,24.36,30.36,24.36Zm-4.27-2.17a8.78,8.78,0,0,0,4.27.79,8.8,8.8,0,0,0,4.28-.79,8.8,8.8,0,0,0-4.28-.79A8.78,8.78,0,0,0,26.09,22.19Z"/><polygon class="cls-2" points="70.78 63.09 69.39 63.09 69.39 61.88 68.37 61.88 68.37 22.91 70.78 22.91 70.78 63.09"/><polygon class="cls-2" points="45.45 63.09 44.05 63.09 44.05 22.89 46.47 22.89 46.47 61.88 45.45 61.88 45.45 63.09"/><path class="cls-2" d="M57.42,27c-5.07,0-13.65-1-13.65-4.85s8.58-4.85,13.65-4.85,13.65,1,13.65,4.85S62.49,27,57.42,27ZM46.19,22.12c.1.22.84.9,3.12,1.52a32.64,32.64,0,0,0,8.11.92,32.72,32.72,0,0,0,8.12-.92c2.28-.62,3-1.3,3.12-1.52-.11-.22-.84-.9-3.12-1.52a32.72,32.72,0,0,0-8.12-.92,32.64,32.64,0,0,0-8.11.92C47,21.22,46.29,21.9,46.19,22.12Z"/><path class="cls-2" d="M57.42,46.6c-4.91,0-11.3-.88-13.13-3.36a2.52,2.52,0,0,1-.52-1.49,2.48,2.48,0,0,1,.52-1.49l1.94,1.43,0,.06,0,.06c.71,1,4.76,2.38,11.19,2.38s10.47-1.42,11.19-2.38l0-.06s0,0,0-.07l1.93-1.45a2.53,2.53,0,0,1,.53,1.52,2.5,2.5,0,0,1-.53,1.51C68.69,45.73,62.32,46.6,57.42,46.6Z"/><path class="cls-2" d="M57.42,66.08c-4.63,0-10.84-.82-13.08-3.12a4.92,4.92,0,0,1-.33-.39,2.75,2.75,0,0,1,0-3.38L46.51,61a.37.37,0,0,0,0-.14.32.32,0,0,0,0-.16h0l.06.08c.88.89,4.82,2.16,10.85,2.16s10-1.27,10.86-2.17l.06-.08h0a.32.32,0,0,0,0,.16.46.46,0,0,0,0,.14l2.48-1.86a2.77,2.77,0,0,1,0,3.44,4.06,4.06,0,0,1-.32.37C68.27,65.26,62.06,66.08,57.42,66.08Z"/><path class="cls-2" d="M57.66,24.36c-2.64,0-5.73-.57-5.73-2.17S55,20,57.66,20s5.74.57,5.74,2.17S60.31,24.36,57.66,24.36Zm-4.27-2.17a8.74,8.74,0,0,0,4.27.79,8.8,8.8,0,0,0,4.28-.79,8.8,8.8,0,0,0-4.28-.79A8.74,8.74,0,0,0,53.39,22.19Z"/></g><path class="cls-2" d="M44.51,27.34c-.5,0-1,0-1.59,0a22.07,22.07,0,0,1-10.06-2.57,19.86,19.86,0,0,0-9.08-2.33A16.49,16.49,0,0,0,15,24.65c-3.07,1.53-6.24,3.1-11.74.91-1.07-.42-1.6-1-1.6-1.85,0-1.44,1.62-2.06,4.3-3.07A19.45,19.45,0,0,0,10.6,18.4c.92-.77,1-1.6,1-3s.08-3.34,1.93-4.87a5.38,5.38,0,0,1,5-1.38,8.75,8.75,0,0,0,2.85.06,53.06,53.06,0,0,0,8.19-1.93A29.81,29.81,0,0,1,41.54,5.74,24,24,0,0,1,52,8.28a21.42,21.42,0,0,0,9.5,2.32A21.66,21.66,0,0,0,71.16,9,24.07,24.07,0,0,1,81.74,7.14c1.09,0,1.24,1,1.35,1.69,0,.32.1.74.16,1.16a1.27,1.27,0,0,1,1.51-.12,1.25,1.25,0,0,1,.54,1.42A2.33,2.33,0,0,1,84,12.72c-.79.72-.94.84-1.28.93a1.31,1.31,0,0,1-1-.18l-.17-.13h-.23a2,2,0,0,1-.61-.11,6.13,6.13,0,0,0-5.58,1c-.74.54-1.19,2-1.63,3.48-.56,1.82-1.13,3.71-2.52,4.74-2.67,2-3.92,1.9-5.74,1.61a11.44,11.44,0,0,0-2.89-.17,29.31,29.31,0,0,0-8.71,1.81A24,24,0,0,1,44.51,27.34ZM23.1,19.87h.78a22.26,22.26,0,0,1,10.06,2.58A19.85,19.85,0,0,0,43,24.79a22.37,22.37,0,0,0,9.75-1.45,31.56,31.56,0,0,1,9.36-1.94,13.45,13.45,0,0,1,3.46.2c1.34.21,1.89.3,3.84-1.14.72-.54,1.17-2,1.61-3.47.56-1.84,1.14-3.74,2.56-4.77a8.65,8.65,0,0,1,7.22-1.55l0-.08c0-.29-.08-.64-.13-1h0A21.45,21.45,0,0,0,72,11.31a24.06,24.06,0,0,1-10.61,1.8A23.78,23.78,0,0,1,51,10.57a21.49,21.49,0,0,0-9.51-2.31A27.49,27.49,0,0,0,30.37,9.67a53.68,53.68,0,0,1-8.54,2,11,11,0,0,1-3.61,0,3,3,0,0,0-3,.82c-.93.77-1,1.6-1,3a5.8,5.8,0,0,1-1.93,4.87A19.85,19.85,0,0,1,6.81,23l-1.6.63c3.78,1.2,6,.12,8.63-1.21A19.08,19.08,0,0,1,23.1,19.87Z"/><path class="cls-2" d="M53.4,80.29c-5.18,0-10.26-1.7-15.2-3.35a67.2,67.2,0,0,0-8.61-2.49c-5.4-1-9.57-.17-13.24.59-5.49,1.14-10.23,2.13-14.6-5.34-2.47-4.22-.81-7,.8-9.69,1.17-1.95,2.38-4,2.26-6.87A12.1,12.1,0,0,0,2.6,46.42,14.48,14.48,0,0,1,0,38.49a14.45,14.45,0,0,1,1.89-8.13,12,12,0,0,0,1.62-6.89,1.26,1.26,0,0,1,2.52-.11,14.52,14.52,0,0,1-1.9,8.13,12,12,0,0,0-1.62,6.89A12.1,12.1,0,0,0,4.74,45.1,14.48,14.48,0,0,1,7.32,53c.16,3.66-1.38,6.22-2.61,8.28C3.2,63.83,2.2,65.5,3.92,68.43c3.46,5.91,6.46,5.28,11.92,4.15,3.71-.77,8.33-1.73,14.22-.6A69,69,0,0,1,39,74.55c5.35,1.79,10.87,3.65,16.27,3.14,7.81-.73,13.74-5.34,20-10.22l.87-.68c.95-2.89,1.77-4.86,2.43-6.45C80,57,80.73,55.17,81.07,48.93a19.77,19.77,0,0,0-1.48-9.25A22.31,22.31,0,0,1,78,29.41a22.24,22.24,0,0,1,2.73-10,20,20,0,0,0,2.47-9,1.25,1.25,0,0,1,1.32-1.19,1.27,1.27,0,0,1,1.19,1.33,22.37,22.37,0,0,1-2.73,10,20,20,0,0,0-2.47,9.05A19.84,19.84,0,0,0,82,38.81a22.26,22.26,0,0,1,1.63,10.26c-.36,6.66-1.23,8.76-2.68,12.23-.71,1.7-1.51,3.63-2.48,6.63a1.15,1.15,0,0,1-.42.61l-1.18.92C70.25,74.57,64.05,79.39,55.5,80.2Q54.45,80.29,53.4,80.29Z"/><path class="cls-2" d="M118.82,46.31A4,4,0,0,1,116,44.94c-1.64-1.6-3.28-3.24-4.87-4.83-.82-.81-1.64-1.62-2.45-2.44a3.92,3.92,0,0,1-1.45-2.88A3.85,3.85,0,0,1,109,32.12c3.21-2.64,6.41-5.42,9.51-8.1,2.89-2.51,5.88-5.11,8.88-7.6,1.5-1.24,3-2.54,4.45-3.81,1.88-1.63,3.82-3.33,5.81-4.92s3.93-1.54,5.68.21L150.4,15a4,4,0,0,1,1.43,2.81,4.19,4.19,0,0,1-1.68,2.86,5.93,5.93,0,0,1-.56.46,3.4,3.4,0,0,0-.89.89,1.06,1.06,0,0,1-.5.48C146,24,144,25.86,142,27.62c-.9.78-1.82,1.6-2.75,2.39-3.42,2.9-6.88,5.87-10.23,8.74-2.46,2.11-4.92,4.23-7.39,6.33A4.32,4.32,0,0,1,118.82,46.31ZM140.43,8.68a2.51,2.51,0,0,0-1.46.7c-1.95,1.56-3.88,3.24-5.74,4.86-1.46,1.27-3,2.59-4.49,3.85-3,2.47-6,5.06-8.85,7.56-3.1,2.69-6.31,5.48-9.55,8.14-.39.32-.91.78-.92,1.1,0,.13.06.51.81,1.25l2.45,2.44c1.59,1.59,3.23,3.22,4.86,4.82,1,1,1.52,1,2.65,0l7.39-6.33c3.35-2.87,6.81-5.85,10.23-8.75.92-.77,1.83-1.58,2.72-2.36A81.59,81.59,0,0,1,147,20.7h0a5.29,5.29,0,0,1,1.3-1.29l.45-.38c.79-.7,1-1.1,1-1.3s-.13-.56-.8-1.23l-7.1-7.07A2,2,0,0,0,140.43,8.68Z"/><path class="cls-2" d="M118.54,53.23a1.07,1.07,0,0,1-.6-2h0a1.61,1.61,0,0,1,.29-.32C124.48,45.59,131,40,137.73,34.35c.31-.27.61-.56.93-.87a10.13,10.13,0,0,1,3-2.17,1.08,1.08,0,0,1,.85,2,8.17,8.17,0,0,0-2.3,1.75c-.33.31-.67.64-1,.94-6.67,5.66-13.21,11.22-19.44,16.55l0,0a1.72,1.72,0,0,1-.65.57A1.1,1.1,0,0,1,118.54,53.23Z"/><path class="cls-2" d="M101,36.4a1.06,1.06,0,0,1-.81-.38,1.08,1.08,0,0,1,.11-1.52l23.28-20A1.08,1.08,0,1,1,125,16.09l-23.28,20A1.09,1.09,0,0,1,101,36.4Z"/><path class="cls-2" d="M115.81,52.68c-.24-.19-.48-.39-.73-.63-4-4-8.16-8-12.15-11.87l-2.31-2.24a1.08,1.08,0,1,1,1.51-1.54l2.3,2.24c4,3.88,8.12,7.9,12.16,11.87a7.12,7.12,0,0,0,.58.49Z"/><path class="cls-2" d="M102.29,53.07a1,1,0,0,1-.3,0l-.4-.12a4.74,4.74,0,0,0-.71-.19,1.77,1.77,0,0,1-1.52-1.42c0-.23-.11-.48-.16-.66h-.63a1.07,1.07,0,0,1-.72-.28,2.13,2.13,0,0,1-.68-1.82,1.91,1.91,0,0,1-1.4-.32A2.27,2.27,0,0,1,95,46.45v0c-1.36-.06-1.74-.67-2.22-2.2l-1.34-.38a1.09,1.09,0,0,1-.78-.87,5.78,5.78,0,0,1,0-.7v-.2h0a2.23,2.23,0,0,1-1.73-.7,2.14,2.14,0,0,1-.5-1.47,2,2,0,0,1-1.51-.39,2.33,2.33,0,0,1-.63-1.91.45.45,0,0,0,0-.24h0a2,2,0,0,1-1.54-1.71,1.08,1.08,0,0,1,.61-1.2c.32-.14.65-.29.8-.38a8.52,8.52,0,0,0-.07-1,1.08,1.08,0,0,1,1-1.17,1.07,1.07,0,0,1,1.17,1c.14,1.51.08,2.18-.6,2.74a2.37,2.37,0,0,1,.89,2v.08a1.91,1.91,0,0,1,1.67.46,1.8,1.8,0,0,1,.47,1.67v.06h.11a2.06,2.06,0,0,1,1.58.54A2.1,2.1,0,0,1,92.81,42l1.15.32a1.06,1.06,0,0,1,.74.74c.15.49.29,1,.4,1.24l.59,0a1.07,1.07,0,0,1,.65.16,1.91,1.91,0,0,1,.83,1.75v.18a1.88,1.88,0,0,1,1.58.42,1.84,1.84,0,0,1,.59,1.65v.08c1.29.09,1.69.56,2.07,2.12a7.18,7.18,0,0,1,.81.23l.35.1a1.08,1.08,0,0,1-.29,2.12ZM90.45,39.9Z"/><path class="cls-2" d="M111.08,61.69a1.24,1.24,0,0,1-.27,0l-.42-.12a2.64,2.64,0,0,0-.86-.17,1.09,1.09,0,0,1-1.13-.79,10,10,0,0,0-.39-1.24,7.43,7.43,0,0,0-.88-.07,1.1,1.1,0,0,1-1-.81,4.8,4.8,0,0,1-.19-1.23,2.13,2.13,0,0,1-1.59-.51,2.32,2.32,0,0,1-.67-1.66,2,2,0,0,1-1.48-.59c-.54-.56-.6-1.32-.68-2.58a1.08,1.08,0,0,1,1-1.16,1.09,1.09,0,0,1,1.15,1c0,.41.06.9.11,1.17.23,0,.6,0,.88,0a1.09,1.09,0,0,1,1.06.81l0,.05a1.59,1.59,0,0,1,.12.77,3.75,3.75,0,0,0,0,.53l.3,0a1.74,1.74,0,0,1,1.55.46,1.66,1.66,0,0,1,.43,1.52.88.88,0,0,0,0,.17c1.32.18,1.71.65,2.16,2.09a6.11,6.11,0,0,1,.74.19l.34.1a1.08,1.08,0,0,1-.27,2.12Zm-4.53-4.53Z"/><path class="cls-2" d="M131.5,8.11a1.07,1.07,0,0,1-1.07-1c0-.26,0-.48,0-.67s0-.28,0-.4h0c-.22,0-.48,0-.8-.07a.69.69,0,0,1-.24-.05,1.53,1.53,0,0,1-1.08-2V3.85a2.11,2.11,0,0,1-2.32-1.16c-.75.57-1.32.62-3,.61a1.08,1.08,0,0,1,0-2.16h0a5.72,5.72,0,0,0,1.47-.07,4.23,4.23,0,0,0,.91-.77,1.09,1.09,0,0,1,1.15-.22,2.25,2.25,0,0,1,1.27,1.46.77.77,0,0,0,.07.16v0a2.19,2.19,0,0,1,1.81.3,2.28,2.28,0,0,1,.73,1.82h.1c1.79.12,2,.85,2.06,2.48,0,.19,0,.41,0,.65a1.08,1.08,0,0,1-1,1.13ZM128.24,4Z"/><path class="cls-2" d="M149.22,37.28a1.07,1.07,0,0,1-.61-.19l-5.38-3.65a1.08,1.08,0,0,1,1.21-1.79l5.39,3.66a1.08,1.08,0,0,1-.61,2Z"/><path class="cls-2" d="M126.2,14.63a1.05,1.05,0,0,1-.82-.37,1.08,1.08,0,0,1,.11-1.52l5.12-4.44a1.09,1.09,0,0,1,1.53.11A1.08,1.08,0,0,1,132,9.93l-5.13,4.44A1,1,0,0,1,126.2,14.63Z"/><path class="cls-2" d="M123.62,58.94a1.12,1.12,0,0,1-.65-.21l-4.64-3.45a1.08,1.08,0,0,1,1.29-1.73L124.26,57a1.07,1.07,0,0,1,.22,1.51A1.05,1.05,0,0,1,123.62,58.94Z"/><path class="cls-2" d="M155.78,35.84a1,1,0,0,1-.51-.13,2.2,2.2,0,0,0-1.15-.22l-.45,0a1.08,1.08,0,1,1,.14-2.15h.34a4.44,4.44,0,0,1,.5,0,2.86,2.86,0,0,1,.54-1.44l.11-.14a3.24,3.24,0,0,1-.85-2,2,2,0,0,1-1.53-.46,2.19,2.19,0,0,1-.65-1.68h0a2.2,2.2,0,0,1-2.13-2.24l-.15,0a4.15,4.15,0,0,1-1.34-.45,1.08,1.08,0,0,1-.53-.9,1.42,1.42,0,0,0-.75-1.38,1.08,1.08,0,1,1,1-1.91,3.42,3.42,0,0,1,1.84,2.47l.22.05c.56.12,2,.42,1.89,1.91a1.23,1.23,0,0,0,0,.28,3.2,3.2,0,0,0,.33.07,3.24,3.24,0,0,1,1.16.37,1.09,1.09,0,0,1,.37.37v0a1.32,1.32,0,0,1,.3,1,2.77,2.77,0,0,0,0,.37l.17,0a1.59,1.59,0,0,1,1.35.28,1.63,1.63,0,0,1,.62,1.29c0,1.16.26,1.21.63,1.29a1.29,1.29,0,0,1,.94,1.2.85.85,0,0,0,0,.17,1.1,1.1,0,0,1-.16.88,1.06,1.06,0,0,1-.77.46c-.09,0-.29,0-.35.12s-.21.33-.05,1.37a1.09,1.09,0,0,1-1.07,1.24Zm1-3.33Zm-2.59-6.28h0Z"/><path class="cls-2" d="M143.58,31.68a1.1,1.1,0,0,1-.83-.38,1.08,1.08,0,0,1,.14-1.52l4.89-4.1a1.08,1.08,0,1,1,1.39,1.65l-4.9,4.1A1.07,1.07,0,0,1,143.58,31.68Z"/><path class="cls-2" d="M117,67.44a1.56,1.56,0,0,1-1.51-1l0-.08a3,3,0,0,0-.37-.61h0a.54.54,0,0,0-.24,0,2,2,0,0,1-1.83-.53,1.77,1.77,0,0,1-.41-1.55,2.36,2.36,0,0,1-1.61-.7c-.5-.57-.54-1.27-.62-2.54a1.08,1.08,0,0,1,2.16-.13c0,.47.06,1,.1,1.19.21,0,.6.07,1,.11a1.09,1.09,0,0,1,1,.82,1.7,1.7,0,0,0,.07.21,2.69,2.69,0,0,1,.19.94,2.26,2.26,0,0,1,2.17,1.08,1.73,1.73,0,0,1,1.71-.7l.17,0c0-.12,0-.27,0-.44a1.08,1.08,0,0,1,1-1.16l1.92,0h0a1.08,1.08,0,0,1,0,2.16l-.84,0a1.77,1.77,0,0,1-.51,1.19,2.25,2.25,0,0,1-1.89.42,2.34,2.34,0,0,1-1.25,1.2.9.9,0,0,1-.28,0Z"/><path class="cls-2" d="M94.47,41.92a1.06,1.06,0,0,1-.82-.38A1.08,1.08,0,0,1,93.76,40l4.58-3.93a1.08,1.08,0,0,1,1.41,1.64l-4.58,3.93A1.08,1.08,0,0,1,94.47,41.92Z"/><path class="cls-2" d="M99.09,36.4a1.07,1.07,0,0,1-1-.63A12.52,12.52,0,0,0,96.17,33a19.37,19.37,0,0,1-1.55-2,1.08,1.08,0,1,1,1.8-1.19,18.23,18.23,0,0,0,1.39,1.77,13.71,13.71,0,0,1,2.26,3.26,1.08,1.08,0,0,1-.53,1.43A1.2,1.2,0,0,1,99.09,36.4Z"/><path class="cls-2" d="M124.43,14.27a1.14,1.14,0,0,1-.54-.14,3.49,3.49,0,0,1-1.28-1.49,3.39,3.39,0,0,0-.22-.39c-.23-.34-.49-.67-.77-1a8.74,8.74,0,0,1-1.72-2.85A1.08,1.08,0,1,1,122,7.74a7.1,7.1,0,0,0,1.34,2.15,14.26,14.26,0,0,1,.87,1.14c.14.21.25.41.35.59a1.7,1.7,0,0,0,.44.63,1.08,1.08,0,0,1-.53,2Z"/><path class="cls-2" d="M111.85,59a1.12,1.12,0,0,1-.82-.37,1.09,1.09,0,0,1,.11-1.53l4.42-3.83a1.09,1.09,0,0,1,1.53.11,1.08,1.08,0,0,1-.11,1.52l-4.42,3.83A1.09,1.09,0,0,1,111.85,59Z"/><path class="cls-2" d="M122,64.76a1.08,1.08,0,0,1-1-.84,4,4,0,0,1,.09-2.63,1.07,1.07,0,0,1,.67-.58,2.12,2.12,0,0,1,1.14,0,1.72,1.72,0,0,1,.58-1.21,2.31,2.31,0,0,1,1.37-.47v-.64a1,1,0,0,1,.52-.9,2,2,0,0,1,1.46-.23,1.94,1.94,0,0,1,.25-1.09,1.09,1.09,0,0,1,.89-.52l.91,0a1.15,1.15,0,0,1,0-.19,1.59,1.59,0,0,1,1.62-1.65h.33c0-.13,0-.27,0-.38a1.09,1.09,0,0,1,1.05-1.16l1.91-.06a1.09,1.09,0,0,1,1.11,1,1.07,1.07,0,0,1-1,1.11l-.84,0a1.68,1.68,0,0,1-.41,1,2.09,2.09,0,0,1-1.55.57v.32c0,.13,0,.27,0,.41a1.08,1.08,0,0,1-1,1.08l-1,0a1.89,1.89,0,0,1-.74,1.58.9.9,0,0,1-.44.21,2,2,0,0,1-.85,0V60a1.08,1.08,0,0,1-1,1.06l-.93.06v.51a1.1,1.1,0,0,1-.32.78,1.78,1.78,0,0,1-1.7.49c0,.15,0,.31.09.51a1.07,1.07,0,0,1-.81,1.29A1,1,0,0,1,122,64.76Z"/><path class="cls-2" d="M111.21,13.76a1.09,1.09,0,0,1-.43-2.08l0,0a1.6,1.6,0,0,1,1.18-.29,1.42,1.42,0,0,1,.8-1.55,1.05,1.05,0,0,1,.76-.1,1.87,1.87,0,0,0,.37.07,1.73,1.73,0,0,1,2-1.83,2,2,0,0,1,.31-1.17,1.08,1.08,0,0,1,1-.47l.69.06c0-.19,0-.42,0-.63a1.11,1.11,0,0,1,.32-.7,1.76,1.76,0,0,1,1.64-.51,2.11,2.11,0,0,1,.32-1.14,1.07,1.07,0,0,1,.9-.5,4.64,4.64,0,0,1,.67,0l.11,0A2.28,2.28,0,0,1,122.2,2a1.08,1.08,0,0,1,1.9,1c0,.08,0,.38.05.53a1.07,1.07,0,0,1-.47,1.14,2.62,2.62,0,0,1-1.58.41,2.15,2.15,0,0,1-.24,1,1.19,1.19,0,0,1-.34.4,1.79,1.79,0,0,1-1.46.23,1.92,1.92,0,0,1-.61,1.33,1.81,1.81,0,0,1-1.28.4,1.93,1.93,0,0,1-.16,1,1.18,1.18,0,0,1-.35.42,1.79,1.79,0,0,1-1.53.26,1.83,1.83,0,0,1-.23,1,1,1,0,0,1-.51.46,3.25,3.25,0,0,1-1.25.26,2,2,0,0,1-.93,1.58,1.77,1.77,0,0,1-1.4.06l-.22.09A1,1,0,0,1,111.21,13.76Zm-.39-2.09Zm1.24-.4Z"/><path class="cls-2" d="M146.82,43l-2.14-.28c.14-1.1.23-1.77.84-2.21a1.71,1.71,0,0,1,1.19-.27,2.3,2.3,0,0,1,.34-1.16,1.09,1.09,0,0,1,.84-.5l.92-.06c.24-1.16.74-1.52,1.88-1.67a1.9,1.9,0,0,1,.46-1.39,1.1,1.1,0,0,1,.79-.37l.61,0h.17a1.66,1.66,0,0,1,.31-1,1.08,1.08,0,0,1,1.85,1.1s0,.06,0,.09a2.19,2.19,0,0,1-.08,1.16,1.08,1.08,0,0,1-.65.64,3.45,3.45,0,0,1-1.27.18,1.91,1.91,0,0,1-.36,1.21,1,1,0,0,1-.81.43l-.82.06c0,.17,0,.42-.06.64a1.08,1.08,0,0,1-1,1l-1,.07v.07c0,.15,0,.31,0,.49a1.08,1.08,0,0,1-.55,1l-.06,0a1.34,1.34,0,0,1-1.06.27l-.37-.07C146.87,42.6,146.84,42.79,146.82,43Zm8-7.65Z"/><path class="cls-2" d="M134,54.5a1.09,1.09,0,0,1-1-.84,4,4,0,0,1,.09-2.6,1,1,0,0,1,.56-.55,2,2,0,0,1,1.28-.09,1.85,1.85,0,0,1,.58-1.17,2.23,2.23,0,0,1,1.4-.52,2,2,0,0,1,.67-1.38,1.75,1.75,0,0,1,1.27-.35,1.92,1.92,0,0,1,.26-1.15,1.13,1.13,0,0,1,.91-.52l.61,0h.2a1.89,1.89,0,0,1,.52-1.37,1.58,1.58,0,0,1,1.45-.46v-.59a1.08,1.08,0,0,1,1.44-1,1.87,1.87,0,0,0,.45,0,2.56,2.56,0,0,1,1.94.35A1.08,1.08,0,0,1,145.31,44a1.15,1.15,0,0,0-.44,0h0v.63a1.11,1.11,0,0,1-.44.86,1.74,1.74,0,0,1-1.47.28c0,.13,0,.27.05.41a1.1,1.1,0,0,1-.72,1.08,4,4,0,0,1-1.32.2h0a1.87,1.87,0,0,1-.71,1.51,1.1,1.1,0,0,1-.82.22l-.49-.06c0,.19,0,.43-.06.66a1.09,1.09,0,0,1-1,1l-.89.06c0,.19,0,.46,0,.71a1.13,1.13,0,0,1-.43.8,1.79,1.79,0,0,1-1.56.3c0,.15.06.32.1.47a1.08,1.08,0,0,1-.81,1.3Z"/><path class="cls-2" d="M89.17,34.15a1.07,1.07,0,0,1-.84-.41A1.85,1.85,0,0,1,88,32.1V32A1.09,1.09,0,0,1,87.88,31a1.08,1.08,0,0,1,1-.68l1-.05a1.86,1.86,0,0,1,.37-1,2.22,2.22,0,0,1,1.84-.75,1.55,1.55,0,0,0,0-.29,1.08,1.08,0,0,1,.51-1.44,1.1,1.1,0,0,1,1.44.51,2.79,2.79,0,0,1,.19,1.47,1.53,1.53,0,0,0,0,.54,1.1,1.1,0,0,1-.16,1,1.08,1.08,0,0,1-.9.43l-.45,0-.68,0c0,.07,0,.17.08.28a1.07,1.07,0,0,1-.14.95,1,1,0,0,1-.84.46l-1,0s0,.09,0,.13v0a1.08,1.08,0,0,1-1,1.58Z"/><path class="cls-2" d="M99.24,24a1.09,1.09,0,0,1-.43-2.08l0,0a1.66,1.66,0,0,1,1.16-.29,1.32,1.32,0,0,1,.72-1.5,1,1,0,0,1,.41-.12,4.38,4.38,0,0,1,.72,0h0a1.82,1.82,0,0,1,.36-1.05,2.11,2.11,0,0,1,1.83-.7,1.67,1.67,0,0,0,0-.3,1.08,1.08,0,0,1,.51-1.44A1.09,1.09,0,0,1,106,17a2.69,2.69,0,0,1,.19,1.47,1.41,1.41,0,0,0,0,.52,1.11,1.11,0,0,1-.12.94,1.14,1.14,0,0,1-.82.48,5.27,5.27,0,0,1-.89,0h-.31c0,.05,0,.11,0,.18a1.08,1.08,0,0,1-.63,1.34,3.58,3.58,0,0,1-1.33.23,2,2,0,0,1-.93,1.63,1.75,1.75,0,0,1-1.41.06l-.21.1A1.33,1.33,0,0,1,99.24,24Zm-.39-2.09Zm1.24-.4Z"/><path class="cls-2" d="M93.75,29l-.54,0a1.08,1.08,0,0,1,.14-2.15H94v-.59a1.06,1.06,0,0,1,.39-.83A1.81,1.81,0,0,1,96,25.06a1.67,1.67,0,0,1,.39-1.23,1.08,1.08,0,0,1,.78-.38l.85,0c0-.06,0-.12,0-.16v0a1.08,1.08,0,0,1,1.82-1.14,1.82,1.82,0,0,1,.29,1.62v0a1.1,1.1,0,0,1,.19,1.07,1.08,1.08,0,0,1-1,.71l-1.16.05a1.67,1.67,0,0,1-.7,1.44,1.75,1.75,0,0,1-1.36.31v.45a1.09,1.09,0,0,1-.76,1A5.6,5.6,0,0,1,93.75,29Zm4.42-5.63Z"/><path class="cls-2" d="M105.26,18.76a1.08,1.08,0,0,1,0-2.16H106c0-.17,0-.4,0-.61a1.09,1.09,0,0,1,.43-.8,1.94,1.94,0,0,1,1.54-.37,1.92,1.92,0,0,1,.26-1.1,1.08,1.08,0,0,1,.88-.52l.88,0c0-.06,0-.12,0-.16v0a1.08,1.08,0,0,1,1.82-1.14,1.84,1.84,0,0,1,.28,1.62v0a1.07,1.07,0,0,1,.19,1.07,1.08,1.08,0,0,1-1,.71l-1.18.05a2,2,0,0,1-.77,1.61,1,1,0,0,1-.6.23,2.2,2.2,0,0,1-.71-.08,1.87,1.87,0,0,1-.57,1.21c-.54.48-1.18.48-2.25.48Zm4.89-5.61Z"/><path class="cls-2" d="M128.85,38a1.09,1.09,0,0,1-1-.6,1.51,1.51,0,0,0-.42-.15,3.06,3.06,0,0,1-1.28-.6,1.08,1.08,0,0,1-.11-1.52A1.09,1.09,0,0,1,127.6,35a1.93,1.93,0,0,0,.42.15,2.53,2.53,0,0,1,1.8,1.27,1.09,1.09,0,0,1-.49,1.45A1,1,0,0,1,128.85,38Z"/><path class="cls-2" d="M121.61,34.72a1.19,1.19,0,0,1-.37-.06,5,5,0,0,0-.57-.16,4.35,4.35,0,0,1-1.64-.67,1.08,1.08,0,1,1,1.27-1.74,2.72,2.72,0,0,0,.88.31c.24.06.52.13.8.23a1.08,1.08,0,0,1-.37,2.09Z"/><path class="cls-2" d="M129,28.39a1,1,0,0,1-.42-.09l-1.91-.81a1.08,1.08,0,0,1-.58-1.41,1.09,1.09,0,0,1,1.42-.58l1.91.81a1.09,1.09,0,0,1-.42,2.08Z"/><path class="cls-2" d="M118,33.31a1.13,1.13,0,0,1-.36-.06l-1.94-.69a1.08,1.08,0,1,1,.71-2l2,.68a1.08,1.08,0,0,1-.36,2.1Z"/><path class="cls-2" d="M135.94,10.83a1.05,1.05,0,0,1-.84-.42,2.66,2.66,0,0,1-1.68-.55,2.67,2.67,0,0,1-.9-1.74l-.14,0a3.74,3.74,0,0,1-1-.26,1.08,1.08,0,0,1,.92-2,2.64,2.64,0,0,0,.43.09c.54.08,1.81.28,1.91,1.58a1.26,1.26,0,0,0,.17.65s.14.11.77,0a1.28,1.28,0,0,1,1.28.9.93.93,0,0,1,0,.1,1.08,1.08,0,0,1-.42,1.47A1.13,1.13,0,0,1,135.94,10.83Z"/><path class="cls-2" d="M140,23.46a1,1,0,0,1-.42-.08l-1.91-.81a1.06,1.06,0,0,1-.57-1.41,1.08,1.08,0,0,1,1.41-.58l1.91.81a1.08,1.08,0,0,1-.42,2.07Z"/><path class="cls-2" d="M132.62,29.8a1.13,1.13,0,0,1-.36-.06l-1.95-.68a1.08,1.08,0,1,1,.72-2l1.94.68a1.08,1.08,0,0,1-.35,2.1Z"/><path class="cls-2" d="M143.64,25.29a1.07,1.07,0,0,1-.88-.46c-.38-.55-.62-.67-.88-.69A1.08,1.08,0,1,1,142,22a3.33,3.33,0,0,1,2.49,1.6,1.08,1.08,0,0,1-.27,1.5A1.09,1.09,0,0,1,143.64,25.29Z"/><path class="cls-2" d="M136.28,31.5a1.09,1.09,0,0,1-.84-.4,2,2,0,0,0-1.16-.52,1.08,1.08,0,0,1-.8-1.3,1.06,1.06,0,0,1,1.29-.8,3.92,3.92,0,0,1,2.35,1.27,1.07,1.07,0,0,1-.16,1.51A1.09,1.09,0,0,1,136.28,31.5Z"/><path class="cls-2" d="M87.26,34.28a1.08,1.08,0,0,1-.9-1.67,1.62,1.62,0,0,1,2-.63,1.08,1.08,0,0,1,1.22,1.74,1.65,1.65,0,0,1-1.7.37A1.1,1.1,0,0,1,87.26,34.28Z"/></g></g></svg>