<svg xmlns="http://www.w3.org/2000/svg" viewBox="0 0 89.01 103.35"><defs><style>.cls-1{fill:#fff;}</style></defs><title>PET</title><g id="Capa_2" data-name="Capa 2"><g id="Capa_1-2" data-name="Capa 1"><path class="cls-1" d="M89,87.41c0-2-.36-48.28-1-52.7-.75-5.55-5.78-9.87-8.75-12l-.59-.49c-.3-.24-.58-.47-.81-.69a2.07,2.07,0,0,1-.62-.81,14,14,0,0,1-.52-3.26.53.53,0,0,0,0-1.05h0v-.15c0-.17,0-.34,0-.5,0-.39,0-.76-.05-1.09a3.52,3.52,0,0,0,1-2.41h0A3.56,3.56,0,0,0,74,8.72H69.57A3.56,3.56,0,0,0,66,12.28a3.52,3.52,0,0,0,1,2.52c0,.31,0,.64,0,1l0,.55v.09h0a.53.53,0,0,0-.53.53h0a.53.53,0,0,0,.48.52c-.06.64-.11,1.17-.17,1.6-5.35-3.63-11.33-7.32-13.2-8.46V6.54a3.7,3.7,0,0,0,.61-2h0a3.7,3.7,0,0,0-.61-2V0H34.86V2.88a3.7,3.7,0,0,0-.39,1.64,3.77,3.77,0,0,0,.39,1.64v4.52c-1.53.94-5.46,3.36-9.6,6.07a4.17,4.17,0,0,1-1.3-1.4,10.58,10.58,0,0,1-.4-2.1h.65a.61.61,0,0,0,0-1.22h-.77c0-.45-.07-.91-.1-1.36a4.1,4.1,0,0,0-2.28-7.52H16a4.11,4.11,0,0,0-4.11,4.1h0a4.12,4.12,0,0,0,1.81,3.41c0,.46-.06.92-.1,1.37h-.63a.61.61,0,0,0,0,1.22h.51a9.89,9.89,0,0,1-.4,2.1,4.52,4.52,0,0,1-1.43,1.51l-.56.46A25.72,25.72,0,0,0,3.79,25,22.5,22.5,0,0,0,0,36c-.14,4.16,1.8,15.4,3.5,25.33C4.63,67.77,5.78,74.48,5.7,75.73a18.19,18.19,0,0,1-1.47,4.92,23.85,23.85,0,0,0-1.74,5.81,88.42,88.42,0,0,0,0,11.71,5.66,5.66,0,0,0,1.58,3.76A5.23,5.23,0,0,0,8,103.31a4.75,4.75,0,0,0,4.33-2.39,3.54,3.54,0,0,1,.31-.42h0a1.23,1.23,0,0,1,.37,0l.11.2a4.24,4.24,0,0,0,1.27,1.53,7.27,7.27,0,0,0,4.12,1.08,7.27,7.27,0,0,0,4.12-1.08,4.24,4.24,0,0,0,1.27-1.53,1.8,1.8,0,0,1,.11-.2,1.23,1.23,0,0,1,.37,0h0a3.54,3.54,0,0,1,.31.42A4.75,4.75,0,0,0,29,103.31,5.24,5.24,0,0,0,33,101.93a5,5,0,0,0,1.17-1.81H44.34a3.25,3.25,0,0,0,3,1.53,3.07,3.07,0,0,0,2.49-1.17,2.34,2.34,0,0,0,.42.41,4.28,4.28,0,0,0,2.63.78,4.33,4.33,0,0,0,2.62-.77,2.77,2.77,0,0,0,.42-.42,3.07,3.07,0,0,0,2.49,1.17,3.48,3.48,0,0,0,1.69-.34,5.33,5.33,0,0,0,2,.33,4.35,4.35,0,0,0,3.91-2.17l.17-.27c.07-.12.16-.27.23-.37l.13,0,.09.17a4.14,4.14,0,0,0,1.16,1.54,7.28,7.28,0,0,0,7.76,0A4.08,4.08,0,0,0,76.76,99l.09-.17.12,0c.07.1.17.25.24.37a4.47,4.47,0,0,0,4.08,2.44,4.75,4.75,0,0,0,3.56-1.27,5.73,5.73,0,0,0,1.57-3.7l2.59-9ZM69.82,15.92s0-.05,0-.07h4v.07c0,.16,0,.34,0,.51h-4C69.81,16.25,69.82,16.08,69.82,15.92ZM37.69,8.19a4.23,4.23,0,0,0,.5.05H50.4l.3,0v2.18h-13ZM16.46,11.36h4.1c0,.22,0,.44,0,.67H16.41C16.43,11.8,16.44,11.58,16.46,11.36ZM31.71,98v.08A3,3,0,0,1,31,99.91a2.5,2.5,0,0,1-1.88.58,2.05,2.05,0,0,1-2.06-1.15,3.06,3.06,0,0,0-2.76-1.67,3,3,0,0,0-2.86,1.73A1.52,1.52,0,0,1,21,100a5.88,5.88,0,0,1-4.89,0,1.62,1.62,0,0,1-.46-.59,2.92,2.92,0,0,0-2.85-1.73h-.13A3.06,3.06,0,0,0,10,99.34,2.05,2.05,0,0,1,8,100.49a2.53,2.53,0,0,1-1.87-.57,2.91,2.91,0,0,1-.73-1.8V98A87,87,0,0,1,5.29,86.8a22.28,22.28,0,0,1,1.57-5.11,20.27,20.27,0,0,0,1.66-5.77c.1-1.51-.74-6.47-2.22-15.11C4.7,51.5,2.71,39.92,2.83,36.05c.2-6.21,5.24-13.49,9.83-16.4l.08,0,.08-.07.59-.49a6.51,6.51,0,0,0,2.3-2.73,14.63,14.63,0,0,0,.58-3.06h4.43a14.63,14.63,0,0,0,.58,3.06,4.61,4.61,0,0,0,.36.74H18.83l5.57,2.68C27.05,21,34,29.49,34.18,36.05c.13,3.87-1.86,15.45-3.46,24.76-1.49,8.64-2.32,13.6-2.22,15.11a20.24,20.24,0,0,0,1.65,5.77,21.8,21.8,0,0,1,1.57,5.11A90.1,90.1,0,0,1,31.71,98Zm1.07-17.39a18.14,18.14,0,0,1-1.46-4.92c-.09-1.25,1.07-8,2.18-14.44C35.21,51.36,37.14,40.12,37,36c-.21-6.44-5.52-14.07-9.38-17.38,4.92-3.2,9.33-5.87,9.38-5.9l.68-.41v-.8h13v1.41h1.1c1.55.94,8.11,5,13.77,8.83-.19.17-.4.35-.63.53l-.59.49c-3,2.11-8,6.43-8.75,12-.15,1.1-.29,4.64-.42,10.81H50.61a3.21,3.21,0,0,0-1.09,6.23,2.11,2.11,0,0,0,0,.26c0,.31,0,.59-.08.83a6.39,6.39,0,0,1-.2,1.08,3.61,3.61,0,0,1-.65.61l-.33.27c-1.81,1.29-4.84,3.91-5.3,7.34-.35,2.56-.54,27.79-.56,30.66V93L43.5,97.3H34.58a83.84,83.84,0,0,0,0-10.84A23.87,23.87,0,0,0,32.78,80.65ZM59,98.71s-.12.13-.46.12-.31,0-.52-.35a2.82,2.82,0,0,0-.85-1,2.06,2.06,0,0,0-1.23-.32,2.61,2.61,0,0,0-1,.24,2.19,2.19,0,0,0-1.05,1.12.69.69,0,0,1-.07.13,2.45,2.45,0,0,1-1.71,0s-.05-.09-.07-.14a2.23,2.23,0,0,0-1.06-1.13,2.74,2.74,0,0,0-1-.23h-.08a2.1,2.1,0,0,0-1.14.32,2.82,2.82,0,0,0-.85,1c-.21.34-.21.34-.52.35s-.52,0-.64-.48a1.39,1.39,0,0,1,0-.31v-.15L45.2,92.64c.06-7.89.27-28.12.53-30.12.24-1.76,1.77-3.74,4.19-5.44L50,57l.34-.27a4.47,4.47,0,0,0,1.52-1.85,8,8,0,0,0,.34-1.69s0-.1,0-.15h1.4s0,.1,0,.15A8,8,0,0,0,54,54.87a3.48,3.48,0,0,0,.93,1.34l.06.06v0l.56.45.3.25.11.09c2.42,1.7,3.95,3.69,4.18,5.44.27,2,.48,22.2.54,30.1l-1.44,5-.06.17V98A1.18,1.18,0,0,1,59,98.71Zm24.66-2.46v.2a3.11,3.11,0,0,1-.72,1.89,2,2,0,0,1-1.52.48,1.71,1.71,0,0,1-1.75-1.1A2.89,2.89,0,0,0,77,96a2.8,2.8,0,0,0-2.73,1.77,1.43,1.43,0,0,1-.41.59,4.79,4.79,0,0,1-4.21,0,1.43,1.43,0,0,1-.41-.59,4,4,0,0,0-.46-.76,3,3,0,0,0-4.93.71l-.14.23a1.6,1.6,0,0,1-1.61.87h-.14a5.2,5.2,0,0,0,.08-.52L63.5,93v-.2c0-2.87-.21-28.1-.56-30.66-.44-3.31-3.29-5.87-5.11-7.2l0-2.73.6-.59-.17-.18a3.19,3.19,0,0,0-.3-5.57v-.25c.16-7.48.31-9.85.4-10.53.44-3.31,3.23-7,7.63-10.09l.11-.08.59-.49A7.11,7.11,0,0,0,68.91,22L69,21.7a17,17,0,0,0,.68-4.1.41.41,0,0,0,0-.11h4.21a.45.45,0,0,0,0,.11,17,17,0,0,0,.68,4.1A5.08,5.08,0,0,0,76,23.61c.31.28.62.54,1,.82l.59.49.11.08c4.4,3.11,7.19,6.78,7.63,10.09s.81,35.46.93,52.14Z"/></g></g></svg>