<svg xmlns="http://www.w3.org/2000/svg" viewBox="0 0 43.91 49.15"><defs><style>.cls-1,.cls-2{fill:#fff;}.cls-2{font-size:16px;font-family:Gilroy-ExtraBold, Gilroy;font-weight:800;}</style></defs><title>Simb Aluminio</title><g id="Capa_2" data-name="Capa 2"><g id="Capa_1-2" data-name="Capa 1"><path class="cls-1" d="M21.67,0a8.74,8.74,0,0,1,7.91,4.45C30.4,5.83,31.2,7.21,32,8.61c.34.6.75.73,1.33.34a2.63,2.63,0,0,1,.63-.36c.31-.1.82-.26.94-.13a1.33,1.33,0,0,1,.18,1c-.16.85-.41,1.68-.63,2.52-.32,1.23-.65,2.46-1,3.69-.16.63-.47.89-1.18.7-2.08-.58-4.19-1.1-6.27-1.68-.28-.07-.69-.36-.69-.55a1.09,1.09,0,0,1,.51-.8c1.87-1,1.35-1.18.6-2.52-.6-1.07-1.21-2.12-1.83-3.17-1.39-2.35-3.89-2.35-5.26,0s-2.53,4.42-3.82,6.61c-1.08,1.84-3,2.35-4.54,1.23a2.84,2.84,0,0,1-.86-3.76c1.54-2.77,3.05-5.57,4.81-8.2A7.89,7.89,0,0,1,21.67,0Z"/><path class="cls-1" d="M12.76,40.26a38.45,38.45,0,0,1-5.58,0A8.72,8.72,0,0,1,.87,27.86c.8-1.59,1.71-3.14,2.61-4.68.38-.66.31-1.06-.41-1.42-.49-.24-1.33-.42-1.12-1.14.11-.36.87-.58,1.38-.73,1.78-.54,3.59-1,5.38-1.53.74-.22,1.12,0,1.31.72.54,2,1.12,4.07,1.64,6.11a3.06,3.06,0,0,1-.08,1A3.25,3.25,0,0,1,10.53,26c-1.44-.75-1.43-.77-2.24.65-.61,1.06-1.17,2.15-1.83,3.16a2.94,2.94,0,0,0,2.7,4.63c2.54-.09,5.09,0,7.63,0,1.79,0,2.92.74,3.38,2.13a2.94,2.94,0,0,1-2.61,3.83h-4.8Z"/><path class="cls-1" d="M32.78,40.4c-1,0-1.9,0-2.85,0-.61,0-.91.24-.87.87a4.68,4.68,0,0,1,0,1.06c0,.24-.18.59-.35.65a.93.93,0,0,1-.78-.2c-.84-.77-1.62-1.6-2.42-2.41s-1.52-1.54-2.3-2.3a.75.75,0,0,1,0-1.24c1.59-1.59,3.17-3.19,4.78-4.76a.92.92,0,0,1,.75-.24.89.89,0,0,1,.35.73c-.09,2.22.23,1.8,2,1.82,1.33,0,2.65,0,4,0A2.86,2.86,0,0,0,37.55,30c-1.31-2.28-2.66-4.53-3.94-6.83A2.94,2.94,0,0,1,36,18.57a2.59,2.59,0,0,1,2.54,1.29,93.62,93.62,0,0,1,4.62,8.3,8.75,8.75,0,0,1-7.53,12.2c-.94.06-1.9,0-2.84,0Z"/><text class="cls-2" transform="translate(14.09 29.93)">Al</text></g></g></svg>