<svg id="Capa_1" data-name="Capa 1" xmlns="http://www.w3.org/2000/svg" viewBox="0 0 800 800"><defs><style>.cls-1{fill:#8cc63f;stroke:#8cc63f;stroke-miterlimit:10;stroke-width:5px;}</style></defs><title>Vidrio</title><path class="cls-1" d="M648.74,536.23c.08-15.86-3-30.21-13-42.79a19.62,19.62,0,0,1-3-6.35c-4.68-15.07-9.85-30-13.67-45.3-3.31-13.23-10.48-25.93-6.9-40.44.36-1.47-1.55-3.37-1.61-5.09-.18-6.06-1.45-12.58.33-18.09,2.88-8.93-3.21-20.34-12.81-20.57-10.52-.26-21.06-.24-31.58,0-10.08.21-16.72,11.64-12.56,20.89a13.33,13.33,0,0,1,1.19,6.75c-.77,5.85-3.94,12-2.8,17.34,2.14,10-1.38,18.63-3.82,27.53q-5.9,21.56-12.66,42.86c-4.2-53.07-16.58-104.31-41.27-153.14-13.43-26.55-25.32-54.24-25.23-85.15.1-32.68,0-65.37.1-98,0-4.07,0-8.74,1.9-12.1,10.34-18.62,5.61-54.6-10-68.79-2.09-1.9-6-2.5-9-2.55q-23.82-.36-47.63,0c-3.05,0-8,.7-8.83,2.56-5.67,12.16-13.92,24.51-14.69,37.2-1,16.71,5.45,33.73,6.25,50.72,1.21,25.63-.6,51.39.56,77,1.28,28.35-5.83,54.52-16.79,80.06C365.8,313.59,360,326.34,354,339c-14.28,30.42-24.43,62.21-28.11,95.31-3.66-3.32-6.94-7.09-10.48-10.57-13.7-13.46-20.21-29.7-19.82-49,1-50.43-7.89-100.78.18-151.35,2.57-16.15,0-33.06.53-49.6.34-10.74-4.31-14.16-14.54-13.89-19.37.5-38.76.1-58.14.16-14.56,0-16.1,1.11-15.49,16.14,1,24.23,4.09,48.42,4,72.62-.12,37.94-3.72,75.91-2.85,113.8.69,30.47-9.48,54-32.48,73.11-29.24,24.29-39,56.38-35.9,93.14,6.12,71.59,12.66,143.13,18.61,214.73.8,9.59,5,12.39,13.83,12.31,26.24-.25,52.49-.09,78.74-.09,25.84,0,51.69-.26,77.53.13,6.3.1,10.36-1.08,12.72-4.71q88,.09,175.94,0,1.62,0,3.06,0a31.35,31.35,0,0,0,3.37,4.28c2.25,2.41,6,4.75,9.14,4.78q48.15.53,96.31,0c3.15,0,7-2.17,9.26-4.55,7-7.45,9.2-16.77,9.18-26.9C648.54,664.65,648.39,600.44,648.74,536.23Zm-81-156.16h29c2.59,18.58,5.12,36.79,7.71,55.33-14.51-4.19-29.65-5.81-44.58,1.08C562.46,417.61,565,399.27,567.69,380.07Zm10.51,62.81c10.57-1,20.88.63,29.41,6.66,3.72,2.63,4.9,8.85,7.77,14.49H550.8C553.5,449.6,560.25,444.59,578.2,442.88Zm-58,64.83a55.9,55.9,0,0,0-4.48,21.9q.11,50.13,0,100.27,0,8.8,0,17.62H352.91q5.14-58.69,10.34-117.38a135.9,135.9,0,0,0-.87-33H520.25ZM452.16,75.78h-46.5C414.28,66.83,442.34,66.62,452.16,75.78Zm-54.57,18.3h62.05c.32,4.46.63,8.76,1,14.09H397.59Zm55.58,32.74V252.15H404.1V126.82ZM399.48,269.93h57.41c9.19,20,8.31,23-12.52,27.22a87.06,87.06,0,0,1-30.21.35C393.62,294.3,392.11,290.77,399.48,269.93ZM340.74,443.48c.12-.91.25-1.82.39-2.74q.58-4,1.29-8.1c.08-.5.17-1,.26-1.51.27-1.58.56-3.16.86-4.74.07-.39.15-.77.22-1.16.27-1.43.55-2.86.85-4.29.2-1,.41-2.05.63-3.07.15-.72.3-1.43.46-2.14q.39-1.83.81-3.66c.53-2.39,1.1-4.77,1.68-7.15q.72-3,1.49-5.89l.78-2.93c.25-1,.52-2,.8-2.93q.8-2.93,1.66-5.84c.27-1,.56-1.94.86-2.9s.58-1.93.88-2.9.59-1.92.9-2.88.61-1.92.92-2.87c.26-.8.52-1.61.79-2.41.09-.28.18-.56.28-.84.49-1.48,1-2.95,1.5-4.42.42-1.22.85-2.43,1.29-3.64q1.5-4.2,3.08-8.3c.34-.91.7-1.82,1.06-2.72.71-1.81,1.44-3.6,2.17-5.37q2-4.86,4.12-9.54c.52-1.15,1.05-2.29,1.57-3.43l1.41-3c.47-1,.95-1.95,1.43-2.92s.9-1.82,1.36-2.72,1-2,1.54-3c.34-.65.68-1.29,1-1.93s.63-1.17.95-1.75q2.52-4.62,5.14-8.92c.38-.63.76-1.26,1.15-1.87.77-1.24,1.55-2.45,2.33-3.64,26.55,13.93,53.54,13.1,79.92-.24,29.33,46.42,51.16,121.68,50.63,174.13H358a95.24,95.24,0,0,0-17.85-31.08C340.3,446.63,340.51,445.06,340.74,443.48ZM225.12,177.84h54.39v41.79H225.12Zm51.49,140.93c.77,16.52,1.51,32.43,2.28,49H225.41c.74-16.19,1.47-32.36,2.23-49Zm-47.51-18.5v-62h46.27v62ZM181,455.09c30.85-31.77,30.83-31.79,45.43-69.54h53.1c1.94,31.11,23.46,49.85,43.73,69.62l1,1c6.26,6.24,10.6,11.72,13.75,17.86v0l2.32,5.21a86.75,86.75,0,0,1,4.44,17.88c.4,2.53.76,5.22,1.1,8.1H158.39C159.18,484.84,167.58,468.86,181,455.09Zm-23.86,68.66H346.51c-3.08,36.79-6.14,73.28-9.22,110-.07.8-.14,1.61-.2,2.41q-1.56,18.79-3.16,37.72H170.37C166,624.43,161.6,574.79,157.09,523.75Zm18.78,214.9c-1.38-15.54-2.72-30.64-4.14-46.62h160.7c-1.32,15.62-2.6,30.66-3.95,46.62H175.87Zm169.67-4.85q2.81-34.11,5.79-68.2H515.81q0,31.88,0,63.75c0,1.5,0,3,.15,4.45ZM637.7,720.58a124.22,124.22,0,0,1-.4,14.19c-1.39,12.11-4.95,15.12-17,15.12-26.32,0-52.64-.31-79,.19a14.54,14.54,0,0,1-7.56-1.55c-2.72-1.54-4.35-4.23-5.32-8.08a42.86,42.86,0,0,1-1.53-10.08c-.13-67.64-.36-135.27.08-202.91,0-7.23,3.58-14.63,6.35-21.61,1.19-3,2.54-6,3.94-8.89,2.52-5.28,5.2-10.49,7.37-15.91,1.6-4,3.31-5.62,7.8-5.56q30,.39,60,0c4.23-.05,5.69,1.69,7.19,5.28,3.6,8.62,8.39,16.77,11.65,25.5,2.89,7.73,6,16,6.16,24,.69,33.14.29,66.31.29,99.47Q637.72,675.19,637.7,720.58Z"/></svg>