<svg xmlns="http://www.w3.org/2000/svg" viewBox="0 0 101.35 99.01"><defs><style>.cls-1{fill:#3d0066;}</style></defs><title>PEBD 2 PASO 2</title><g id="Capa_2" data-name="Capa 2"><g id="Capa_1-2" data-name="Capa 1"><path class="cls-1" d="M56.31,78.22a1.6,1.6,0,0,1-1.82-2.47v0a3.49,3.49,0,0,1,.25-.59c6.08-10.54,12.48-21.58,19-32.8.31-.53.59-1.08.88-1.67a15.05,15.05,0,0,1,3-4.49,1.6,1.6,0,0,1,2.17,2.36,12.1,12.1,0,0,0-2.35,3.57c-.3.61-.62,1.23-1,1.84-6.52,11.2-12.91,22.21-19,32.73l0,0a2.69,2.69,0,0,1-.62,1.11A1.67,1.67,0,0,1,56.31,78.22Z"/><path class="cls-1" d="M23.42,63.38a1.6,1.6,0,0,1-1.92-2.3L44.12,21.56a1.6,1.6,0,1,1,2.77,1.59L24.28,62.67A1.61,1.61,0,0,1,23.42,63.38Z"/><path class="cls-1" d="M52.22,78.8a12.67,12.67,0,0,1-1.33-.53C43.28,74.73,35.53,71.16,28,67.7l-4.33-2a1.6,1.6,0,0,1,1.34-2.91l4.33,2c7.5,3.45,15.25,7,22.86,10.57.33.15.68.28,1,.41Z"/><path class="cls-1" d="M33.52,86a2,2,0,0,1-.43.08q-.31,0-.63,0a8.4,8.4,0,0,0-1.08.09A2.63,2.63,0,0,1,28.56,85c-.2-.3-.4-.63-.56-.85l-.85.31h0a1.55,1.55,0,0,1-1.16,0,3.17,3.17,0,0,1-1.84-2.21,2.87,2.87,0,0,1-2.12.24,3.39,3.39,0,0,1-1.93-2.11v0c-1.93.59-2.76-.07-4.19-2l-2.06.14a1.61,1.61,0,0,1-1.52-.84,6.25,6.25,0,0,1-.39-1c0-.08-.06-.18-.1-.27h0A3.23,3.23,0,0,1,9,76.32a3.13,3.13,0,0,1-1.43-1.8,2.94,2.94,0,0,1-2.29.19,3.41,3.41,0,0,1-1.83-2.35A.91.91,0,0,0,3.29,72H3.23a2.93,2.93,0,0,1-3-1.62,1.59,1.59,0,0,1,.26-2c.38-.36.76-.73.93-.93-.09-.27-.33-.8-.57-1.32a1.6,1.6,0,0,1,2.91-1.34c.93,2,1.17,3,.5,4.13A3.47,3.47,0,0,1,6.5,71.34s0,.08,0,.11a2.86,2.86,0,0,1,2.56-.18,2.68,2.68,0,0,1,1.49,2.11s0,.05,0,.08l.15,0a3.1,3.1,0,0,1,2.48,0,3.14,3.14,0,0,1,1.55,1.86l1.77-.12a1.6,1.6,0,0,1,1.41.66c.44.62.89,1.25,1.16,1.54l.81-.33a1.57,1.57,0,0,1,1-.1,2.85,2.85,0,0,1,2,2,1.07,1.07,0,0,0,.07.19l0,0a2.86,2.86,0,0,1,2.43-.2,2.78,2.78,0,0,1,1.64,2l0,.13c1.85-.52,2.64,0,3.94,1.94a11.83,11.83,0,0,1,1.25-.1l.53,0a1.6,1.6,0,0,1,1.71,1.49A1.62,1.62,0,0,1,33.52,86ZM10.47,73.48Z"/><path class="cls-1" d="M50.07,93.72a1.3,1.3,0,0,1-.39.09l-.65,0a4.09,4.09,0,0,0-1.29.19,1.59,1.59,0,0,1-2-.54A14.44,14.44,0,0,0,44.62,92a12.24,12.24,0,0,0-1.28.33,1.6,1.6,0,0,1-1.77-.64A7,7,0,0,1,40.69,90a3.2,3.2,0,0,1-2.48.07,3.42,3.42,0,0,1-1.75-2A3.1,3.1,0,0,1,34.1,88c-1-.52-1.48-1.56-2.23-3.28a1.6,1.6,0,1,1,2.93-1.28c.25.56.54,1.23.74,1.58.32-.08.83-.27,1.24-.42a1.6,1.6,0,0,1,1.88.6l0,.06a2.56,2.56,0,0,1,.55,1,4.72,4.72,0,0,0,.24.75,2.92,2.92,0,0,0,.4-.2,2.6,2.6,0,0,1,2.39-.12,2.47,2.47,0,0,1,1.35,1.92,1.05,1.05,0,0,0,.06.24c1.93-.39,2.72.07,4.05,1.85.4-.06.79-.08,1.13-.1l.53,0a1.6,1.6,0,0,1,.67,3.1ZM41.5,89.63Z"/><path class="cls-1" d="M80.58,20.52a1.77,1.77,0,0,1-.4.08l-.65,0a4,4,0,0,0-1.28.19,1.6,1.6,0,0,1-2-.54,14.13,14.13,0,0,0-1.16-1.54,11.57,11.57,0,0,0-1.27.33,1.59,1.59,0,0,1-1.78-.64,7.78,7.78,0,0,1-.88-1.62,3.16,3.16,0,0,1-2.48.07,3.4,3.4,0,0,1-1.74-2,3.1,3.1,0,0,1-2.36-.09c-1-.52-1.49-1.56-2.24-3.28a1.6,1.6,0,0,1,2.94-1.27c.24.56.53,1.23.73,1.58.32-.09.84-.28,1.24-.43a1.63,1.63,0,0,1,1.88.6l0,.06a2.43,2.43,0,0,1,.56,1,3.29,3.29,0,0,0,.24.74,2.18,2.18,0,0,0,.39-.19,2.59,2.59,0,0,1,2.4-.12,2.44,2.44,0,0,1,1.34,1.91l.06.24c1.93-.39,2.72.07,4,1.85a9.66,9.66,0,0,1,1.13-.09l.53,0a1.6,1.6,0,0,1,.68,3.11ZM72,16.42Z"/><path class="cls-1" d="M52.11,8.75a1.6,1.6,0,0,1-2-.9q-.21-.52-.36-.93c-.08-.19-.15-.38-.22-.54h0c-.32.09-.69.19-1.16.3a2.23,2.23,0,0,1-.36,0,2.3,2.3,0,0,1-2.48-2.21l0-.1a3.13,3.13,0,0,1-3.81-.49c-.77,1.17-1.54,1.52-3.83,2.32a1.6,1.6,0,0,1-1.06-3h0a9.56,9.56,0,0,0,2-.83,6.31,6.31,0,0,0,.9-1.53A1.6,1.6,0,0,1,41.16,0a3.4,3.4,0,0,1,2.5,1.42l.17.19,0,0a3.23,3.23,0,0,1,2.68-.47,3.4,3.4,0,0,1,1.92,2.18l.15,0c2.56-.73,3.21.19,4.1,2.44l.35.9a1.6,1.6,0,0,1-.88,2.08Zm-6.58-4.1Z"/><path class="cls-1" d="M91.29,40.75a1.5,1.5,0,0,1-.94,0L81,38.35a1.6,1.6,0,1,1,.81-3.09l9.33,2.44a1.6,1.6,0,0,1,.13,3Z"/><path class="cls-1" d="M47.92,20.49A1.59,1.59,0,0,1,46,18.2l5-8.74A1.6,1.6,0,1,1,53.74,11l-5,8.74A1.57,1.57,0,0,1,47.92,20.49Z"/><path class="cls-1" d="M66.22,83.68a1.62,1.62,0,0,1-1,0L57,81.18A1.6,1.6,0,1,1,58,78.12l8.19,2.52a1.6,1.6,0,0,1,.06,3Z"/><path class="cls-1" d="M99.74,35.5a1.54,1.54,0,0,1-.77.07,3.26,3.26,0,0,0-1.72.26l-.64.2A1.6,1.6,0,1,1,95.74,33l.48-.15.71-.23a4.18,4.18,0,0,1,0-2.27,1.25,1.25,0,0,1,.09-.25,4.81,4.81,0,0,1-2.21-2.42,3,3,0,0,1-2.35.12,3.29,3.29,0,0,1-1.75-2h0a3.25,3.25,0,0,1-4.08-2.07l-.22,0a6.56,6.56,0,0,1-2.09,0,1.62,1.62,0,0,1-1.2-1,2.05,2.05,0,0,0-1.73-1.54A1.6,1.6,0,0,1,81.85,18a5.13,5.13,0,0,1,3.79,2.55l.33,0c.84-.12,3.06-.43,3.59,1.73a2.05,2.05,0,0,0,.13.4l.5-.07a4.81,4.81,0,0,1,1.8-.06,1.64,1.64,0,0,1,.7.34l0,0a2,2,0,0,1,.9,1.21,3.14,3.14,0,0,0,.15.52l.21-.13a2.44,2.44,0,0,1,2-.28,2.47,2.47,0,0,1,1.52,1.51c.61,1.6,1,1.56,1.51,1.49A1.93,1.93,0,0,1,101,28.41a2.53,2.53,0,0,0,.13.22,1.56,1.56,0,0,1,.21,1.31,1.58,1.58,0,0,1-.85,1c-.11.05-.38.19-.42.34s-.13.57.6,1.94a1.62,1.62,0,0,1-.11,1.68A1.59,1.59,0,0,1,99.74,35.5Zm-.31-5.13h0Zm-6.72-7.49h0Z"/><path class="cls-1" d="M80.64,35.72a1.58,1.58,0,0,1-1.35-.13,1.6,1.6,0,0,1-.56-2.19l4.81-8.15a1.6,1.6,0,0,1,2.76,1.63L81.48,35A1.53,1.53,0,0,1,80.64,35.72Z"/><path class="cls-1" d="M61.11,98.85a2.35,2.35,0,0,1-2.59-.58l-.08-.08a4.13,4.13,0,0,0-.82-.68h0a.81.81,0,0,0-.33.15,2.89,2.89,0,0,1-2.81.16,2.61,2.61,0,0,1-1.35-2,3.5,3.5,0,0,1-2.59-.18c-1-.55-1.38-1.51-2.12-3.25a1.6,1.6,0,1,1,2.95-1.24c.27.63.55,1.29.73,1.61.31,0,.87-.19,1.38-.32a1.59,1.59,0,0,1,1.74.68l.2.26a3.69,3.69,0,0,1,.74,1.22,3.33,3.33,0,0,1,3.57.43,2.52,2.52,0,0,1,2-1.82l.25-.06-.26-.61a1.62,1.62,0,0,1,0-1.26,1.65,1.65,0,0,1,.92-.88l2.66-1h0a1.6,1.6,0,0,1,1.1,3l-1.16.44a2.63,2.63,0,0,1-.12,1.91,3.32,3.32,0,0,1-2.44,1.52,3.47,3.47,0,0,1-1.15,2.3,1.72,1.72,0,0,1-.38.2Z"/><path class="cls-1" d="M17.07,74.31A1.6,1.6,0,0,1,15.15,72l4.46-7.74a1.6,1.6,0,1,1,2.77,1.59L17.93,73.6A1.61,1.61,0,0,1,17.07,74.31Z"/><path class="cls-1" d="M20.81,64.32a1.61,1.61,0,0,1-1.69-.4A18.14,18.14,0,0,0,15.05,61a30,30,0,0,1-3.14-2,1.6,1.6,0,0,1-.32-2.24,1.62,1.62,0,0,1,2.25-.31,28.39,28.39,0,0,0,2.82,1.79,20.52,20.52,0,0,1,4.77,3.43,1.6,1.6,0,0,1-.62,2.62Z"/><path class="cls-1" d="M45.27,20.86a1.63,1.63,0,0,1-.82.07,5.09,5.09,0,0,1-2.52-1.44,6.36,6.36,0,0,0-.52-.45c-.48-.35-1-.68-1.57-1A13.18,13.18,0,0,1,36,14.88,1.6,1.6,0,1,1,38.58,13a10.36,10.36,0,0,0,3,2.33c.59.37,1.19.74,1.78,1.18a8.94,8.94,0,0,1,.78.65,2.44,2.44,0,0,0,.93.66,1.6,1.6,0,0,1,.25,3.08Z"/><path class="cls-1" d="M49.8,89.54a1.6,1.6,0,0,1-1.93-2.3l4.28-7.54a1.6,1.6,0,1,1,2.78,1.58l-4.28,7.54A1.58,1.58,0,0,1,49.8,89.54Z"/><path class="cls-1" d="M66.81,92.62A1.6,1.6,0,0,1,64.93,92a5.9,5.9,0,0,1-1.16-3.72,1.57,1.57,0,0,1,.63-1.14A3.21,3.21,0,0,1,66,86.5a2.55,2.55,0,0,1,.22-2,3.43,3.43,0,0,1,1.67-1.33l-.3-.89a1.62,1.62,0,0,1,.28-1.53,2.92,2.92,0,0,1,1.93-1,2.8,2.8,0,0,1-.18-1.65,1.6,1.6,0,0,1,1-1.16l1.25-.49c0-.09,0-.18-.08-.28a2.37,2.37,0,0,1,1.46-3.1l.45-.17c-.08-.18-.16-.38-.23-.53a1.6,1.6,0,0,1,.89-2.13l2.65-1a1.6,1.6,0,1,1,1.15,3L77,72.63a2.38,2.38,0,0,1-.08,1.6A3,3,0,0,1,75,75.79c.05.14.11.29.16.45l.22.58a1.61,1.61,0,0,1-.93,2l-1.34.53a2.82,2.82,0,0,1-.25,2.57,1.55,1.55,0,0,1-.51.51,2.88,2.88,0,0,1-1.2.4l.24.72a1.6,1.6,0,0,1-.91,2c-.47.19-1,.39-1.28.55.07.21.17.47.26.71a1.66,1.66,0,0,1-.06,1.24,2.65,2.65,0,0,1-2.14,1.53,6,6,0,0,0,.38.66,1.61,1.61,0,0,1-.49,2.21A1.66,1.66,0,0,1,66.81,92.62Z"/><path class="cls-1" d="M26.54,26.68A1.59,1.59,0,0,1,24.93,24l0-.06a2.52,2.52,0,0,1,1.5-1,2.15,2.15,0,0,1,.36-2.57,1.59,1.59,0,0,1,1-.51,2.89,2.89,0,0,0,.54-.09,2.58,2.58,0,0,1,1.88-3.54,2.79,2.79,0,0,1-.14-1.78,1.61,1.61,0,0,1,1.17-1.17c.34-.08.71-.17,1-.26-.07-.26-.16-.59-.25-.89A1.61,1.61,0,0,1,32.13,11a2.63,2.63,0,0,1,2-1.52,3.14,3.14,0,0,1-.11-1.76,1.58,1.58,0,0,1,1-1.13,6.15,6.15,0,0,1,1-.27l.16,0a3.52,3.52,0,0,1-.08-1.43,1.6,1.6,0,1,1,3.16.49,2,2,0,0,0,.34.72,1.6,1.6,0,0,1-.09,1.82,4,4,0,0,1-2,1.35,3.43,3.43,0,0,1,.19,1.59,1.69,1.69,0,0,1-.29.72,2.6,2.6,0,0,1-1.93,1,2.84,2.84,0,0,1-.19,2.16A2.69,2.69,0,0,1,33.7,16a2.89,2.89,0,0,1,.26,1.5,1.58,1.58,0,0,1-.27.76,2.65,2.65,0,0,1-2,1.13,2.61,2.61,0,0,1,.17,1.49,1.58,1.58,0,0,1-.49.9,4.81,4.81,0,0,1-1.62,1,2.94,2.94,0,0,1-.51,2.66,2.54,2.54,0,0,1-1.94.78,2.72,2.72,0,0,1-.24.24A1.63,1.63,0,0,1,26.54,26.68ZM25,24h0Zm1.54-1.16Z"/><path class="cls-1" d="M90.75,49.9l-3.13.68c-.34-1.62-.55-2.59.09-3.5a2.47,2.47,0,0,1,1.52-1,3.42,3.42,0,0,1-.09-1.79,1.6,1.6,0,0,1,.93-1.11l1.25-.54c-.23-1.73.28-2.48,1.8-3.25a2.83,2.83,0,0,1,0-2.18,1.62,1.62,0,0,1,.92-.91c.3-.11.58-.19.86-.27L95.1,36A2.57,2.57,0,0,1,95,34.43a1.58,1.58,0,0,1,2-1.12A1.6,1.6,0,0,1,98.17,35l.06.13a3.36,3.36,0,0,1,.46,1.66A1.63,1.63,0,0,1,98.1,38a5.28,5.28,0,0,1-1.69.88,2.82,2.82,0,0,1,.09,1.87,1.58,1.58,0,0,1-.91,1c-.41.17-.84.35-1.11.49,0,.25.14.6.22.93a1.59,1.59,0,0,1-.91,1.86l-1.3.56.05.1c.09.2.19.42.29.66A1.62,1.62,0,0,1,92.54,48l-.07.09a2,2,0,0,1-1.33.9l-.56.08C90.63,49.35,90.69,49.63,90.75,49.9Zm7.37-14.63Z"/><path class="cls-1" d="M78.47,72.36a1.58,1.58,0,0,1-1.88-.65A5.9,5.9,0,0,1,75.42,68,1.58,1.58,0,0,1,75.94,67a3.05,3.05,0,0,1,1.74-.77,2.82,2.82,0,0,1,.23-1.92,3.45,3.45,0,0,1,1.71-1.41,2.88,2.88,0,0,1,.25-2.26,2.55,2.55,0,0,1,1.6-1.11,2.84,2.84,0,0,1-.2-1.74,1.59,1.59,0,0,1,1-1.17c.3-.11.59-.2.86-.28l.29-.09a2.85,2.85,0,0,1,0-2.16,2.38,2.38,0,0,1,1.8-1.38L85,51.89a1.63,1.63,0,0,1,.22-1.45,1.59,1.59,0,0,1,1.3-.67,2.31,2.31,0,0,0,.62-.25A3.76,3.76,0,0,1,90,49.05a1.6,1.6,0,1,1-.84,3.09,1.83,1.83,0,0,0-.61.24h0l.31.89a1.58,1.58,0,0,1-.19,1.4,2.56,2.56,0,0,1-1.91,1.12,5.85,5.85,0,0,1,.26.56,1.59,1.59,0,0,1-.47,1.85,5.79,5.79,0,0,1-1.74.95h0a2.75,2.75,0,0,1-.25,2.45,1.61,1.61,0,0,1-1,.72l-.71.15c.06.28.15.62.24,1a1.62,1.62,0,0,1-.94,1.88c-.46.18-.93.38-1.23.52.06.27.18.66.28,1a1.59,1.59,0,0,1-.2,1.32,2.6,2.6,0,0,1-2,1.19c.11.21.24.42.37.62a1.61,1.61,0,0,1-.49,2.21A1.66,1.66,0,0,1,78.47,72.36Z"/><path class="cls-1" d="M5.83,66.07a1.56,1.56,0,0,1-1.37-.15,2.78,2.78,0,0,1-1.25-2.15v-.1a1.6,1.6,0,0,1-.74-1.4,1.62,1.62,0,0,1,1-1.43l1.44-.57a2.75,2.75,0,0,1,0-1.58,3.29,3.29,0,0,1,2.2-1.95A1.56,1.56,0,0,0,7,56.33a1.6,1.6,0,0,1,2.27-2.26,3.92,3.92,0,0,1,1,2,2,2,0,0,0,.29.75,1.6,1.6,0,0,1-.79,2.51l-.63.19c-.27.08-.67.19-1,.3.06.09.14.21.25.35a1.63,1.63,0,0,1,.27,1.4,1.6,1.6,0,0,1-1,1.06l-1.37.55c0,.07,0,.14,0,.19v.07a1.59,1.59,0,0,1,.27,2A1.64,1.64,0,0,1,5.83,66.07Z"/><path class="cls-1" d="M14.89,46.94a1.6,1.6,0,0,1-1.62-2.69l0,0a2.42,2.42,0,0,1,1.48-1,2,2,0,0,1,.26-2.46,1.85,1.85,0,0,1,.51-.37,9.72,9.72,0,0,1,1-.37h0a2.73,2.73,0,0,1,0-1.65,3.14,3.14,0,0,1,2.21-1.88,2.5,2.5,0,0,0-.14-.42,1.6,1.6,0,1,1,2.27-2.26,4,4,0,0,1,1,2,2,2,0,0,0,.27.72,1.61,1.61,0,0,1-.61,2.45,11.46,11.46,0,0,1-1.24.43l-.45.13a2.68,2.68,0,0,0,.17.23,1.61,1.61,0,0,1-.22,2.18,5.41,5.41,0,0,1-1.75,1,3,3,0,0,1-.5,2.73,2.52,2.52,0,0,1-1.93.78,1.93,1.93,0,0,1-.25.24A1.49,1.49,0,0,1,14.89,46.94Zm-1.57-2.73h0ZM14.85,43h0Z"/><path class="cls-1" d="M9.71,56.67,9,56.91a1.6,1.6,0,1,1-.87-3.08,7.52,7.52,0,0,0,.88-.3l-.29-.83a1.6,1.6,0,0,1,.12-1.35A2.71,2.71,0,0,1,10.87,50a2.49,2.49,0,0,1-.06-1.92,1.56,1.56,0,0,1,.9-.9l1.17-.48,0-.23v-.06a1.6,1.6,0,0,1,2-2.5A2.75,2.75,0,0,1,16,46v.07A1.6,1.6,0,0,1,15.82,49l-1.6.64A2.49,2.49,0,0,1,14,52a2.59,2.59,0,0,1-1.74,1.11l.22.62a1.61,1.61,0,0,1-.55,1.83A8.23,8.23,0,0,1,9.71,56.67ZM13.1,46.61Z"/><path class="cls-1" d="M20.7,36.62a1.6,1.6,0,0,1-1.07-3l1-.36c-.07-.25-.16-.57-.25-.87A1.59,1.59,0,0,1,20.58,31a2.85,2.85,0,0,1,2-1.27,2.87,2.87,0,0,1-.18-1.67,1.58,1.58,0,0,1,1-1.16l1.21-.48q0-.14,0-.24v-.06a1.6,1.6,0,0,1,2-2.49,2.76,2.76,0,0,1,1.2,2.13v.06a1.61,1.61,0,0,1-.21,2.87l-1.63.65A2.94,2.94,0,0,1,25.57,32a1.65,1.65,0,0,1-.73.63,3.27,3.27,0,0,1-1,.23,2.71,2.71,0,0,1-.21,2c-.5.94-1.4,1.26-2.89,1.79Zm4.06-10.26Z"/><path class="cls-1" d="M59.66,10.35a1.53,1.53,0,0,1-1.39-.16,3.87,3.87,0,0,1-2.61.06,4,4,0,0,1-2.13-2l-.21,0a5.13,5.13,0,0,1-1.55.13,1.6,1.6,0,1,1,.32-3.18,3.86,3.86,0,0,0,.64-.09c.8-.16,2.67-.51,3.46,1.26.27.61.49.8.55.82s.25.08,1.09-.33a1.9,1.9,0,0,1,2.24.61l.12.13a1.61,1.61,0,0,1,.13,2.26A1.45,1.45,0,0,1,59.66,10.35Z"/><path class="cls-1" d="M62.68,12.47a1.6,1.6,0,0,1-1.39-.16,3.87,3.87,0,0,1-2.61.06,4,4,0,0,1-2.12-2l-.21,0a5.16,5.16,0,0,1-1.55.13,1.6,1.6,0,0,1,.32-3.19,3.63,3.63,0,0,0,.63-.09c.8-.15,2.68-.5,3.47,1.27.27.61.49.8.55.82S60,9.44,60.86,9a1.89,1.89,0,0,1,2.24.61l.12.12A1.62,1.62,0,0,1,63.35,12,1.66,1.66,0,0,1,62.68,12.47Z"/><path class="cls-1" d="M3.23,67.2a1.56,1.56,0,0,1-.91,0,1.6,1.6,0,0,1-1.18-1.93,2.41,2.41,0,0,1,2.47-1.86,1.6,1.6,0,0,1,2.57,1.83A2.44,2.44,0,0,1,4,66.63,1.59,1.59,0,0,1,3.23,67.2Z"/></g></g></svg>