<svg xmlns="http://www.w3.org/2000/svg" viewBox="0 0 107.94 84.91"><defs><style>.cls-1,.cls-2{fill:none;stroke:#3d0066;stroke-width:5px;}.cls-1{stroke-miterlimit:10;}.cls-2{stroke-linecap:round;stroke-linejoin:round;}</style></defs><title>PEBD 1 Paso 1</title><g id="Capa_2" data-name="Capa 2"><g id="Capa_1-2" data-name="Capa 1"><path class="cls-1" d="M7.39,22.24s6-25,27-17,12-6,29-2,34-6,41,11-24,13-12,29,22,26-5,24-8,24-39,12,0-23-23-37S-2.61,39.24,7.39,22.24Z"/><path class="cls-2" d="M40.89,20.74s13,2,10,6-10,10-10,10"/><path class="cls-2" d="M76.89,15.74s-13,8-9,11,3,19,8,19"/><path class="cls-2" d="M59.89,58.74c0-1-2-15-3-15a12.26,12.26,0,0,0-9,6"/></g></g></svg>