<svg xmlns="http://www.w3.org/2000/svg" viewBox="0 0 122.76 106.88"><defs><style>.cls-1{opacity:0.68;}.cls-2{fill:#3d0066;}</style></defs><title>PEBD 1</title><g id="Capa_2" data-name="Capa 2"><g id="Capa_1-2" data-name="Capa 1"><g class="cls-1"><polygon class="cls-2" points="62.31 82.22 60.32 82.22 60.32 80.5 58.85 80.5 58.85 24.65 62.31 24.65 62.31 82.22"/><polygon class="cls-2" points="26.02 82.22 24.01 82.22 24.01 24.62 27.47 24.62 27.47 80.5 26.02 80.5 26.02 82.22"/><path class="cls-2" d="M43.17,30.47c-7.27,0-19.56-1.46-19.56-6.95s12.29-7,19.56-7,19.56,1.47,19.56,7S50.43,30.47,43.17,30.47Zm-16.1-6.95c.15.32,1.2,1.29,4.47,2.17A46.67,46.67,0,0,0,43.17,27,46.67,46.67,0,0,0,54.8,25.69c3.27-.88,4.32-1.85,4.46-2.17-.14-.32-1.19-1.3-4.46-2.18A46.67,46.67,0,0,0,43.17,20a46.67,46.67,0,0,0-11.63,1.32C28.27,22.22,27.22,23.2,27.07,23.52Z"/><path class="cls-2" d="M43.17,58.6c-7.05,0-16.2-1.26-18.82-4.82a3.47,3.47,0,0,1,0-4.27l2.79,2.05-.05.08a.44.44,0,0,0,.05.09c1,1.37,6.81,3.41,16,3.41s15-2,16-3.4a.37.37,0,0,0,.06-.1l-.06-.09L62,49.48a3.46,3.46,0,0,1,0,4.33C59.31,57.35,50.18,58.6,43.17,58.6Z"/><path class="cls-2" d="M43.17,86.51c-6.65,0-15.54-1.17-18.75-4.46a4.74,4.74,0,0,1-.48-.58,4,4,0,0,1-.83-2.41A4.09,4.09,0,0,1,24,76.63l3.57,2.64a.48.48,0,0,0,0-.21.42.42,0,0,0,0-.23l0,0,.09.1c1.25,1.29,6.91,3.11,15.55,3.11S57.47,80.24,58.73,79l.09-.11h0a.61.61,0,0,0,0,.23.77.77,0,0,0,0,.2l3.55-2.67a4,4,0,0,1,0,4.94,5.8,5.8,0,0,1-.45.52C58.71,85.34,49.81,86.51,43.17,86.51Z"/><path class="cls-2" d="M43.51,26.73c-3.79,0-8.22-.82-8.22-3.11s4.43-3.11,8.22-3.11,8.22.81,8.22,3.11S47.3,26.73,43.51,26.73Zm-6.13-3.11c.59.42,2.67,1.13,6.13,1.13s5.55-.71,6.13-1.13c-.58-.42-2.67-1.13-6.13-1.13S38,23.2,37.38,23.62Z"/><polygon class="cls-2" points="101.43 82.22 99.44 82.22 99.44 80.5 97.97 80.5 97.97 24.65 101.43 24.65 101.43 82.22"/><polygon class="cls-2" points="65.14 82.22 63.13 82.22 63.13 24.62 66.59 24.62 66.59 80.5 65.14 80.5 65.14 82.22"/><path class="cls-2" d="M82.29,30.47C75,30.47,62.73,29,62.73,23.52s12.29-7,19.56-7,19.56,1.47,19.56,7S89.55,30.47,82.29,30.47Zm-16.1-6.95c.15.32,1.2,1.29,4.47,2.17A46.67,46.67,0,0,0,82.29,27a46.67,46.67,0,0,0,11.63-1.32c3.27-.88,4.32-1.85,4.46-2.17-.14-.32-1.19-1.3-4.46-2.18A46.67,46.67,0,0,0,82.29,20a46.67,46.67,0,0,0-11.63,1.32C67.39,22.22,66.34,23.2,66.19,23.52Z"/><path class="cls-2" d="M82.29,58.6c-7.05,0-16.2-1.26-18.82-4.82a3.47,3.47,0,0,1,0-4.27l2.79,2.05,0,.08a.44.44,0,0,0,0,.09c1,1.37,6.81,3.41,16,3.41s15-2,16-3.4a.37.37,0,0,0,.06-.1l-.06-.09,2.77-2.07a3.46,3.46,0,0,1,0,4.33C98.43,57.35,89.3,58.6,82.29,58.6Z"/><path class="cls-2" d="M82.29,86.51c-6.65,0-15.54-1.17-18.75-4.46a5.6,5.6,0,0,1-.48-.57,3.94,3.94,0,0,1,0-4.85l3.57,2.64a.48.48,0,0,0,0-.21.42.42,0,0,0-.05-.23l0,0,.09.11c1.25,1.28,6.91,3.1,15.55,3.1S96.59,80.24,97.85,79l.09-.11h0a.61.61,0,0,0,0,.23.77.77,0,0,0,0,.2l3.55-2.66a4,4,0,0,1,.86,2.46,4.1,4.1,0,0,1-.86,2.47,6,6,0,0,1-.45.52C97.83,85.34,88.93,86.51,82.29,86.51Z"/><path class="cls-2" d="M82.63,26.73c-3.79,0-8.22-.82-8.22-3.11s4.43-3.11,8.22-3.11,8.22.81,8.22,3.11S86.42,26.73,82.63,26.73ZM76.5,23.62c.59.42,2.67,1.13,6.13,1.13s5.55-.71,6.13-1.13c-.58-.42-2.67-1.13-6.13-1.13S77.09,23.2,76.5,23.62Z"/></g><path class="cls-2" d="M63.78,31c-.72,0-1.48,0-2.28,0a32,32,0,0,1-14.42-3.69,28.33,28.33,0,0,0-13-3.34c-5.69-.23-9.23,1.53-12.65,3.23-4.39,2.18-8.94,4.44-16.82,1.3-1.53-.6-2.3-1.5-2.29-2.65,0-2.07,2.33-2.95,6.16-4.41,2.36-.9,5.29-2,6.71-3.2s1.42-2.3,1.47-4.31.13-4.79,2.77-7a7.71,7.71,0,0,1,7.21-2A12.26,12.26,0,0,0,30.72,5,75.56,75.56,0,0,0,42.47,2.23C47,.84,50.56-.26,59.52.05a34.17,34.17,0,0,1,15,3.64A30.79,30.79,0,0,0,88.13,7,31,31,0,0,0,102,4.65a34.44,34.44,0,0,1,15.17-2.6c1.55,0,1.77,1.48,1.92,2.43.07.46.16,1,.24,1.66A1.81,1.81,0,0,1,122.24,8a3.38,3.38,0,0,1-1.93,2.05c-1.13,1-1.34,1.2-1.83,1.33a1.81,1.81,0,0,1-1.45-.26,1.74,1.74,0,0,1-.26-.19h-.32a3.15,3.15,0,0,1-.88-.16,8.76,8.76,0,0,0-8,1.48c-1,.76-1.7,2.9-2.33,5-.8,2.62-1.62,5.32-3.62,6.81-3.81,2.83-5.6,2.72-8.21,2.3a16.46,16.46,0,0,0-4.15-.25,41.65,41.65,0,0,0-12.48,2.6A34.68,34.68,0,0,1,63.78,31ZM33.1,20.29l1.12,0A31.8,31.8,0,0,1,48.64,24a28.58,28.58,0,0,0,13,3.34,32.17,32.17,0,0,0,14-2.08A45.63,45.63,0,0,1,89,22.48a20.16,20.16,0,0,1,5,.29c1.92.31,2.71.44,5.49-1.64,1-.77,1.69-2.9,2.32-5,.8-2.63,1.63-5.36,3.66-6.84A12.41,12.41,0,0,1,115.8,7.12l0-.13c-.06-.41-.13-.91-.19-1.37h0A30.69,30.69,0,0,0,103.23,8,34.25,34.25,0,0,1,88,10.6,34.23,34.23,0,0,1,73,7,30.83,30.83,0,0,0,59.4,3.65c-8.36-.29-11.51.68-15.88,2A77.57,77.57,0,0,1,31.28,8.56a15.76,15.76,0,0,1-5.16-.08c-1.79-.26-2.53-.37-4.39,1.18-1.32,1.1-1.41,2.3-1.47,4.31s-.12,4.78-2.76,7c-1.88,1.57-5,2.75-7.74,3.8-.71.27-1.55.59-2.29.89,5.41,1.72,8.52.18,12.36-1.73C23.26,22.21,27.13,20.29,33.1,20.29Z"/><path class="cls-2" d="M76.53,106.88c-7.44,0-14.72-2.44-21.78-4.81A97.65,97.65,0,0,0,42.4,98.5c-7.74-1.48-13.71-.24-19,.86C15.57,101,8.78,102.4,2.5,91.7c-3.54-6-1.15-10,1.16-13.88C5.34,75,7.07,72.13,6.89,68a17.3,17.3,0,0,0-3.16-9.63A20.72,20.72,0,0,1,0,47,20.79,20.79,0,0,1,2.74,35.32a17.27,17.27,0,0,0,2.32-9.86,1.8,1.8,0,0,1,3.6-.16A20.76,20.76,0,0,1,6,37a17.28,17.28,0,0,0-2.32,9.87,17.22,17.22,0,0,0,3.16,9.63,20.77,20.77,0,0,1,3.7,11.37c.23,5.24-2,8.91-3.74,11.85-2.17,3.62-3.6,6-1.14,10.21,5,8.47,9.27,7.57,17.09,6C28,94.73,34.63,93.35,43.08,95a100.83,100.83,0,0,1,12.81,3.7c7.66,2.56,15.58,5.22,23.31,4.49,11.2-1.05,19.68-7.65,28.67-14.64l1.26-1c1.35-4.15,2.53-7,3.48-9.24,2-4.78,3.08-7.42,3.56-16.35a28.32,28.32,0,0,0-2.12-13.27A31.82,31.82,0,0,1,111.72,34a32,32,0,0,1,3.9-14.37,28.39,28.39,0,0,0,3.54-13,1.8,1.8,0,0,1,3.6.19,31.79,31.79,0,0,1-3.91,14.37,28.53,28.53,0,0,0-3.53,13,28.29,28.29,0,0,0,2.12,13.27,32,32,0,0,1,2.33,14.71c-.52,9.55-1.77,12.55-3.84,17.53-1,2.44-2.16,5.2-3.55,9.5a1.74,1.74,0,0,1-.61.87l-1.69,1.31c-9.41,7.33-18.3,14.24-30.55,15.39C78.53,106.83,77.53,106.88,76.53,106.88Z"/></g></g></svg>