<svg xmlns="http://www.w3.org/2000/svg" viewBox="0 0 73.27 90.48"><defs><style>.cls-1{fill:#3d0066;}</style></defs><title>PAPEL 1</title><g id="Capa_2" data-name="Capa 2"><g id="Capa_1-2" data-name="Capa 1"><polygon class="cls-1" points="69.88 76.56 69.44 74.75 69.19 74.8 67.68 68.56 67.68 68.33 69.39 68.32 69.53 68.28 71.22 67.45 71.3 67.62 71.42 68.11 73.27 75.74 69.88 76.56"/><polygon class="cls-1" points="18.33 89.04 0 13.3 54.94 0 57.69 11.38 54.05 12.25 52.18 4.52 4.52 16.06 17.75 70.7 17.75 70.71 21.09 84.52 27.71 82.92 28.59 86.56 18.33 89.04"/><polygon class="cls-1" points="17.12 90.48 8.03 13.09 64.18 6.49 64.8 11.81 61.08 12.24 60.89 10.65 12.19 16.37 20.4 86.32 69.11 80.61 67.68 68.33 68.72 68.33 71.4 68.03 71.42 68.22 73.26 83.89 17.12 90.48"/><path class="cls-1" d="M13.53,86.69,15.87,8.74l2.88.09,53.59,1.6-.92,58.19,0,0L71.12,86.3l-19.85.14Zm6-74.09,0,1.31-2.07,69,50.05-.34.23-14.66,0,0,.85-53.81Z"/><rect class="cls-1" x="43.41" y="-5.19" width="2.26" height="44.59" transform="translate(26.14 61.12) rotate(-88.33)"/><rect class="cls-1" x="44.05" y="1.84" width="2.26" height="44.59" transform="translate(19.74 68.6) rotate(-88.35)"/><polygon class="cls-1" points="65.52 33.99 66.07 34.01 66.14 31.75 65.25 31.73 60.66 31.59 21.56 30.47 21.5 32.73 61.21 33.87 65.52 33.99"/><polygon class="cls-1" points="66.2 39.77 66.15 41.34 63 41.25 21.58 40.06 21.64 37.8 62.45 38.97 66.12 39.08 66.2 39.77"/><rect class="cls-1" x="42.52" y="24.78" width="2.26" height="44.59" transform="translate(-4.67 89.35) rotate(-88.35)"/><rect class="cls-1" x="41.59" y="32.66" width="2.26" height="44.59" transform="translate(-13.44 96.07) rotate(-88.35)"/></g></g></svg>