<svg xmlns="http://www.w3.org/2000/svg" viewBox="0 0 65.99 71.16"><defs><style>.cls-1{fill:none;stroke:#3d0066;stroke-miterlimit:10;stroke-width:3px;}</style></defs><title>PAPEL 3</title><g id="Capa_2" data-name="Capa 2"><g id="Capa_1-2" data-name="Capa 1"><rect class="cls-1" x="16.01" y="6.87" width="47.74" height="57.17" rx="3.08" transform="translate(-1.02 1.18) rotate(-1.68)"/><path class="cls-1" d="M16.75,61.25,12,61.39a1.37,1.37,0,0,1-1.41-1.33v-.23L9.17,12.37,9,5.66A1.37,1.37,0,0,1,10.3,4.25L51.91,3l3.37-.1a1.37,1.37,0,0,1,1.41,1.33l.06,2.11"/><path class="cls-1" d="M52.21,6.5,52.14,4a2.47,2.47,0,0,0-.23-1A2.58,2.58,0,0,0,49.47,1.5L6.93,2.74A2.6,2.6,0,0,0,4.41,5.41l.21,7.1L5.93,57.37A2.61,2.61,0,0,0,8.6,59.89l2-.06"/><path class="cls-1" d="M50.68,63.74l0,1.53a3.08,3.08,0,0,1-3,3.17L6.17,69.66a3.09,3.09,0,0,1-3.18-3l-1.49-51a3.09,3.09,0,0,1,3-3.18h.12"/></g></g></svg>