<svg xmlns="http://www.w3.org/2000/svg" viewBox="0 0 134.92 120.23"><defs><style>.cls-1{fill:#3d0066;}</style></defs><title>PAPEL 2</title><g id="Capa_2" data-name="Capa 2"><g id="Capa_1-2" data-name="Capa 1"><path class="cls-1" d="M2.51,56.72c0-2.21,0-4.41,0-6.61a2.43,2.43,0,0,1,1.7-2.49,1.37,1.37,0,0,0,.64-.87,7.63,7.63,0,0,0,0-1.61c-.85,0-1.56,0-2.27,0A2.38,2.38,0,0,1,.06,42.63C0,40.28,0,37.93.05,35.58a2.35,2.35,0,0,1,2.63-2.5c.71,0,1.41,0,2.17,0V31.59c0-2.65.7-3.36,3.32-3.37l25.79,0q10.62,0,21.24,0A2.46,2.46,0,0,1,58,30.86c0,.67,0,1.35,0,2.06,1,.16,2.33-.25,2.35,1.21s-1.34,1.15-2.29,1.3v4.68c1,.15,2.25-.17,2.29,1.25S59,42.5,58.07,42.66v4.69c1,.2,2.33-.19,2.29,1.35S59,49.79,58.12,50v4.71c1,.07,2.21-.21,2.26,1.15.06,1.55-1.3,1.19-2.26,1.31v4.71c1,.1,2.2-.1,2.26,1.22.09,1.59-1.41,1.13-2.25,1.38v4.7c1,.1,2.2-.2,2.27,1.16.07,1.57-1.37,1.19-2.27,1.37v4.7c1,.09,2.19-.2,2.27,1.15.09,1.63-1.42,1.11-2.26,1.38v4.66c1,.17,2.21-.13,2.27,1.21.08,1.56-1.34,1.23-2.27,1.39v4.72c1,0,2.17-.21,2.27,1.11.11,1.6-1.35,1.2-2.27,1.41v4.68c.95.18,2.27-.2,2.29,1.26s-1.41,1.06-2.35,1.32c0,.54,0,1,0,1.54,0,2.37-.82,3.19-3.19,3.19l-46.6.08c-2.62,0-3.36-.72-3.36-3.33q0-13.32,0-26.66V74.21c-2-.7-2.39-1.2-2.39-3.34,0-1.81.06-3.62,0-5.42S2.87,62.3,4.86,62V59.68C3,59.13,2.51,58.5,2.51,56.72ZM55.59,103v-2.4c-1,0-2,0-3.07,0s-1.73-.45-1.65-1.25c.09-1,.8-1.16,1.64-1.15,1,0,2,0,3.1,0V93.33c-1,0-2,0-3,0s-1.63-.12-1.7-1.19c-.06-.79.55-1.22,1.67-1.23H55.6V86.1c-1.06,0-2.07,0-3.07,0s-1.73-.45-1.69-1.23c.06-1.07.85-1.22,1.7-1.23s2,0,3.06,0V78.8c-1.08,0-2.15,0-3.21,0-.88,0-1.56-.24-1.54-1.23s.68-1.18,1.51-1.17c1,0,2.09,0,3.21,0v-4.8c-1.05,0-2.08,0-3.12,0s-1.7-.48-1.62-1.28c.1-1,.8-1.16,1.64-1.14,1,0,2,0,3.1,0V64.35H52.4c-.85,0-1.58-.21-1.58-1.2s.74-1.24,1.56-1.26c1,0,2.08,0,3.18,0v-4.8c-1.06,0-2.13,0-3.19,0-.89,0-1.56-.24-1.55-1.21s.72-1.21,1.59-1.19c1,0,2.07,0,3.16,0V49.9a28.74,28.74,0,0,1-3.22,0A2.17,2.17,0,0,1,50.89,49c-.44-.72.21-1.51,1.19-1.56s1.88,0,2.81-.05c.25,0,.66-.36.67-.56.06-1.36,0-2.73,0-4.25-1.13,0-2.17,0-3.2,0-.85,0-1.54-.16-1.62-1.15-.06-.81.53-1.26,1.65-1.27s2,0,3.09,0v-4.8c-1.1,0-2.18,0-3.25,0-.84,0-1.46-.3-1.48-1.2s.6-1.22,1.45-1.2c1.07,0,2.14,0,3.29,0V30.65l-48.17.08L7.45,103ZM4.8,42.63V35.56H2.56v7.07Z"/><path class="cls-1" d="M115.81,28.66l-2.89-.57c0-.08,0-.26.07-.45q1.4-8.16,2.81-16.33a6.26,6.26,0,0,0,.1-.74,1.47,1.47,0,0,0-1.11-1.51,1.46,1.46,0,0,0-1.7.88,3.54,3.54,0,0,0-.18.73Q110.72,23.35,108.54,36a4.59,4.59,0,0,0,2.14,5,4.46,4.46,0,0,0,6.6-3.42l4.29-24.94c.08-.43.14-.85.19-1.28A7.36,7.36,0,0,0,110,4.7a7.51,7.51,0,0,0-2.84,4.87q-1.38,8-2.78,16.06c0,.18,0,.36-.06.55l-2.92-.6c.22-1.3.47-2.72.72-4.15.72-4.19,1.43-8.38,2.17-12.57A10.3,10.3,0,0,1,121.15,2.7a9.89,9.89,0,0,1,3.44,9.52c-.62,3.92-1.33,7.82-2,11.73-.81,4.76-1.64,9.51-2.45,14.27a7.41,7.41,0,0,1-2.07,4.15,7.4,7.4,0,0,1-11.3-1,7.33,7.33,0,0,1-1.16-5.67Q107.81,22.85,110,10a4.44,4.44,0,0,1,4.59-3.87,4.31,4.31,0,0,1,4.18,5C117.87,17,116.81,22.81,115.81,28.66Z"/><path class="cls-1" d="M112.86,44.69a7.3,7.3,0,0,1-6.24-3.26,7.51,7.51,0,0,1-1.18-5.8l1.54-9q1.44-8.34,2.87-16.66a4.59,4.59,0,0,1,4.76-4A4.64,4.64,0,0,1,118,7.66,4.38,4.38,0,0,1,119,11.2c-.65,4.13-1.38,8.32-2.09,12.37-.29,1.7-.59,3.41-.88,5.11l0,.17-3.22-.63,0-.22c0-.1,0-.25.06-.39l2.82-16.39a5,5,0,0,0,.09-.66,1.31,1.31,0,0,0-1-1.34,1.29,1.29,0,0,0-1.51.79,2.91,2.91,0,0,0-.17.69q-2.19,12.68-4.37,25.36a4.4,4.4,0,0,0,2.05,4.78,4.24,4.24,0,0,0,3.9.14,4.59,4.59,0,0,0,2.45-3.44q1.83-10.6,3.65-21.21l.65-3.73c.07-.43.13-.85.18-1.27a7.19,7.19,0,0,0-11.52-6.5A7.3,7.3,0,0,0,107.3,9.6q-.92,5.33-1.84,10.64l-.94,5.42c0,.12,0,.23,0,.36l0,.37-3.26-.67.27-1.53c.16-.91.32-1.85.48-2.79l.69-4c.49-2.86,1-5.72,1.49-8.57a10.46,10.46,0,0,1,17.16-6.25,10,10,0,0,1,3.5,9.67c-.44,2.72-.92,5.49-1.39,8.16-.21,1.19-.41,2.38-.62,3.57L122,28.15q-.87,5-1.73,10.1a7.53,7.53,0,0,1-2.12,4.24,7.35,7.35,0,0,1-5.32,2.2Zm1.53-38.37a4.28,4.28,0,0,0-4.21,3.74q-1.43,8.32-2.86,16.65l-1.55,9a7.17,7.17,0,0,0,1.13,5.54,7,7,0,0,0,6,3.12h0a7,7,0,0,0,5.09-2.1,7.17,7.17,0,0,0,2-4.06l1.74-10.1.72-4.17c.2-1.19.41-2.38.62-3.57.47-2.67.95-5.43,1.39-8.16A9.69,9.69,0,0,0,121,2.83a10.13,10.13,0,0,0-16.61,6.06c-.51,2.85-1,5.71-1.49,8.57-.23,1.33-.45,2.67-.68,4-.17.94-.33,1.88-.49,2.79l-.21,1.2,2.58.53a2.47,2.47,0,0,1,0-.38l.94-5.42c.61-3.55,1.23-7.09,1.83-10.64A7.57,7.57,0,0,1,118,3.92a7.54,7.54,0,0,1,3.9,7.46c-.05.41-.12.84-.19,1.28l-.64,3.73Q119.27,27,117.44,37.6a4.93,4.93,0,0,1-2.64,3.69,4.56,4.56,0,0,1-4.2-.15A4.75,4.75,0,0,1,108.37,36q2.19-12.67,4.37-25.36a3.86,3.86,0,0,1,.2-.76,1.62,1.62,0,0,1,1.88-1,1.66,1.66,0,0,1,1.25,1.69,5.36,5.36,0,0,1-.09.7v.06l-2.82,16.33c0,.1,0,.2,0,.28l2.56.51c.29-1.65.57-3.3.86-4.94.71-4.06,1.44-8.24,2.09-12.37a4.12,4.12,0,0,0-.86-3.28,4.31,4.31,0,0,0-3.17-1.54Z"/><polygon class="cls-1" points="99.57 76.34 96.92 63.89 121.58 58.65 123.88 69.47 122.08 69.86 120.16 60.84 99.11 65.31 101.38 75.95 99.57 76.34"/><polygon class="cls-1" points="110.61 81.6 107.96 69.15 132.62 63.91 134.92 74.74 133.11 75.12 131.19 66.1 110.15 70.58 112.41 81.21 110.61 81.6"/><rect class="cls-1" x="75.39" y="49.19" width="15" height="4.42" rx="2.21" transform="translate(-6.2 11.7) rotate(-7.78)"/><path class="cls-1" d="M76.68,54.32a2.41,2.41,0,0,1,.65-4.6l10.48-1.43a2.42,2.42,0,1,1,.65,4.79L78,54.51A2.37,2.37,0,0,1,76.68,54.32ZM87.86,48.7,77.38,50.13a2,2,0,0,0,.54,4l10.49-1.43a2,2,0,0,0-.55-4Z"/><rect class="cls-1" x="76.68" y="58.57" width="15" height="4.42" rx="2.21" transform="translate(-7.45 11.96) rotate(-7.78)"/><path class="cls-1" d="M78,63.71a2.41,2.41,0,0,1,.65-4.6l10.48-1.44a2.42,2.42,0,1,1,.65,4.79L79.26,63.89A2.37,2.37,0,0,1,78,63.71Zm11.19-5.63L78.66,59.51a2,2,0,0,0,.55,4l10.48-1.44a2,2,0,0,0-.54-4Z"/><rect class="cls-1" x="77.7" y="66.08" width="15" height="4.42" rx="2.21" transform="matrix(0.99, -0.14, 0.14, 0.99, -8.46, 12.17)"/><path class="cls-1" d="M79,71.22a2.42,2.42,0,0,1,.66-4.61l10.48-1.43a2.38,2.38,0,0,1,1.78.47,2.4,2.4,0,0,1,.94,1.6A2.41,2.41,0,0,1,90.77,70L80.29,71.4A2.42,2.42,0,0,1,79,71.22Zm12.27-5.48a2,2,0,0,0-1.08-.15L79.69,67a2,2,0,0,0,.54,4l10.48-1.43a2,2,0,0,0,1.72-2.26A2,2,0,0,0,91.65,66,2.65,2.65,0,0,0,91.25,65.74Z"/><rect class="cls-1" x="78.82" y="74.22" width="15" height="4.42" rx="2.21" transform="translate(-9.55 12.39) rotate(-7.78)"/><path class="cls-1" d="M80.1,79.35a2.25,2.25,0,0,1-.49-.29,2.41,2.41,0,0,1,1.14-4.31l10.48-1.43a2.38,2.38,0,0,1,1.78.47,2.4,2.4,0,0,1,.47,3.38,2.35,2.35,0,0,1-1.6.93L81.4,79.54A2.41,2.41,0,0,1,80.1,79.35Zm12.26-5.47a2,2,0,0,0-1.08-.16L80.8,75.16a2,2,0,0,0-1.32.77,2,2,0,0,0,1.87,3.2L91.83,77.7a2,2,0,0,0,1.32-.78,2,2,0,0,0,.39-1.48,2,2,0,0,0-.77-1.32A1.91,1.91,0,0,0,92.36,73.88Z"/><rect class="cls-1" x="80.1" y="83.6" width="15" height="4.42" rx="2.21" transform="translate(-10.81 12.65) rotate(-7.78)"/><path class="cls-1" d="M81.38,88.74A2.42,2.42,0,0,1,82,84.13L92.51,82.7a2.42,2.42,0,1,1,.65,4.79L82.68,88.92A2.46,2.46,0,0,1,81.38,88.74Zm11.19-5.63L82.09,84.54a2,2,0,1,0,.54,4l10.48-1.43a2,2,0,0,0,1.32-.77,2,2,0,0,0,.39-1.49,2,2,0,0,0-2.25-1.71Z"/><rect class="cls-1" x="81.12" y="91.11" width="15" height="4.42" rx="2.21" transform="translate(-11.82 12.86) rotate(-7.78)"/><path class="cls-1" d="M82.41,96.25a3.5,3.5,0,0,1-.49-.29,2.43,2.43,0,0,1-.93-1.6,2.38,2.38,0,0,1,.47-1.78,2.4,2.4,0,0,1,1.6-.94l10.48-1.43A2.42,2.42,0,0,1,94.19,95L83.71,96.43A2.39,2.39,0,0,1,82.41,96.25Zm12.26-5.48a2.05,2.05,0,0,0-1.08-.15L83.11,92.05a2,2,0,0,0-1.32.78,1.92,1.92,0,0,0-.39,1.48A2,2,0,0,0,83.65,96l10.48-1.43a2,2,0,0,0,.54-3.82Z"/><rect class="cls-1" x="82.06" y="97.99" width="15" height="4.42" rx="2.21" transform="translate(-12.74 13.05) rotate(-7.78)"/><path class="cls-1" d="M83.35,103.13A2.42,2.42,0,0,1,84,98.52l10.48-1.43a2.42,2.42,0,1,1,.65,4.79l-10.48,1.43A2.37,2.37,0,0,1,83.35,103.13ZM94.53,97.5,84.05,98.93a2,2,0,0,0,.54,4l10.49-1.43a2,2,0,0,0-.55-4Z"/><rect class="cls-1" x="83.35" y="107.38" width="15" height="4.42" rx="2.21" transform="translate(-14 13.31) rotate(-7.78)"/><path class="cls-1" d="M84.63,112.51a2.41,2.41,0,0,1,.65-4.6l10.48-1.43a2.42,2.42,0,1,1,.65,4.79L85.93,112.7A2.37,2.37,0,0,1,84.63,112.51Zm11.19-5.62-10.49,1.43a2,2,0,0,0,.55,4l10.48-1.43a2,2,0,0,0-.54-4Z"/><rect class="cls-1" x="84.37" y="114.89" width="15" height="4.42" rx="2.21" transform="translate(-15.01 13.52) rotate(-7.78)"/><path class="cls-1" d="M85.65,120a2.42,2.42,0,0,1,.65-4.6L96.79,114a2.38,2.38,0,0,1,1.78.47,2.4,2.4,0,0,1,.94,1.59,2.44,2.44,0,0,1-.47,1.79,2.37,2.37,0,0,1-1.6.93L87,120.21A2.42,2.42,0,0,1,85.65,120Zm12.27-5.47a2,2,0,0,0-1.08-.16l-10.48,1.44a2,2,0,0,0,.54,4l10.48-1.43a2,2,0,0,0,1.33-.78,2,2,0,0,0,.39-1.48,2,2,0,0,0-.78-1.32A1.63,1.63,0,0,0,97.92,114.55Z"/><path class="cls-1" d="M49.27,17c1.34-3.88,3-7.38,6.12-10.06A12.45,12.45,0,0,1,66.14,4,22.88,22.88,0,0,1,76.65,9a38.8,38.8,0,0,1,7.76,8.32l.34.48a.5.5,0,0,0,.67.12L88.36,16a.49.49,0,0,1,.75.45c-.39,5.65-.79,11.22-1.18,16.85a.49.49,0,0,1-.66.43L71.55,27.9a.49.49,0,0,1-.11-.87l3.29-2.14a.7.7,0,0,0-.07-.23,39.1,39.1,0,0,0-7.44-8.58,14.32,14.32,0,0,0-5.64-3,11.12,11.12,0,0,0-8.37,1.2c-1.21.68-2.32,1.56-3.47,2.35Z"/></g></g></svg>