<svg xmlns="http://www.w3.org/2000/svg" viewBox="0 0 124.5 125.64"><defs><style>.cls-1{fill:#3d0066;}</style></defs><title>LATAS 1</title><g id="Capa_2" data-name="Capa 2"><g id="Capa_1-2" data-name="Capa 1"><path class="cls-1" d="M59.66,115.9h0V51.32a1.67,1.67,0,0,0,.09-.55V45a1.72,1.72,0,0,0-.1-.55V42a1.69,1.69,0,0,0,.08-.5v-10a1.78,1.78,0,0,0-.07-.47V23.88a1.71,1.71,0,0,0-.4-1.54l-2.78-3a3.91,3.91,0,0,0,1.08-2.7,4,4,0,0,0-1.17-2.79,3.91,3.91,0,0,0-2.78-1.15h0l-18,0a4.11,4.11,0,0,0-.69-2.76L29.33,1.8a4.14,4.14,0,1,0-6.82,4.68l4.28,6.24-20.65,0a4,4,0,0,0-3.94,4A3.91,3.91,0,0,0,3.28,19.4l-2.75,3A1.71,1.71,0,0,0,0,23.66v93.23a1.71,1.71,0,0,0,.89,1.5L5,124.83a1.71,1.71,0,0,0,1.45.81h0l47.27-.09a1.7,1.7,0,0,0,1.45-.8l4.46-7.1A1.74,1.74,0,0,0,59.66,115.9ZM6.81,20.66l35.76-.06,10.38,0,1.11,1.21L5.7,21.87ZM56.2,40.31a31.46,31.46,0,0,0-5,2.32c-1.12.63-2.24,1.31-3.32,2-3.62,2.2-7,4.28-10.89,5-3.63.63-7.32,0-11.23-.75a53.94,53.94,0,0,0-8.19-1.05A27.52,27.52,0,0,0,3.56,51.41l0-7.82a43.62,43.62,0,0,1,11-2.44,63.15,63.15,0,0,1,8.2.63c4.37.52,8.9,1.06,13.4.18,4.13-.8,7.83-2.7,11.42-4.55C49,36.67,50.53,35.9,52,35.23a27.21,27.21,0,0,1,4.18-1.54Zm0-10.18a31,31,0,0,0-5.62,2C49,32.8,47.5,33.59,46,34.35c-3.53,1.81-6.85,3.52-10.49,4.23-4,.77-8,.29-12.34-.23a68.49,68.49,0,0,0-8.64-.65A44.32,44.32,0,0,0,3.45,40V25.38H56.2ZM3.56,58.34l.19-.13a22.22,22.22,0,0,1,10-3.61,45.55,45.55,0,0,1,11.13.75c.85.13,1.73.26,2.6.37,4.63.63,10,1,14.91-.91a33.89,33.89,0,0,0,6.14-3.45c1-.65,1.92-1.26,2.89-1.83a29.85,29.85,0,0,1,4.77-2.2v2.23a26.52,26.52,0,0,0-3.39,1.52c-1.2.64-2.38,1.34-3.51,2a31.48,31.48,0,0,1-7.86,3.78c-4.18,1.1-8.78.34-13.22-.4l-1.5-.25C20,55.15,12.19,54.51,5.56,58.05a22.61,22.61,0,0,0-2,1.21ZM3.45,115.1V63.62a26,26,0,0,1,3.74-2.53c5.72-3.05,12.8-2.45,19-1.45l1.48.24c4.81.8,9.78,1.62,14.67.33a34.3,34.3,0,0,0,8.74-4.15c1.1-.66,2.24-1.33,3.37-1.94.58-.31,1.17-.58,1.77-.84V115ZM30.94,12.67,25.35,4.53a.68.68,0,0,1,.18-1,.65.65,0,0,1,.39-.12H26a.69.69,0,0,1,.45.29l5.59,8.14a.7.7,0,0,1,.11.52.89.89,0,0,1-.16.3H31S31,12.69,30.94,12.67ZM6.15,16.2l23.93,0a3.93,3.93,0,0,0,.67.19,4,4,0,0,0,.77.07A4.12,4.12,0,0,0,33,16.15l20.64,0h0a.52.52,0,0,1,.35.14.5.5,0,0,1,.15.36.51.51,0,0,1-.51.51H50.31l-20.43,0-23.73,0a.51.51,0,0,1-.5-.5A.5.5,0,0,1,6.15,16.2ZM52.74,122.11l-45.37.08-2.26-3.58H54.93Z"/><path class="cls-1" d="M124.13,51.39l-2-2.17a2.84,2.84,0,0,0-2.06-4.79l-14.85,0,3.08-4.49a3,3,0,0,0-4.91-3.37l-4,5.86a2.91,2.91,0,0,0-.49,2L86,44.37h0a2.84,2.84,0,0,0-2.07,4.78l-2,2.17a1.25,1.25,0,0,0-.28,1.12v66.18h0a1.26,1.26,0,0,0,0,1.26l3.2,5.11a1.25,1.25,0,0,0,1.05.58l34,.06h0a1.25,1.25,0,0,0,1.05-.58l2.94-4.66a1.23,1.23,0,0,0,.63-1.06V52.28A1.25,1.25,0,0,0,124.13,51.39ZM86.41,50.06l12.19,0,21,0,.8.87-34.79-.06Zm-2.34,3.46h38v64.54L84.07,118Zm17.28-9.33a.48.48,0,0,1,.07-.38l4-5.86a.5.5,0,0,1,.32-.21h.09a.48.48,0,0,1,.28.08.5.5,0,0,1,.12.69l-4,5.87,0,0h-.76A.61.61,0,0,1,101.35,44.19ZM85.69,47a.35.35,0,0,1,.25-.11h0l14.88,0a3.06,3.06,0,0,0,1,.19,3.51,3.51,0,0,0,.55,0,2.9,2.9,0,0,0,.48-.14l17.21,0a.37.37,0,0,1,.37.36.38.38,0,0,1-.37.37l-17.06,0-14.77,0H86a.36.36,0,0,1-.37-.37A.35.35,0,0,1,85.69,47Zm33.51,76.2-32.64-.06L85,120.58h35.84Z"/></g></g></svg>