<svg xmlns="http://www.w3.org/2000/svg" viewBox="0 0 155.54 193.01"><defs><style>.cls-1{fill:#3d0066;}</style></defs><title>LATAS 2</title><g id="Capa_2" data-name="Capa 2"><g id="Capa_1-2" data-name="Capa 1"><path class="cls-1" d="M57.4,52a1.79,1.79,0,0,0-1.79,1.79V57.4a1.79,1.79,0,0,0,3.58,0V53.81A1.79,1.79,0,0,0,57.4,52Zm5.38,46.64A1.79,1.79,0,0,0,61,100.45V104a1.79,1.79,0,0,0,1.79,1.79,1.75,1.75,0,0,0,1.56-.93l.18-.47v0a1.47,1.47,0,0,0,0-.36v-3.59A1.79,1.79,0,0,0,62.78,98.66ZM57.4,86.1a1.79,1.79,0,0,0-1.79,1.79V98.66a1.79,1.79,0,0,0,3.58,0V87.89A1.79,1.79,0,0,0,57.4,86.1Zm0-23.32a1.79,1.79,0,0,0-1.79,1.79V80.72a1.79,1.79,0,0,0,3.58,0V64.57A1.79,1.79,0,0,0,57.4,62.78Zm10.76-3.59A1.8,1.8,0,0,0,66.37,61V73.54a1.8,1.8,0,1,0,3.59,0V61A1.81,1.81,0,0,0,68.16,59.19Zm-5.38-5.38A1.8,1.8,0,0,0,61,55.61V93.28a1.79,1.79,0,1,0,3.58,0V55.61A1.8,1.8,0,0,0,62.78,53.81ZM52,23.32H48.43v-9a1.79,1.79,0,0,0-1.79-1.79H39.46V7.17h9a1.79,1.79,0,0,0,0-3.58h-9V1.79a1.8,1.8,0,0,0-3.59,0v1.8h-9a1.79,1.79,0,1,0,0,3.58h9v5.39H28.7a1.8,1.8,0,0,0-1.8,1.79v3.59H1.79a1.79,1.79,0,1,0,0,3.58H26.9V28.7H7.17a1.8,1.8,0,0,0,0,3.59H26.9a10.76,10.76,0,0,0,21.37,1.79H52a5.38,5.38,0,0,1,5.38,5.38v5.38a5.38,5.38,0,1,0,10.76,0V39.46A16.16,16.16,0,0,0,52,23.32Zm-7.18,9a7.18,7.18,0,0,1-14.35,0V21.52H44.84Zm0-14.35H30.49v-1.8H44.84Zm19.73,26.9a1.79,1.79,0,1,1-3.58,0V39.46a9,9,0,0,0-9-9H48.43V26.91H52A12.55,12.55,0,0,1,64.57,39.46Zm71.57,76.36s0,0,0,0l-1.52-1.48a28.08,28.08,0,0,1-7.47-14.14,14.19,14.19,0,0,0-4-7.06l-18-17.55a1.72,1.72,0,0,0-1.29-.5,1.93,1.93,0,0,0-1.28.56,8.82,8.82,0,0,0-2.43,5.08L89.93,76a5.36,5.36,0,0,0-8.62,1.6l-.24-.23a5.38,5.38,0,0,0-7.54,7.68s0,0,0,0l.23.22A5.37,5.37,0,0,0,71.3,92.5,5.51,5.51,0,0,0,72.38,94l1.52,1.48a5.36,5.36,0,0,0-2.48,7.17,5.45,5.45,0,0,0,1.08,1.5l3.74,3.66,2.11,2L81.9,109a1.79,1.79,0,0,0-.53-1.22l-1-1L75,101.58A1.79,1.79,0,0,1,77.51,99l7.31,7.14L86.74,108l2.32,2.27a1.93,1.93,0,0,0,.59.38,1.59,1.59,0,0,0,.3.06,2.29,2.29,0,0,0,.36.07h0a1.78,1.78,0,0,0,.52-.11.76.76,0,0,0,.16,0,1.79,1.79,0,0,0,1-2.34,1.75,1.75,0,0,0-.4-.6L80,96.45l-5.13-5a1.79,1.79,0,0,1,1.23-3.07,1.85,1.85,0,0,1,1.28.51l16.68,16.3a1.93,1.93,0,0,0,.59.38l.25,0a2,2,0,0,0,.41.08h0a1.44,1.44,0,0,0,.5-.1,1.12,1.12,0,0,0,.77-.43,1.8,1.8,0,0,0,0-2.54L76.06,82.54a1.8,1.8,0,0,1,1.23-3.08,1.87,1.87,0,0,1,1.27.51L99.09,100a1.79,1.79,0,0,0,2.51-2.56L84.92,81.17a1.8,1.8,0,0,1,2.51-2.57l15.35,15h0l7.73,7.56A1.79,1.79,0,0,0,113,98.61L105.29,91A5.33,5.33,0,0,1,104.2,85l16.46,16.08h0a10.75,10.75,0,0,1,3,5.29,31.55,31.55,0,0,0,8.45,15.9l1.52,1.49a1.79,1.79,0,1,0,2.53-2.54ZM81.4,110.31a1.4,1.4,0,0,0,.33-.51l-2.75.65A1.77,1.77,0,0,0,81.4,110.31Z"/><path class="cls-1" d="M155.51,139.59a1.79,1.79,0,0,1-2.1,1.43l-2.09-.4a31.54,31.54,0,0,1-15.84-8.56,10.82,10.82,0,0,0-5.4-2.77L107.45,125a5.32,5.32,0,0,0,4.29,4.46l10.62,2a1.8,1.8,0,0,1-.67,3.53l-28.17-5.34-2.67-.5L90,129a1.79,1.79,0,0,0-2.1,1.42,1.84,1.84,0,0,0,0,.33,1.8,1.8,0,0,0,1.46,1.77l2.46.47,2.67.5,17.78,3.37a1.79,1.79,0,0,1,1.43,2.1,1.76,1.76,0,0,1-.25.62.93.93,0,0,1-.16.18,1.54,1.54,0,0,1-.28.29,2.39,2.39,0,0,1-.58.28l-.49.09a1.84,1.84,0,0,1-.33,0l-16.21-3.07-2.67-.51-4-.76-5.28-1a1.8,1.8,0,0,0-.67,3.53l5.28,1h0l5.6,1.06,2.67.51,14.64,2.77a1.78,1.78,0,0,1,1.43,2.07,1.68,1.68,0,0,1-.26.65.8.8,0,0,1-.15.17,1.21,1.21,0,0,1-.52.43,1.19,1.19,0,0,1-.35.15l-.49.09a1.84,1.84,0,0,1-.33,0L97.15,145l-2.67-.51L87.3,143.1a1.79,1.79,0,1,0-.67,3.52l8.76,1.66,2.67.5L109.54,151a1.8,1.8,0,0,1,1.43,2.1,1.76,1.76,0,0,1-.25.62,1.45,1.45,0,0,1-.16.18,1.54,1.54,0,0,1-.28.29,3.1,3.1,0,0,1-.58.28l-.49.09a2,2,0,0,1-.34,0L99,152.61l-2.67-.51L93,151.48a1.8,1.8,0,0,0-.67,3.53l4.86.92,2.67.51,11.86,2.24,15,2.84a11.75,11.75,0,0,0,7.31-1,15.28,15.28,0,0,1,9.55-1.29l7.94,1.5a1.79,1.79,0,0,1-.67,3.52l-7.93-1.5a11.74,11.74,0,0,0-7.31,1,15.32,15.32,0,0,1-6.74,1.56A14.81,14.81,0,0,1,126,165l-15-2.83-10.28-2-2.67-.51-6.43-1.22a5.33,5.33,0,0,1-4.31-6.19,5.4,5.4,0,0,1,.68-1.8L86,150.15a5.35,5.35,0,0,1-3.63-8l-.32-.06a5.38,5.38,0,0,1,2-10.57l.32.06a5.38,5.38,0,0,1,4.46-6.14,5.61,5.61,0,0,1,1.16,0,5.4,5.4,0,0,1,.69.08l2,.37,12.14,2.31a8.82,8.82,0,0,1-.78-5.58,1.88,1.88,0,0,1,.75-1.17,1.8,1.8,0,0,1,1.35-.31l24.68,4.68a14.27,14.27,0,0,1,7.2,3.69,28.08,28.08,0,0,0,14,7.64l2.1.39A1.79,1.79,0,0,1,155.51,139.59Z"/><path class="cls-1" d="M98.06,148.78l-2.67-.5.91,3.82,2.67.51Zm-3.63-15.29-2.67-.5.91,3.82,2.67.51ZM105,178l-4.21-17.73-.91-3.82-2.67-.51.91,3.82,4.17,17.56L65.34,186,50.45,123.28l36.92-8.77L90,125.39l.9,3.78,2.67.5-.91-3.83L89.5,112.73a1.24,1.24,0,0,0-.57-.77L86.5,110.3a2.81,2.81,0,0,0,.3-2.06l-.06-.21a2.85,2.85,0,0,0-1.92-1.88,2.77,2.77,0,0,0-1.43,0l-3,.71-4.14,1-7.31,1.72,2-5.08a3,3,0,1,0-5.55-2.14l-.81,2.09v0l-.18.47-1.56,4a2.92,2.92,0,0,0,0,2l-12.59,3h0a2.84,2.84,0,0,0-.91,5.13l-1.44,2.58a1.18,1.18,0,0,0,0,1.14l15.29,64.4h0a1.26,1.26,0,0,0,.33,1.22l4.3,4.22a1.25,1.25,0,0,0,1.15.33l33.1-7.8a1.25,1.25,0,0,0,.89-.81l1.79-5.21A1.2,1.2,0,0,0,105,178ZM85.21,112.43l-33.86,8,.57-1,11.87-2.8,20.45-4.82Zm-20.12-2.6,2.56-6.63a.55.55,0,0,1,.26-.28l.09,0a.59.59,0,0,1,.29,0,.5.5,0,0,1,.29.65L66,110.19s0,0,0,0l-.74.17a.5.5,0,0,1-.16-.18A.52.52,0,0,1,65.09,109.83Zm-14.58,6.7a.36.36,0,0,1,.22-.17L65.22,113a2.92,2.92,0,0,0,1,0,2.47,2.47,0,0,0,.52-.18,3.09,3.09,0,0,0,.44-.24l11.15-2.63L81.9,109l2-.48a.36.36,0,0,1,.44.27.37.37,0,0,1,0,.27.38.38,0,0,1-.23.16l-2.39.56-2.75.65-11.47,2.71-14.37,3.38-2.24.53h-.09a.34.34,0,0,1-.34-.28A.32.32,0,0,1,50.51,116.53Zm50.2,66.39L69,190.41l-2.12-2.09,34.87-8.27Zm-4.47-41.78-2.67-.51.91,3.83,2.67.51Z"/></g></g></svg>