<svg xmlns="http://www.w3.org/2000/svg" viewBox="0 0 55.25 78.82"><defs><style>.cls-1{fill:#3d0066;}</style></defs><title>LATAS 4</title><g id="Capa_2" data-name="Capa 2"><g id="Capa_1-2" data-name="Capa 1"><path class="cls-1" d="M7.94,20.61a8.55,8.55,0,0,0,4.57,2.59L2.89,29.74c-.13,0-.13.12-.25.12s-3.2,3.58-2.34,7c.49,2,2.09,3.45,4.68,4.44,2.47,8,4.32,14.3-.61,19a1.11,1.11,0,0,0-.37.86v9.87a7.74,7.74,0,0,0,7.77,7.77H41.85a9,9,0,0,0,6.91-3.09c10.24-12.2,6.91-35.14,0-49.81C44,15.56,37.66,9.51,32.11,9.88c-.61,0-.24,0-10.23,6.79a8.24,8.24,0,0,0-.62-4.81L16.7,2.49A4.37,4.37,0,0,0,10.29.76L2,6.06A4.41,4.41,0,0,0,1,12.6ZM47,74.25A6.45,6.45,0,0,1,42,76.47H11.89a5.26,5.26,0,0,1-5.3-5.3V66.86H51.1A23.57,23.57,0,0,1,47,74.25Zm4.81-9.74H6.59V61.8a10.89,10.89,0,0,0,3.08-5.67L22,43.8a1.22,1.22,0,0,0-1.73-1.73L9.92,52.43C9.79,49,8.68,45.15,7.45,41.08L42,18.89A42.15,42.15,0,0,1,46.79,27C52.09,38.37,54.8,53.29,51.84,64.51ZM32.73,12.35c.25.12,3.33-.49,7.77,4.69L6,39.36c-1.85-.74-3-1.61-3.21-2.84-.49-1.73,1-4,1.61-4.69ZM3.26,8l8.26-5.3a2.07,2.07,0,0,1,3,.74L19,13a5.49,5.49,0,0,1-2,7,5.62,5.62,0,0,1-3.08.86,5.47,5.47,0,0,1-4.2-2l-6.9-7.77A2.07,2.07,0,0,1,3.26,8Z"/><path class="cls-1" d="M8.44,11.49l4.31-2.84a1.16,1.16,0,1,0-1.23-2L7.2,9.51a1.17,1.17,0,0,0,1.24,2Z"/><path class="cls-1" d="M12.51,16.17a1.22,1.22,0,1,0,0-1.72A1.47,1.47,0,0,0,12.51,16.17Z"/><path class="cls-1" d="M37.17,50.82a1.09,1.09,0,0,0-1.6-.49l-8.39,4.19a1,1,0,0,0-.74,1,1.31,1.31,0,0,0,.62,1.11l8.38,4.19a1.31,1.31,0,0,0,1.61-.49,1.29,1.29,0,0,0-.5-1.6l-6.16-3.21,6.29-3.21A1,1,0,0,0,37.17,50.82Z"/><path class="cls-1" d="M35.69,33.56a1.22,1.22,0,1,0-1.6,1.85l3.7,3.33-3.7,3.33a1.22,1.22,0,1,0,1.6,1.85l4.56-4.19a1.13,1.13,0,0,0,.37-.87,1.11,1.11,0,0,0-.37-.86Z"/></g></g></svg>