<svg xmlns="http://www.w3.org/2000/svg" viewBox="0 0 113.49 84.29"><defs><style>.cls-1{fill:#3d0066;}</style></defs><title>CAJA 1</title><g id="Capa_2" data-name="Capa 2"><g id="Capa_1-2" data-name="Capa 1"><path class="cls-1" d="M102.56,84.29l-35.9,0,.07-68.83,35.91,0ZM71.4,79.52l26.44,0,.06-59.36-26.44,0Z"/><path class="cls-1" d="M71.4,84.25,9.82,84.19l.07-68.83,61.58.07ZM14.56,79.46l52.11.05.06-59.36-52.11,0Z"/><path class="cls-1" d="M73,20.17,10.85,20.1,0,0,60.25.07a3.93,3.93,0,0,1,3.5,2.13Zm-59.3-4.8,51.54.06L59.76,4.8,7.94,4.74Z"/><path class="cls-1" d="M101.63,20.23l-36.89-.07L76.59,2A4.09,4.09,0,0,1,80,.09h0l33.46,0ZM73.46,15.44l25.47.05L105.2,4.85l-24.83,0Z"/><polygon class="cls-1" points="90.91 65.82 91.3 65.82 91.29 63.31 91.98 63.31 91.09 61.77 90.21 63.32 90.9 63.32 90.91 65.82"/><rect class="cls-1" x="90.22" y="66.18" width="4.39" height="0.39" transform="translate(-0.22 0.31) rotate(-0.19)"/><polygon class="cls-1" points="92.85 63.31 93.55 63.31 93.56 65.81 93.94 65.81 93.94 63.3 94.63 63.3 93.74 61.77 92.85 63.31"/><path class="cls-1" d="M94,60.47H90.84a2.14,2.14,0,0,0-2.12,2.13l0,3.14a2.11,2.11,0,0,0,2.13,2.11H94a2.13,2.13,0,0,0,2.12-2.14V62.59A2.12,2.12,0,0,0,94,60.47Zm1.58,5.25A1.58,1.58,0,0,1,94,67.29l-3.13,0a1.59,1.59,0,0,1-1.58-1.57V62.61A1.58,1.58,0,0,1,90.84,61H94a1.57,1.57,0,0,1,1.57,1.56Z"/><path class="cls-1" d="M93.28,71.88h-1l.26.77.26-.14.28,1.2-.4-.94-.21.12-.38-1h-.56a4.39,4.39,0,0,0-.5,2.23c.16.75,1.06.77,1.3.75v1.91a3.56,3.56,0,0,0-.95.23,0,0,0,0,0,0,.05l.05,0h2s0,0,0,0,0,0,0,0a3.45,3.45,0,0,0-1-.23v-1.9c.29,0,1.12,0,1.28-.76A4.47,4.47,0,0,0,93.28,71.88Z"/><path class="cls-1" d="M94,70.66H90.85a2.13,2.13,0,0,0-2.13,2.12v3.13A2.12,2.12,0,0,0,90.84,78H94a2.12,2.12,0,0,0,2.12-2.12V72.79A2.11,2.11,0,0,0,94,70.66Zm1.56,5.26A1.56,1.56,0,0,1,94,77.48H90.84a1.58,1.58,0,0,1-1.56-1.57V72.78a1.58,1.58,0,0,1,1.57-1.57H94a1.59,1.59,0,0,1,1.57,1.57Z"/><rect class="cls-1" x="24.75" y="41.06" width="0.69" height="12.33" transform="translate(-22.16 72.27) rotate(-89.94)"/><rect class="cls-1" x="27.77" y="45.14" width="0.69" height="12.33" transform="translate(-23.21 79.36) rotate(-89.94)"/><rect class="cls-1" x="22.41" y="45.35" width="0.69" height="7.65" transform="matrix(0, -1, 1, 0, -26.44, 71.87)"/><rect class="cls-1" x="29.29" y="47.61" width="0.69" height="3.14" transform="translate(-19.58 78.76) rotate(-89.94)"/><rect class="cls-1" x="29.29" y="47.61" width="0.69" height="3.14" transform="translate(-19.58 78.76) rotate(-89.94)"/><rect class="cls-1" x="22.4" y="49.59" width="0.69" height="7.65" transform="translate(-30.69 76.1) rotate(-89.94)"/><rect class="cls-1" x="29.28" y="51.85" width="0.69" height="3.14" transform="translate(-23.82 82.99) rotate(-89.94)"/><rect class="cls-1" x="32.85" y="48.47" width="0.69" height="1.43" transform="translate(-16.03 82.32) rotate(-89.94)"/><rect class="cls-1" x="20.12" y="53.76" width="0.69" height="3.14" transform="translate(-34.89 75.73) rotate(-89.94)"/><rect class="cls-1" x="23.68" y="54.62" width="0.69" height="1.43" transform="translate(-31.34 79.3) rotate(-89.94)"/><rect class="cls-1" x="19.35" y="50.57" width="0.69" height="1.43" transform="translate(-31.62 70.93) rotate(-89.94)"/><rect class="cls-1" x="16.52" y="74.48" width="3.13" height="0.39" transform="translate(-56.6 92.68) rotate(-89.94)"/><rect class="cls-1" x="17.81" y="74.22" width="3.13" height="0.9" transform="translate(-55.33 93.96) rotate(-89.94)"/><rect class="cls-1" x="18.94" y="74.5" width="3.13" height="0.34" transform="matrix(0, -1, 1, 0, -54.19, 95.1)"/><rect class="cls-1" x="19.85" y="74.49" width="3.13" height="0.36" transform="translate(-53.29 96.01) rotate(-89.94)"/><rect class="cls-1" x="22.82" y="73.21" width="1.16" height="3.14" transform="translate(-0.21 0.06) rotate(-0.16)"/><rect class="cls-1" x="22.35" y="74.55" width="3.13" height="0.26" transform="translate(-50.79 98.51) rotate(-89.94)"/><rect class="cls-1" x="24.08" y="73.91" width="3.13" height="1.54" transform="translate(-49.06 100.24) rotate(-89.94)"/><rect class="cls-1" x="25.51" y="74.49" width="3.13" height="0.39" transform="translate(-47.63 101.68) rotate(-89.94)"/><rect class="cls-1" x="26.95" y="74.3" width="3.13" height="0.77" transform="translate(-46.2 103.12) rotate(-89.94)"/><rect class="cls-1" x="28.35" y="74.5" width="3.13" height="0.39" transform="translate(-44.82 104.54) rotate(-89.94)"/><rect class="cls-1" x="29.48" y="74.01" width="3.13" height="1.36" transform="translate(-43.68 105.65) rotate(-89.94)"/><rect class="cls-1" x="30.61" y="74.58" width="3.13" height="0.22" transform="translate(-42.54 106.79) rotate(-89.94)"/><rect class="cls-1" x="31.83" y="74.26" width="3.13" height="0.86" transform="translate(-41.33 108.01) rotate(-89.94)"/><rect class="cls-1" x="33.01" y="74.54" width="3.13" height="0.3" transform="translate(-40.15 109.19) rotate(-89.94)"/></g></g></svg>