<svg xmlns="http://www.w3.org/2000/svg" viewBox="0 0 79.14 117.76"><defs><style>.cls-1{fill:#3d0066;}</style></defs><title>CAJA 3</title><g id="Capa_2" data-name="Capa 2"><g id="Capa_1-2" data-name="Capa 1"><path class="cls-1" d="M20.59,99.51a1.48,1.48,0,0,1-1-.35A1.49,1.49,0,0,1,19.09,98l-.77-61.19a1.5,1.5,0,0,1,1.19-1.49l45.56-9.49a1.5,1.5,0,1,1,.61,2.93L21.33,38l.74,58.19,41.28-7.17.36-41.79a1.5,1.5,0,1,1,3,0l-.37,43A1.51,1.51,0,0,1,65.1,91.8L20.85,99.48A1.15,1.15,0,0,1,20.59,99.51Z"/><path class="cls-1" d="M22.49,117.76a1.5,1.5,0,0,1-.89-.29,1.53,1.53,0,0,1-.61-1.06L19.19,99l-3.38-1.53A1.5,1.5,0,0,1,17,94.76l4.17,1.88a1.5,1.5,0,0,1,.87,1.21l1.72,16.59L70,104.57,63.49,91a1.5,1.5,0,0,1,2.7-1.3L73.55,105a1.51,1.51,0,0,1,0,1.31,1.49,1.49,0,0,1-1,.81L22.8,117.73Z"/><path class="cls-1" d="M34.08,54.79A1.48,1.48,0,0,1,33,54.28L18.68,37.8a1.48,1.48,0,0,1-.34-1.23,1.5,1.5,0,0,1,.73-1l11.6-6.69H16.42a1.5,1.5,0,0,1-.35-3L59.36,15.5a1.5,1.5,0,0,1,1.2,2.69L50.81,25l14.66.85a1.52,1.52,0,0,1,1.14.64L78.87,44a1.5,1.5,0,0,1-.94,2.33L34.36,54.77A1.32,1.32,0,0,1,34.08,54.79ZM22.14,37.21,34.65,51.66l40.44-7.82L64.57,28.78,46.31,27.72A1.5,1.5,0,0,1,45.54,25l6.78-4.72-23.2,5.56h7.16a1.5,1.5,0,0,1,1.45,1.11,1.53,1.53,0,0,1-.7,1.69Z"/><path class="cls-1" d="M22.1,114.1h-14a1.49,1.49,0,0,1-1.28-.72,1.52,1.52,0,0,1-.06-1.46l8.17-16.15V28L.49,14.87a1.5,1.5,0,0,1,.63-2.56L48.35.05A1.49,1.49,0,0,1,50,.63l11,15.46a1.49,1.49,0,0,1,.27.87v9.26a1.5,1.5,0,0,1-3,0V17.44L48.1,3.21,4.56,14.51,17.43,26.22a1.49,1.49,0,0,1,.49,1.11V96.12a1.45,1.45,0,0,1-.16.68l-7.23,14.3H22.1a1.5,1.5,0,0,1,0,3Z"/></g></g></svg>