<svg xmlns="http://www.w3.org/2000/svg" viewBox="0 0 103 104.81"><defs><style>.cls-1{fill:#3d0066;}</style></defs><title>CAJA 2</title><g id="Capa_2" data-name="Capa 2"><g id="Capa_1-2" data-name="Capa 1"><path class="cls-1" d="M10.19,24.36c-2.54-4.58-5.16-9.31-7.77-14-1-1.86-.69-2.64,1.37-3Q23.42,3.71,43.08.14c1.94-.35,2.24-.16,3,1.74q2.51,6,5,12c.19.43.4.86.69,1.49L57.9,4.49c.54-1,1.15-1.91,1.6-2.92a2.36,2.36,0,0,1,3-1.45C69.67,1.55,76.82,2.91,84,4.29c5.16,1,10.33,2,15.49,3,1.92.38,2.27,1,1.53,2.82-2.07,5-4.18,10-6.2,15a3.43,3.43,0,0,0,0,2.28c2,5,4.09,9.9,6.14,14.85.84,2,.56,2.52-1.59,3-1.23.25-2.46.56-3.7.69s-1.49.61-1.48,1.76c0,9.71,0,19.41,0,29.12,0,2.76-.1,2.85-2.82,3.32-13,2.27-26,4.6-39.06,6.79a13.73,13.73,0,0,1-4.4-.52q-17.6-3.12-35.19-6.28c-2.62-.47-2.71-.56-2.71-3.26V46.39L4,45.24c-2.31-.46-2.58-1-1.67-3.16,2.15-5.17,4.29-10.34,6.47-15.5A18.58,18.58,0,0,1,10.19,24.36ZM91.1,46.89c-.66.11-1.27.19-1.87.31l-27.3,5.31a1.81,1.81,0,0,1-2.16-1c-.9-1.7-1.87-3.37-2.8-5-1.18-2.12-2.37-4.23-3.73-6.68V83.67L91.1,77.12ZM50,39.9c-.44.75-.69,1.14-.91,1.54-1.83,3.29-3.67,6.56-5.47,9.86a2,2,0,0,1-2.34,1.21q-7.69-1.53-15.41-3c-4.24-.82-8.48-1.61-12.81-2.43V77.12L50,83.67ZM97.85,10l-3.66-.72q-15.34-3-30.69-5.93a1.65,1.65,0,0,0-2.15,1c-1.41,2.74-3,5.41-4.48,8.1l-2.95,5.27,37.91,6.8ZM54,34.77c2.68,4.78,5.23,9.36,7.84,13.91a1.34,1.34,0,0,0,1.11.42c1.85-.28,3.69-.64,5.53-1q12-2.28,24-4.58c1.77-.33,3.52-.72,5.37-1.1-2.08-5-4.06-9.7-6.06-14.46ZM11.43,28l-6,14.49L41.2,49.3l8-14.52Zm32-24.88L5.58,10c2.57,4.62,5,9.09,7.55,13.52a1.48,1.48,0,0,0,1.27.42q11.89-2.06,23.78-4.19c3.72-.67,7.44-1.37,11.32-2.09C47.47,12.73,45.5,8,43.46,3.09Zm-21.63,23a6,6,0,0,0,.9.39C30.82,27.91,38.9,29.4,47,30.76a22.54,22.54,0,0,0,6.54.4c5.18-.69,10.32-1.74,15.48-2.65L82.4,26.13a3.76,3.76,0,0,0-1.4-.5q-12.69-2.29-25.39-4.55a15.2,15.2,0,0,0-4.69-.53c-4.52.67-9,1.62-13.48,2.49C32.34,24,27.25,25,21.83,26.07Z"/><path class="cls-1" d="M36.18,104.81a1.53,1.53,0,0,1-.3,0L1,96.27a1.3,1.3,0,0,1-.89-.8,1.26,1.26,0,0,1,.16-1.19L11.31,79a1.26,1.26,0,0,1,1.78-.29,1.28,1.28,0,0,1,.29,1.78l-10,13.78,32.28,7.88L50.08,84.43a1.21,1.21,0,0,1,1-.47,1.26,1.26,0,0,1,1,.54L64,101.27l35.8-7.16L91.66,79a1.28,1.28,0,1,1,2.25-1.21l8.94,16.6a1.28,1.28,0,0,1-.88,1.86l-38.3,7.66a1.28,1.28,0,0,1-1.3-.52L51,87.35l-13.83,17A1.26,1.26,0,0,1,36.18,104.81Z"/></g></g></svg>