<svg xmlns="http://www.w3.org/2000/svg" viewBox="0 0 131.92 153.18"><defs><style>.cls-1{fill:#3d0066;}</style></defs><title>Botellas plásticas</title><g id="Capa_2" data-name="Capa 2"><g id="Capa_1-2" data-name="Capa 1"><path class="cls-1" d="M131.92,129.55c0-2.92-.54-71.56-1.42-78.11-1.11-8.23-8.56-14.63-13-17.75l-.87-.72c-.45-.37-.87-.71-1.21-1a3.28,3.28,0,0,1-.92-1.19,21.76,21.76,0,0,1-.77-4.84.78.78,0,0,0-.06-1.55h0s0-.08,0-.12v-.1c0-.25,0-.5,0-.75,0-.57-.06-1.11-.07-1.61a5.29,5.29,0,0,0,1.41-3.57h0a5.28,5.28,0,0,0-5.29-5.28H103.1a5.28,5.28,0,0,0-3.73,9c0,.45,0,.94-.07,1.46,0,.26,0,.54,0,.82a.57.57,0,0,0,0,.13h0a.78.78,0,0,0-.78.78h0a.78.78,0,0,0,.71.77c-.08,1-.16,1.73-.25,2.37C91,22.9,82.09,17.43,79.32,15.74V9.69a5.49,5.49,0,0,0,.9-3h0a5.51,5.51,0,0,0-.9-3V0H51.67V4.26a5.55,5.55,0,0,0-.59,2.43,5.48,5.48,0,0,0,.59,2.43v6.7c-2.28,1.4-8.1,5-14.23,9a6.25,6.25,0,0,1-1.93-2.06,16,16,0,0,1-.59-3.13h1a.9.9,0,1,0,0-1.8H34.74c-.06-.66-.1-1.34-.14-2A6.09,6.09,0,0,0,31.21,4.66H23.67a6.09,6.09,0,0,0-6.09,6.09h0a6.08,6.08,0,0,0,2.68,5c0,.69-.09,1.37-.14,2h-.94a.9.9,0,0,0,0,1.8h.76a15.91,15.91,0,0,1-.6,3.13A6.75,6.75,0,0,1,17.22,25l-.83.69A38.25,38.25,0,0,0,5.62,37C3.17,40.81.22,46.74,0,53.29c-.2,6.17,2.67,22.84,5.2,37.54,1.65,9.62,3.36,19.56,3.23,21.4-.14,2.17-1.13,4.66-2.17,7.3a36,36,0,0,0-2.59,8.61c-.66,5.48,0,16.4.06,17.36a8.37,8.37,0,0,0,2.34,5.57,7.72,7.72,0,0,0,5.81,2.05,7.1,7.1,0,0,0,6.42-3.55,7.11,7.11,0,0,1,.45-.63h0a2,2,0,0,1,.54.07,2.52,2.52,0,0,1,.16.29,6.39,6.39,0,0,0,1.88,2.27,10.78,10.78,0,0,0,6.11,1.61,10.76,10.76,0,0,0,6.11-1.61,6.28,6.28,0,0,0,1.88-2.27l.16-.29a2,2,0,0,1,.55-.07h0a5.51,5.51,0,0,1,.45.63A7.1,7.1,0,0,0,43,153.12a7.77,7.77,0,0,0,5.82-2.05,7.51,7.51,0,0,0,1.73-2.68H65.71a4.85,4.85,0,0,0,4.45,2.27,4.57,4.57,0,0,0,3.69-1.74,4.49,4.49,0,0,0,.62.61,7.15,7.15,0,0,0,7.78,0,4,4,0,0,0,.62-.61,4.61,4.61,0,0,0,3.7,1.74,5.19,5.19,0,0,0,2.5-.51,7.78,7.78,0,0,0,3,.49,6.47,6.47,0,0,0,5.79-3.21l.25-.41c.11-.18.25-.4.35-.54l.19,0,.12.25a6.13,6.13,0,0,0,1.73,2.28A10.75,10.75,0,0,0,112,149a6.13,6.13,0,0,0,1.73-2.28l.13-.25.18,0c.1.14.24.36.35.54a6.65,6.65,0,0,0,6,3.62,7.06,7.06,0,0,0,5.29-1.89,8.58,8.58,0,0,0,2.33-5.48l3.83-13.42Zm-28.44-106a.41.41,0,0,0,0-.11h5.92a.34.34,0,0,0,0,.1c0,.25,0,.5,0,.76h-6C103.46,24.09,103.47,23.83,103.48,23.6ZM55.86,12.14a6,6,0,0,0,.74.07H74.7c.15,0,.29,0,.43,0V15.4H55.86Zm-31.47,4.7h6.07c0,.33.05.65.08,1H24.32C24.35,17.49,24.37,17.17,24.39,16.84ZM47,145.3v.12a4.37,4.37,0,0,1-1.08,2.65,3.65,3.65,0,0,1-2.78.86,3,3,0,0,1-3-1.7A4.53,4.53,0,0,0,36,144.76a4.35,4.35,0,0,0-4.23,2.55,2.4,2.4,0,0,1-.68.89c-1.43,1.05-5.83,1.05-7.25,0a2.21,2.21,0,0,1-.68-.89,4.36,4.36,0,0,0-4.23-2.55h-.19a4.54,4.54,0,0,0-3.9,2.48,3,3,0,0,1-3.06,1.7A3.67,3.67,0,0,1,9,148.09a4.25,4.25,0,0,1-1.09-2.67v-.13c0-.12-.71-11.42-.08-16.65a32.74,32.74,0,0,1,2.32-7.57,29.74,29.74,0,0,0,2.46-8.56c.15-2.23-1.09-9.58-3.29-22.39C7,76.33,4,59.17,4.19,53.42c.3-9.19,7.77-20,14.57-24.29l.12-.08L19,29c.29-.26.59-.5.87-.73a9.61,9.61,0,0,0,3.41-4,21.54,21.54,0,0,0,.87-4.54h6.56a21.6,21.6,0,0,0,.86,4.54,5.88,5.88,0,0,0,.53,1.1H27.9l8.27,4c3.92,1.89,14.18,14.45,14.49,24.17.19,5.74-2.77,22.91-5.14,36.7-2.2,12.81-3.43,20.16-3.28,22.39.19,2.82,1.34,5.74,2.45,8.56A32.79,32.79,0,0,1,47,128.64C47.65,133.87,47,145.18,47,145.3Zm1.59-25.77a26.59,26.59,0,0,1-2.18-7.3c-.12-1.84,1.59-11.78,3.24-21.4,2.53-14.7,5.39-31.37,5.2-37.54-.31-9.54-8.18-20.84-13.9-25.76,7.29-4.73,13.83-8.7,13.9-8.74l1-.61V17H75.13v2.09h1.65c2.28,1.4,12,7.37,20.4,13.09l-.93.78-.88.73c-4.41,3.12-11.86,9.52-13,17.75-.22,1.64-.42,6.89-.62,16H75a4.75,4.75,0,0,0-1.62,9.23l0,.39c0,.46-.08.88-.12,1.24a7.74,7.74,0,0,1-.3,1.59,5.06,5.06,0,0,1-1,.91l-.49.4c-2.68,1.9-7.17,5.79-7.86,10.88-.51,3.79-.8,41.19-.83,45.44v.27l1.67,6.39H51.25c.15-3.23.47-11.52-.08-16.06A36,36,0,0,0,48.59,119.53ZM87.37,146.3s-.18.19-.68.17-.47,0-.78-.52a4.11,4.11,0,0,0-1.26-1.41,3.06,3.06,0,0,0-1.82-.49,3.87,3.87,0,0,0-1.53.36,3.24,3.24,0,0,0-1.56,1.66l-.11.2a3.56,3.56,0,0,1-2.53,0s-.07-.13-.11-.2a3.32,3.32,0,0,0-1.57-1.67,4,4,0,0,0-1.53-.35h-.13a3,3,0,0,0-1.68.49A4.11,4.11,0,0,0,70.82,146c-.32.51-.32.51-.78.52s-.77-.05-1-.71a3.33,3.33,0,0,1-.08-.46v-.22l-2-7.79c.09-11.68.39-41.67.79-44.63.35-2.6,2.61-5.54,6.2-8.07l.16-.12.49-.41a6.43,6.43,0,0,0,2.25-2.74,11.5,11.5,0,0,0,.52-2.51c0-.07,0-.14,0-.21H79.5c0,.07,0,.15,0,.22a11.52,11.52,0,0,0,.52,2.5,5,5,0,0,0,1.38,2l.09.08v0l.82.67.45.37.16.13c3.59,2.53,5.84,5.47,6.2,8.07.39,3,.7,32.91.79,44.61l-2.14,7.47-.09.25v.31A1.77,1.77,0,0,1,87.37,146.3Zm36.54-3.65v.29a4.55,4.55,0,0,1-1.07,2.81,3,3,0,0,1-2.25.71,2.55,2.55,0,0,1-2.59-1.63c-.61-1-1.63-2.65-4-2.55a4.14,4.14,0,0,0-4,2.62,2.15,2.15,0,0,1-.61.88c-1.19,1-5,1-6.23,0a2.24,2.24,0,0,1-.61-.88,5.68,5.68,0,0,0-.68-1.12,4.4,4.4,0,0,0-7.3,1l-.22.35A2.37,2.37,0,0,1,92,146.46l-.21,0a6.11,6.11,0,0,0,.11-.77l2.24-7.83v-.3c0-4.25-.32-41.65-.83-45.44-.66-4.91-4.87-8.71-7.57-10.67l.06-4,.89-.89-.26-.26A4.72,4.72,0,0,0,86,68v-.37c.24-11.08.46-14.6.59-15.61.66-4.9,4.78-10.34,11.31-14.94l.16-.12.88-.74a10.49,10.49,0,0,0,3.23-3.61c.06-.14.12-.27.18-.43a26.08,26.08,0,0,0,1-6.07,1,1,0,0,0,0-.17h6.24a1,1,0,0,0,0,.17,26,26,0,0,0,1,6.07,7.42,7.42,0,0,0,2,2.83c.45.42.92.81,1.42,1.21l.88.74.16.12c6.53,4.6,10.65,10,11.31,14.94s1.19,52.56,1.38,77.28Z"/></g></g></svg>