<svg xmlns="http://www.w3.org/2000/svg" viewBox="0 0 83.42 163.29"><defs><style>.cls-1{fill:#3d0066;}</style></defs><title>Paso 2</title><g id="Capa_2" data-name="Capa 2"><g id="Capa_1-2" data-name="Capa 1"><path class="cls-1" d="M76.27,20.55l4.06-13a1.1,1.1,0,0,0-.77-1.47L60.3.07a1.11,1.11,0,0,0-1.47.76l-4.06,13-.07.22-1.19,3.81A7.44,7.44,0,0,1,48,22.27,17.4,17.4,0,0,0,33,34.57L.62,138.27a13.62,13.62,0,0,0,8.93,17c2.24.7,4.9.05,7.49-.37,2.07-.33,4.21-.89,5.78-.4,1.35.42,2.79,2.1,4.3,3.56,1.66,1.75,3.48,3.79,5.72,4.49l.23.07a13.62,13.62,0,0,0,17-8.93L82.61,49.82a17.4,17.4,0,0,0-5.47-18.68,7.07,7.07,0,0,1-2.06-6.79ZM73.79,34.77a12.74,12.74,0,0,1,4,13.8l-1.47,4.71-.08,0a13.41,13.41,0,0,1-.61,2.24c-.32.87-7.7,24.42-7.7,24.42-.17.77-22.12,72.5-22.12,72.5a9.27,9.27,0,0,1-11.39,5.78l-.23-.07c-1.12-.35-2.4-1.74-3.69-3.12-1.89-1.82-3.64-4.09-6.33-4.93s-5.57-.27-8.23.38c-1.85.4-3.92.74-5,.39A8.92,8.92,0,0,1,5.1,139.67s22.61-74.42,24-76.11l6.69-23,1.47-4.7a12.66,12.66,0,0,1,11-9.11,11.57,11.57,0,0,0,9.51-7.6l.77-2.47.13,0A32.36,32.36,0,0,1,58,11.39l2.73-8.73,16.8,5.25-2.73,8.73-.37-.11a7,7,0,0,1-2.19,3.66,6.69,6.69,0,0,1-1.75,1.59L70.09,23A11.51,11.51,0,0,0,73.79,34.77Z"/><path class="cls-1" d="M25,75.31c-9.37,1-21.86-5-22.39-5.26l-1.11-.54.07-1.24C3.71,29.75,5.17,29.52,7,29.21a2.13,2.13,0,0,1,2.33,1.54c.9,2.33,12.78,7.39,23.33,10.65l-1.1,3.54c-4.59-1.42-17.93-5.79-23.44-10.2-.9,5.76-2,19.53-2.77,32.47,3.18,1.4,12.45,5.12,19.27,4.42Z"/></g></g></svg>