<svg xmlns="http://www.w3.org/2000/svg" viewBox="0 0 135.8 165.87"><defs><style>.cls-1{fill:#3d0066;}</style></defs><title>Paso 3</title><g id="Capa_2" data-name="Capa 2"><g id="Capa_1-2" data-name="Capa 1"><path class="cls-1" d="M0,19.73a1.79,1.79,0,0,1,1.79-1.79H26.91V14.35a1.79,1.79,0,0,1,1.79-1.79h7.18V7.18h-9a1.8,1.8,0,1,1,0-3.59h9V1.79a1.79,1.79,0,1,1,3.58,0v1.8h9a1.8,1.8,0,1,1,0,3.59h-9v5.38h7.18a1.79,1.79,0,0,1,1.79,1.79v9H52A16.16,16.16,0,0,1,68.16,39.46v5.38a5.38,5.38,0,1,1-10.76,0V39.46A5.39,5.39,0,0,0,52,34.08H48.27a10.75,10.75,0,0,1-21.36-1.79H7.18a1.8,1.8,0,1,1,0-3.59H26.91V21.53H1.79A1.8,1.8,0,0,1,0,19.73ZM44.84,32.29V21.53H30.49V32.29a7.18,7.18,0,0,0,14.35,0Zm3.59-5.38v3.58H52a9,9,0,0,1,9,9v5.38a1.8,1.8,0,1,0,3.59,0V39.46A12.57,12.57,0,0,0,52,26.91Zm-17.94-9H44.84v-1.8H30.49ZM66.37,61V73.55a1.8,1.8,0,0,0,3.59,0V61a1.8,1.8,0,1,0-3.59,0ZM55.61,80.72a1.79,1.79,0,0,0,3.58,0V64.58a1.79,1.79,0,1,0-3.58,0Zm0,17.94a1.79,1.79,0,0,0,3.58,0V87.9a1.79,1.79,0,1,0-3.58,0ZM57.4,59.19a1.79,1.79,0,0,0,1.79-1.79V53.81a1.79,1.79,0,0,0-3.58,0V57.4A1.79,1.79,0,0,0,57.4,59.19Z"/><path class="cls-1" d="M129.58,44.21l6.06-11a1,1,0,0,0-.42-1.47L119,22.8a1,1,0,0,0-1.46.42l-6.06,11-.11.19-1.77,3.21a6.84,6.84,0,0,1-5.82,3A16,16,0,0,0,88,48.86L39.68,136.32a12.53,12.53,0,0,0,4.89,17c1.89,1,4.41.95,6.82,1,1.93.08,4,0,5.28.7,1.14.63,2.13,2.41,3.22,4,1.18,1.89,2.44,4.06,4.33,5.11l.19.1a12.52,12.52,0,0,0,17-4.89l48.47-87.65a16,16,0,0,0-1.48-17.84,6.51,6.51,0,0,1-.6-6.5Zm-4.86,12.36a11.72,11.72,0,0,1,1.1,13.18l-2.2,4-.06,0a12.18,12.18,0,0,1-1,1.91c-.45.72-11.45,20.58-11.45,20.58-.3.66-33.32,61.25-33.32,61.25a8.53,8.53,0,0,1-11.33,3.11l-.19-.11c-1-.52-1.85-2-2.75-3.5-1.37-2-2.53-4.35-4.8-5.6s-5-1.27-7.48-1.18c-1.74,0-3.67-.06-4.62-.58a8.21,8.21,0,0,1-3.21-11.15S77.57,75.52,79.17,74.26L89.43,54.81l2.2-4a11.64,11.64,0,0,1,11.56-6.18,10.63,10.63,0,0,0,10-5.1l1.15-2.07.1.06a30.6,30.6,0,0,1,.39-5l4.07-7.37L133,33.05,129,40.41l-.31-.17a6.51,6.51,0,0,1-2.65,2.9,6.27,6.27,0,0,1-1.88,1.11l-.58,1.06A10.6,10.6,0,0,0,124.72,56.57Z"/></g></g></svg>