<svg xmlns="http://www.w3.org/2000/svg" viewBox="0 0 146.45 167.12"><defs><style>.cls-1{fill:#3d0066;}</style></defs><title>Paso 1</title><g id="Capa_2" data-name="Capa 2"><g id="Capa_1-2" data-name="Capa 1"><path class="cls-1" d="M23.8,25.8V41.21H20.28V29.52l-2.73.75-.85-3,4-1.46Z"/><path class="cls-1" d="M21.67,11.65a8.73,8.73,0,0,1,7.91,4.46q1.23,2.05,2.39,4.15c.34.61.75.73,1.33.35a2.37,2.37,0,0,1,.63-.37c.31-.09.82-.26.94-.13a1.34,1.34,0,0,1,.18,1c-.16.85-.41,1.68-.63,2.52-.32,1.23-.65,2.46-1,3.69-.16.63-.47.9-1.18.7-2.08-.58-4.19-1.1-6.27-1.67-.28-.08-.69-.37-.69-.55a1.09,1.09,0,0,1,.51-.81c1.87-1,1.35-1.17.6-2.52-.6-1.06-1.21-2.12-1.83-3.17C23.2,17,20.7,17,19.33,19.3s-2.53,4.42-3.82,6.62c-1.08,1.83-3,2.34-4.54,1.22a2.84,2.84,0,0,1-.86-3.76c1.54-2.77,3.05-5.57,4.81-8.19A7.88,7.88,0,0,1,21.67,11.65Z"/><path class="cls-1" d="M12.76,51.91a37.08,37.08,0,0,1-5.58,0A8.72,8.72,0,0,1,.87,39.52c.8-1.6,1.71-3.14,2.61-4.69.38-.66.31-1.06-.41-1.41C2.58,33.17,1.74,33,2,32.27c.11-.35.87-.58,1.38-.73,1.78-.53,3.59-1,5.38-1.53.74-.22,1.12,0,1.31.73.54,2,1.12,4.07,1.64,6.11a3.08,3.08,0,0,1-.08,1,3.55,3.55,0,0,1-1.05-.16c-1.44-.74-1.43-.76-2.24.66-.61,1-1.17,2.14-1.83,3.16a2.94,2.94,0,0,0,2.7,4.63c2.54-.1,5.09,0,7.63,0,1.79,0,2.92.75,3.38,2.13a2.94,2.94,0,0,1-2.61,3.83h-4.8Z"/><path class="cls-1" d="M32.78,52.05c-1,0-1.9,0-2.85,0-.61,0-.91.24-.87.87a4.6,4.6,0,0,1,0,1c0,.24-.18.6-.35.65a.93.93,0,0,1-.78-.2c-.84-.77-1.62-1.59-2.42-2.4s-1.52-1.55-2.3-2.31a.75.75,0,0,1,0-1.24c1.59-1.58,3.17-3.19,4.78-4.76.18-.17.58-.32.75-.23a.87.87,0,0,1,.35.72C29,46.42,29.3,46,31,46c1.33,0,2.65,0,4,0a2.87,2.87,0,0,0,2.54-4.41c-1.31-2.28-2.66-4.53-3.94-6.82A3,3,0,0,1,36,30.22a2.58,2.58,0,0,1,2.54,1.3,94.89,94.89,0,0,1,4.62,8.29A8.76,8.76,0,0,1,35.62,52c-.94.06-1.9,0-2.84,0Z"/><rect class="cls-1" x="80.28" y="68.29" width="22.46" height="6.64" transform="translate(-22.57 93.69) rotate(-49)"/><rect class="cls-1" x="48.86" y="84.79" width="52.25" height="11.65" rx="2.01" transform="translate(-42.6 87.76) rotate(-49)"/><path class="cls-1" d="M87.58,43.56A29.44,29.44,0,1,1,117,73,29.47,29.47,0,0,1,87.58,43.56Zm5,0A24.42,24.42,0,1,0,117,19.14,24.44,24.44,0,0,0,92.6,43.56Z"/><path class="cls-1" d="M122.85,137.81l17.87-85.07a10.87,10.87,0,0,0-8.4-12.87l-.18,0c-1.84-.39-3.9.33-5.74.9-1.63.42-3.28,1-4.38.8-1.29-.27-2.56-1.49-3.88-2.53-1.64-1.31-3.24-2.79-5.07-3.18a10.88,10.88,0,0,0-12.87,8.4l-17.84,84.9A13.91,13.91,0,0,0,88,143.5a5.93,5.93,0,0,1,2.15,5.24l-.65,3.12,0,.18-2.24,10.64a.88.88,0,0,0,.73,1.1l15.77,3.32a.89.89,0,0,0,1.11-.73L107,155.74h0l.66-3.12a5.65,5.65,0,0,1,4.08-3.93A13.9,13.9,0,0,0,122.85,137.81ZM90.66,106.93l12.66,20.85L87,124.35Zm1.13-2.64,12.47,2.62,14.65,24.14-12.47-2.62Zm15.4,3.24,17.42,3.66-3.89,18.52Zm-18,54.61,1.5-7.15h0l13.75,2.89h0L103,165Zm-3.36-32.29.81-3.85,33.18,7-.8,3.85a10.19,10.19,0,0,1-8.2,8,9.19,9.19,0,0,0-7.16,6.73l-.42,2-10.09-2.12.43-2a9.24,9.24,0,0,0-3.67-9A10.11,10.11,0,0,1,85.85,129.85ZM137.24,52l-12.06,57.39-33.37-7L103.87,45a7.11,7.11,0,0,1,8.43-5.5,9.67,9.67,0,0,1,3.36,2.24c1.6,1.48,3.38,3,5.58,3.47s4.31-.44,6.33-1a9,9,0,0,1,3.8-.73l.18,0A7.42,7.42,0,0,1,137.24,52Z"/><path class="cls-1" d="M47.76,16.07c.56-4.07,1.55-7.84,4-11.07a12.52,12.52,0,0,1,10-5A23.65,23.65,0,0,1,74,3.38a39.24,39.24,0,0,1,8.31,6.17l.73.68,3.55-3.47C87.4,12.94,88.17,19,89,25.15L70.78,22.28l3.51-3.43c-.06-.1-.07-.17-.12-.21a39.55,39.55,0,0,0-9-7,14.43,14.43,0,0,0-6.12-1.8,11.13,11.13,0,0,0-8,2.82c-1.06.9-2,2-3,3Z"/></g></g></svg>