<svg xmlns="http://www.w3.org/2000/svg" viewBox="0 0 66.29 113.64"><defs><style>.cls-1{fill:#3d0066;}</style></defs><title>Paso 4</title><g id="Capa_2" data-name="Capa 2"><g id="Capa_1-2" data-name="Capa 1"><path class="cls-1" d="M64.6,5.08Q54,2.32,43.2,0c-.91-.19-2.83.55-3,1.16-1,4.62-1.79,9.31-2.56,14-.37,2.31-.63,4.34-3.6,5A11,11,0,0,0,25.9,27c-2.79,7.49-5.55,15-7.85,22.67-2.43,8.07-4.54,16-12.66,20.75a9.19,9.19,0,0,0-4.11,6A223.91,223.91,0,0,0,0,100.69c.05,8.78,8.6,13.46,16.45,9.7a6.39,6.39,0,0,1,5.52.54c7,5.44,16.68,2.37,18.16-6.45.84-5,.55-10.2.26-15.29-.21-3.74-1.26-7.44-1.91-11.16-1.28-7.27-1.27-7.27,6-8.76,2.51-.52,5.06-1,5.83-4S49,60.63,47.15,58.9c-1.36-1.28-2.67-2.59-4-3.88l.45-.82c3.4,0,6.82.25,10.19,0C55.07,54.05,57,53,57.36,52a97.66,97.66,0,0,0,4-15.15c.35-2.24-.76-5-1.86-7.14-2-4-1.15-7.16,3-9.1A2.56,2.56,0,0,0,63.62,19c1-3.77,2-7.54,2.66-11.37A3.15,3.15,0,0,0,64.6,5.08Zm-3.88,11.3a5.5,5.5,0,0,1-1.15,2c-1.62,1.86-5.18,7.45-4.28,8.41,2.23,2.39,3.26,10.32,2.89,12.28-.58,3-1.42,6-2.21,9-.59,2.26-1.88,3.42-4.46,3.13a64.17,64.17,0,0,0-7.21-.14c-3.62,0-5.25,2.47-3.41,5.59,1.08,1.82,2.91,3.17,4.36,4.77.86,1,1.65,2,3,3.61-2.91.67-5,1.19-7,1.63-4.51.93-7.7,2.75-6.34,9.41,1.67,8.23,4.24,16.45,2.83,25.09-.6,3.69-1.74,6.91-5.3,8.69-2.76,1.38-5.28,1.71-7.8-.83-3-3-6.45-3.35-9.76-1.58-5,2.69-9.84.85-11.34-4.68-.6-2.23-.25-4.74-.16-7.11.2-5.48.28-11,.89-16.43C4.49,77.07,5.41,74,7,73.11c9.13-5.29,11.68-14.24,14.06-23.42a9.48,9.48,0,0,1,.74-1.36c1.8,4.77,3.44,9.1,5.06,13.43A7.5,7.5,0,0,0,27.72,64,9.49,9.49,0,0,0,30,65.48c.18-.9.73-1.92.47-2.66-1.89-5.49-3.76-11-6.07-16.34a11,11,0,0,1,.21-9.3c1.26-2.57,2.21-5.3,3.48-7.86,2.2-4.46,5.77-7.6,10.21-7.51a26.53,26.53,0,0,0,2-6.14c.08-.54.16-1.07.29-1.6.47-1.84,1.29-7.21,1.61-9.85a.67.67,0,0,1,1-.51C46,5.15,55.25,7,62,8.51a1.23,1.23,0,0,1,.93,1.56Z"/></g></g></svg>